<?xml version="1.0" standalone="no"?>
<!DOCTYPE svg PUBLIC "-//W3C//DTD SVG 1.1//EN" "http://www.w3.org/Graphics/SVG/1.1/DTD/svg11.dtd" >
<svg>
<metadata>
Created by FontForge 20120731 at Wed Apr  8 10:52:15 2020
 By ffonts
Copyright 2019 The Baloo 2 Project Authors (https://github.com/EkType/Baloo2)
</metadata>
<defs>
<font id="BalooTamma2-ExtraBold" horiz-adv-x="0" >
  <font-face 
    font-family="Baloo Tamma 2 ExtraBold"
    font-weight="800"
    font-stretch="normal"
    units-per-em="1000"
    panose-1="3 8 9 2 4 3 2 2 2 0"
    ascent="800"
    descent="-200"
    x-height="485"
    cap-height="617"
    bbox="-621 -669 2061 1078"
    underline-thickness="50"
    underline-position="-50"
    unicode-range="U+000D-FB04"
  />
<missing-glyph horiz-adv-x="684" 
d="M455 517h-226v-385h226v385zM80 570q0 36 21 57.5t58 21.5h366q37 0 58 -21.5t21 -57.5v-491q0 -36 -21 -57.5t-58 -21.5h-366q-37 0 -58 21.5t-21 57.5v491z" />
    <glyph glyph-name="fi" unicode="fi" horiz-adv-x="709" 
d="M215 448h164q6 -11 11.5 -27.5t5.5 -36.5q0 -35 -15.5 -50.5t-41.5 -15.5h-115v-317q-11 -3 -31.5 -6t-44.5 -3q-50 0 -72 16.5t-22 63.5v414q0 51 17.5 87.5t47.5 60t70.5 34.5t86.5 11q74 0 109 -19.5t35 -66.5q0 -20 -8.5 -36t-18.5 -24q-19 5 -39.5 8.5t-47.5 3.5
q-43 0 -67 -14.5t-24 -50.5v-32zM483 479q11 3 31.5 6t44.5 3q50 0 72 -16.5t22 -63.5v-407q-11 -3 -31.5 -6t-44.5 -3q-50 0 -72 16.5t-22 63.5v407zM475 621q0 38 25.5 64t67.5 26t67.5 -26t25.5 -64t-25.5 -64t-67.5 -26t-67.5 26t-25.5 64z" />
    <glyph glyph-name="fl" unicode="fl" horiz-adv-x="712" 
d="M215 448h164q6 -11 11.5 -27.5t5.5 -36.5q0 -35 -15.5 -50.5t-41.5 -15.5h-115v-317q-11 -3 -31.5 -6t-44.5 -3q-50 0 -72 16.5t-22 63.5v414q0 51 17.5 87.5t47.5 60t70.5 34.5t86.5 11q74 0 109 -19.5t35 -66.5q0 -20 -8.5 -36t-18.5 -24q-19 5 -39.5 8.5t-47.5 3.5
q-43 0 -67 -14.5t-24 -50.5v-32zM579 -8q-50 0 -72 16.5t-22 63.5v580q11 3 31.5 6t44.5 3q50 0 72 -16.5t22 -63.5v-580q-11 -3 -31.5 -6t-44.5 -3z" />
    <glyph glyph-name="f_f" unicode="ff" horiz-adv-x="845" 
d="M215 448h164q6 -11 11.5 -27.5t5.5 -36.5q0 -35 -15.5 -50.5t-41.5 -15.5h-115v-317q-11 -3 -31.5 -6t-44.5 -3q-50 0 -72 16.5t-22 63.5v414q0 51 17.5 87.5t47.5 60t70.5 34.5t86.5 11q74 0 109 -19.5t35 -66.5q0 -20 -8.5 -36t-18.5 -24q-19 5 -39.5 8.5t-47.5 3.5
q-43 0 -67 -14.5t-24 -50.5v-32zM630 448h164q6 -11 11.5 -27.5t5.5 -36.5q0 -35 -15.5 -50.5t-41.5 -15.5h-115v-317q-11 -3 -31.5 -6t-44.5 -3q-50 0 -72 16.5t-22 63.5v414q0 51 17.5 87.5t47.5 60t70.5 34.5t86.5 11q74 0 109 -19.5t35 -66.5q0 -20 -8.5 -36t-18.5 -24
q-19 5 -39.5 8.5t-47.5 3.5q-43 0 -67 -14.5t-24 -50.5v-32z" />
    <glyph glyph-name="f_f_i" unicode="ffi" horiz-adv-x="1115" 
d="M215 448h164q6 -11 11.5 -27.5t5.5 -36.5q0 -35 -15.5 -50.5t-41.5 -15.5h-115v-317q-11 -3 -31.5 -6t-44.5 -3q-50 0 -72 16.5t-22 63.5v414q0 51 17.5 87.5t47.5 60t70.5 34.5t86.5 11q74 0 109 -19.5t35 -66.5q0 -20 -8.5 -36t-18.5 -24q-19 5 -39.5 8.5t-47.5 3.5
q-43 0 -67 -14.5t-24 -50.5v-32zM621 448h164q6 -11 11.5 -27.5t5.5 -36.5q0 -35 -15.5 -50.5t-41.5 -15.5h-115v-317q-11 -3 -31.5 -6t-44.5 -3q-50 0 -72 16.5t-22 63.5v414q0 51 17.5 87.5t47.5 60t70.5 34.5t86.5 11q74 0 109 -19.5t35 -66.5q0 -20 -8.5 -36t-18.5 -24
q-19 5 -39.5 8.5t-47.5 3.5q-43 0 -67 -14.5t-24 -50.5v-32zM889 479q11 3 31.5 6t44.5 3q50 0 72 -16.5t22 -63.5v-407q-11 -3 -31.5 -6t-44.5 -3q-50 0 -72 16.5t-22 63.5v407zM881 621q0 38 25.5 64t67.5 26t67.5 -26t25.5 -64t-25.5 -64t-67.5 -26t-67.5 26t-25.5 64z
" />
    <glyph glyph-name="f_f_l" unicode="ffl" horiz-adv-x="1129" 
d="M987 -8q-50 0 -72 16.5t-22 63.5v580q11 3 31.5 6t44.5 3q50 0 72 -16.5t22 -63.5v-580q-11 -3 -31.5 -6t-44.5 -3zM215 448h164q6 -11 11.5 -27.5t5.5 -36.5q0 -35 -15.5 -50.5t-41.5 -15.5h-115v-317q-11 -3 -31.5 -6t-44.5 -3q-50 0 -72 16.5t-22 63.5v414
q0 51 17.5 87.5t47.5 60t70.5 34.5t86.5 11q74 0 109 -19.5t35 -66.5q0 -20 -8.5 -36t-18.5 -24q-19 5 -39.5 8.5t-47.5 3.5q-43 0 -67 -14.5t-24 -50.5v-32zM621 448h164q6 -11 11.5 -27.5t5.5 -36.5q0 -35 -15.5 -50.5t-41.5 -15.5h-115v-317q-11 -3 -31.5 -6t-44.5 -3
q-50 0 -72 16.5t-22 63.5v414q0 51 17.5 87.5t47.5 60t70.5 34.5t86.5 11q74 0 109 -19.5t35 -66.5q0 -20 -8.5 -36t-18.5 -24q-19 5 -39.5 8.5t-47.5 3.5q-43 0 -67 -14.5t-24 -50.5v-32z" />
    <glyph glyph-name=".notdef" horiz-adv-x="684" 
d="M455 517h-226v-385h226v385zM80 570q0 36 21 57.5t58 21.5h366q37 0 58 -21.5t21 -57.5v-491q0 -36 -21 -57.5t-58 -21.5h-366q-37 0 -58 21.5t-21 57.5v491z" />
    <glyph glyph-name="NULL" 
 />
    <glyph glyph-name="NULL" 
 />
    <glyph glyph-name="uni000D" unicode="&#xd;" horiz-adv-x="223" 
 />
    <glyph glyph-name="space" unicode=" " horiz-adv-x="200" 
 />
    <glyph glyph-name="exclam" unicode="!" horiz-adv-x="298" 
d="M237 558q0 -23 -1 -63t-4 -86.5t-8 -93.5t-12 -84q-4 -3 -12 -6t-17 -5t-18 -3t-16 -1q-29 0 -48.5 9t-24.5 35q-5 23 -8.5 66.5t-6.5 94t-4.5 101.5t-1.5 89q20 11 45.5 17.5t50.5 6.5q41 0 63.5 -19t22.5 -58zM53 76q0 42 25.5 68t70.5 26t70.5 -26t25.5 -68t-25.5 -68
t-70.5 -26t-70.5 26t-25.5 68z" />
    <glyph glyph-name="quotedbl" unicode="&#x22;" horiz-adv-x="410" 
d="M158 378q-11 -6 -25 -8t-33 -2q-25 0 -42.5 9.5t-19.5 34.5l-13 199q30 24 80 24q38 0 57 -14t19 -46q0 -14 -2 -39t-5.5 -53.5t-7.5 -56.5t-8 -48zM359 378q-11 -6 -25 -8t-33 -2q-25 0 -42.5 9.5t-19.5 34.5l-13 199q30 24 80 24q38 0 57 -14t19 -46q0 -14 -2 -39
t-5.5 -53.5t-7.5 -56.5t-8 -48z" />
    <glyph glyph-name="numbersign" unicode="#" horiz-adv-x="714" 
d="M563 357l-23 -101h99q6 -10 12 -26.5t6 -35.5q0 -35 -15.5 -50t-41.5 -15h-88l-28 -130q-14 -2 -25.5 -2.5t-22.5 -0.5q-38 0 -60 14.5t-22 54.5q0 15 2.5 31.5t5.5 32.5h-90l-28 -130q-14 -2 -25.5 -2.5t-22.5 -0.5q-38 0 -60 14.5t-22 54.5q0 15 2.5 31.5t5.5 32.5h-74
q-7 10 -12.5 26.5t-5.5 35.5q0 35 15.5 50t41.5 15h63l22 101h-97q-7 10 -12.5 26.5t-5.5 35.5q0 35 15.5 50t41.5 15h86l29 131q14 2 26.5 2h22.5q37 0 60 -13.5t23 -53.5q0 -16 -3 -32.5t-7 -33.5h89l29 131q14 2 26.5 2h22.5q37 0 60 -13.5t23 -53.5q0 -16 -3 -32.5
t-7 -33.5h75q6 -10 12 -26.5t6 -35.5q0 -35 -15.5 -50t-41.5 -15h-64zM300 256h90l22 101h-89z" />
    <glyph glyph-name="dollar" unicode="$" horiz-adv-x="565" 
d="M255 124q49 0 69 16t20 36t-16 31.5t-45 21.5l-42 14q-44 15 -80 30.5t-62 37.5t-40.5 52.5t-14.5 74.5q0 68 42 114.5t120 63.5v79q10 3 28 5.5t39 2.5q44 0 63.5 -14.5t19.5 -56.5v-11q62 -8 99.5 -32t37.5 -66q0 -26 -12 -44.5t-29 -31.5q-22 14 -59 24.5t-81 10.5
q-45 0 -66 -12.5t-21 -31.5q0 -15 13 -24.5t39 -17.5l53 -17q94 -30 144.5 -77.5t50.5 -127.5q0 -68 -43 -116.5t-126 -65.5v-78q-10 -3 -28 -5.5t-39 -2.5q-44 0 -63.5 14.5t-19.5 56.5v8q-36 4 -65.5 13t-51 23t-33.5 33t-12 43q0 29 17 49.5t37 31.5q28 -22 68.5 -38
t88.5 -16z" />
    <glyph glyph-name="percent" unicode="%" horiz-adv-x="799" 
d="M351 458q0 -75 -45 -117t-116 -42q-72 0 -116.5 42t-44.5 117q0 74 44.5 116t116.5 42q71 0 116 -42t45 -116zM150 458q0 -30 11.5 -44.5t28.5 -14.5t28.5 14.5t11.5 44.5q0 29 -11.5 43t-28.5 14t-28.5 -14t-11.5 -43zM542 617q34 -5 61.5 -18.5t27.5 -36.5
q0 -16 -8 -33t-21 -35l-346 -501q-38 3 -63.5 17.5t-25.5 37.5q0 16 8 32.5t21 34.5zM770 151q0 -75 -45 -117t-116 -42q-72 0 -116.5 42t-44.5 117q0 74 44.5 116t116.5 42q71 0 116 -42t45 -116zM569 151q0 -30 11.5 -44.5t28.5 -14.5t28.5 14.5t11.5 44.5q0 29 -11.5 43
t-28.5 14t-28.5 -14t-11.5 -43z" />
    <glyph glyph-name="ampersand" unicode="&#x26;" horiz-adv-x="673" 
d="M566 -14q-40 0 -78 38l-19 18q-42 -32 -93 -45t-97 -13q-59 0 -104 15.5t-76 42.5t-47 63.5t-16 79.5q0 35 10.5 63.5t28 51t40.5 39t49 27.5q-27 35 -33.5 59t-6.5 45q0 31 12.5 59t36 49t58.5 33t80 12q63 0 89 -22.5t26 -57.5q0 -16 -6.5 -32.5t-19.5 -29.5
q-11 5 -25.5 8t-30.5 3q-26 0 -43 -11.5t-17 -34.5q0 -15 11 -28.5t34 -36.5l127 -124q7 31 9 63.5t2 57.5q19 8 35.5 11.5t33.5 3.5q24 0 39 -7t23.5 -19.5t11.5 -29.5t3 -37q0 -35 -9.5 -74.5t-31.5 -79.5l77 -74q-2 -38 -26 -62t-57 -24zM289 114q12 0 35.5 4t49.5 20
l-129 129q-22 -10 -35.5 -29t-13.5 -42q0 -35 23.5 -58.5t69.5 -23.5z" />
    <glyph glyph-name="quotesingle" unicode="'" horiz-adv-x="219" 
d="M168 382q-11 -6 -27 -10t-36 -4q-27 0 -46 11.5t-21 36.5l-13 191q14 11 36 19.5t49 8.5q38 0 59.5 -15t21.5 -49q0 -14 -2 -38t-5.5 -51t-7.5 -53.5t-8 -46.5z" />
    <glyph glyph-name="parenleft" unicode="(" horiz-adv-x="305" 
d="M223 -136q-41 0 -68.5 25t-46.5 60q-29 54 -47.5 133t-18.5 184t18.5 184t47.5 133q19 35 46.5 60t68.5 25q27 0 48 -15t32 -32q-24 -36 -42.5 -74.5t-31 -81.5t-19 -92t-6.5 -107t6.5 -107t19 -92t31 -81.5t42.5 -74.5q-11 -17 -32 -32t-48 -15z" />
    <glyph glyph-name="parenright" unicode=")" horiz-adv-x="305" 
d="M83 -136q-27 0 -48 15t-32 32q24 36 42.5 74.5t31 81.5t19 92t6.5 107t-6.5 107t-19 92t-31 81.5t-42.5 74.5q11 17 32 32t48 15q41 0 68.5 -25t46.5 -60q29 -54 47.5 -133t18.5 -184t-18.5 -184t-47.5 -133q-19 -35 -46.5 -60t-68.5 -25z" />
    <glyph glyph-name="asterisk" unicode="*" horiz-adv-x="351" 
d="M75 570q7 0 15.5 -2t17.5 -5l15 -5v72q8 5 22 12t32 7q23 0 37 -12t14 -36q0 -5 -0.5 -17.5t-1.5 -27.5l59 25q17 -8 29 -23t12 -36q0 -24 -12.5 -33t-34.5 -18l-19 -8l47 -66q-7 -22 -23 -36t-39 -14q-24 0 -36 13.5t-23 32.5l-8 13l-38 -56q-12 -3 -23 -3q-33 0 -50 13
t-17 36q0 12 5.5 23t16.5 25l14 19l-60 17q-6 18 -6 37q0 25 14.5 39t40.5 14z" />
    <glyph glyph-name="plus" unicode="+" horiz-adv-x="545" 
d="M351 356h147q6 -11 11.5 -29t5.5 -38q0 -37 -17 -52t-44 -15h-103v-173q-10 -2 -31 -5t-40 -3q-41 0 -62 13.5t-21 57.5v110h-150q-7 11 -12 27.5t-5 36.5q0 37 17 53.5t44 16.5h106v169q10 2 30.5 5.5t39.5 3.5q40 0 62 -14t22 -58v-106z" />
    <glyph glyph-name="comma" unicode="," horiz-adv-x="243" 
d="M149 -73q-17 -22 -36.5 -32t-47.5 -10q-44 0 -75 25q22 62 37 127.5t25 118.5q17 9 41 15.5t48 6.5q31 0 54.5 -14t23.5 -50q0 -21 -6 -46.5t-16 -51t-22.5 -49.5t-25.5 -40z" />
    <glyph glyph-name="hyphen" unicode="-" horiz-adv-x="354" 
d="M49 186q-7 11 -13 29t-6 38q0 37 17 53.5t44 16.5h214q6 -11 12.5 -29t6.5 -38q0 -37 -17 -53.5t-44 -16.5h-214z" />
    <glyph glyph-name="period" unicode="." horiz-adv-x="238" 
d="M22 81q0 42 26 70t71 28t71 -28t26 -70t-26 -70t-71 -28t-71 28t-26 70z" />
    <glyph glyph-name="slash" unicode="/" horiz-adv-x="343" 
d="M141 -106q-14 -2 -27 -2.5t-24 -0.5q-42 0 -64.5 18t-22.5 58q0 27 8 54.5t14 48.5l176 635q15 2 28 2.5t24 0.5q40 0 63.5 -17t23.5 -55q0 -29 -8 -55t-15 -52z" />
    <glyph glyph-name="zero" unicode="0" horiz-adv-x="606" 
d="M400 304q0 88 -25.5 136t-72.5 48t-71.5 -48t-24.5 -136q0 -94 24.5 -139.5t71.5 -45.5t72.5 45.5t25.5 139.5zM303 -16q-59 0 -108.5 20t-85 60.5t-55 100t-19.5 139.5q0 77 19.5 136.5t55 100t85 61.5t108.5 21q58 0 107.5 -21t85 -61.5t55.5 -100t20 -136.5
q0 -80 -20 -139.5t-55.5 -100t-85 -60.5t-107.5 -20z" />
    <glyph glyph-name="one" unicode="1" horiz-adv-x="393" 
d="M55 415q-15 10 -30 28t-15 50q0 60 73 84l112 38h37q43 0 68 -25t25 -68v-521q-11 -3 -31.5 -6t-44.5 -3q-50 0 -72 16.5t-22 63.5v374z" />
    <glyph glyph-name="two" unicode="2" horiz-adv-x="522" 
d="M60 520q0 52 49 77.5t132 25.5q59 0 104 -14.5t75 -39.5t45 -59t15 -73q0 -105 -119 -200l-131 -105h240q6 -11 11.5 -28t5.5 -37q0 -36 -16 -51.5t-42 -15.5h-347q-22 15 -34.5 38.5t-12.5 55.5q0 34 14 57.5t31 37.5l138 118q26 22 43 39.5t27.5 31.5t15 26t4.5 23
q0 28 -22.5 44t-62.5 16t-71.5 -12.5t-52.5 -26.5q-17 12 -28 30t-11 42z" />
    <glyph glyph-name="three" unicode="3" horiz-adv-x="518" 
d="M233 623q115 0 175 -47.5t60 -127.5q0 -48 -25.5 -81.5t-60.5 -50.5q21 -8 39 -20t32 -30t22 -42t8 -56q0 -43 -18.5 -77t-51.5 -58t-78.5 -36.5t-99.5 -12.5q-104 0 -157 29t-53 74q0 27 13 46.5t32 30.5q20 -14 53.5 -29.5t87.5 -15.5q51 0 75.5 18t24.5 47t-19.5 44
t-67.5 15h-94q-7 11 -12 27t-5 38q0 23 4.5 39.5t12.5 27.5h94q72 0 72 55q0 26 -23 42t-69 16q-41 0 -72 -9.5t-51 -23.5q-17 12 -28 29.5t-11 41.5q0 50 52 73.5t139 23.5z" />
    <glyph glyph-name="four" unicode="4" horiz-adv-x="602" 
d="M282 601q19 6 43.5 10t44.5 4q23 0 44.5 -4.5t38.5 -15t27 -28.5t10 -45v-266h79q6 -11 12 -29t6 -38q0 -38 -17 -54t-43 -16h-37v-118q-11 -2 -33 -5.5t-42 -3.5q-22 0 -39 2t-28.5 9.5t-17.5 21.5t-6 38v56h-237q-23 12 -39.5 35.5t-16.5 57.5q0 19 4.5 42t17.5 40z
M333 444h-4l-123 -188h127v188z" />
    <glyph glyph-name="five" unicode="5" horiz-adv-x="522" 
d="M68 515q3 43 27 68t67 25h288q7 -11 12.5 -28t5.5 -38q0 -37 -16 -54t-44 -17h-192l-7 -94q19 5 38.5 9t49.5 4q52 0 90.5 -15.5t63.5 -42.5t37 -63t12 -77t-14.5 -79t-45 -66.5t-77.5 -45.5t-113 -17q-46 0 -83.5 7t-64.5 21t-42 34.5t-15 47.5q0 28 16 47t36 30
q28 -21 60 -36.5t81 -15.5q47 0 68.5 21t21.5 51q0 29 -19 48t-62 19q-27 0 -45 -6t-41 -17q-49 2 -77.5 26.5t-28.5 75.5v7.5t1 18.5l12 152v0z" />
    <glyph glyph-name="six" unicode="6" horiz-adv-x="558" 
d="M483 534q0 -21 -9.5 -40.5t-22.5 -29.5q-27 12 -56.5 18.5t-54.5 6.5q-60 0 -92.5 -31.5t-43.5 -90.5q20 14 53 25.5t68 11.5q92 0 146.5 -53t54.5 -152q0 -43 -15 -82t-45 -68.5t-74.5 -47t-103.5 -17.5q-118 0 -185.5 79t-67.5 225q0 83 20.5 146t58 105t89.5 63
t115 21q80 0 122.5 -22t42.5 -67zM289 119q33 0 49.5 22t16.5 57t-17.5 55.5t-50.5 20.5q-19 0 -40.5 -8t-34.5 -22v-25q0 -54 22.5 -77t54.5 -23z" />
    <glyph glyph-name="seven" unicode="7" horiz-adv-x="482" 
d="M428 608q17 -11 30.5 -30.5t13.5 -48.5q0 -16 -3 -32.5t-10 -32.5l-208 -471q-14 -1 -26.5 -1h-23.5q-45 0 -73 17t-28 59q0 21 10 45.5t27 58.5l146 299h-245q-6 11 -12 29t-6 38q0 38 17 54t43 16h348z" />
    <glyph glyph-name="eight" unicode="8" horiz-adv-x="560" 
d="M31 168q0 56 28 93.5t69 57.5q-38 20 -59.5 52.5t-21.5 77.5q0 41 17 73.5t48 55.5t74 35t95 12q111 0 174.5 -47t63.5 -128q0 -51 -24 -82.5t-62 -50.5q20 -9 38.5 -22t32.5 -31t22.5 -42.5t8.5 -55.5q0 -43 -18 -77t-51.5 -58t-80.5 -36.5t-104 -12.5q-56 0 -102 12.5
t-79 36.5t-51 58.5t-18 78.5zM365 178q0 29 -24.5 50.5t-70.5 30.5q-36 -13 -52.5 -34.5t-16.5 -46.5q0 -32 22 -50t58 -18q38 0 61 17t23 51zM214 440q0 -29 20 -45.5t53 -23.5q31 11 48 27.5t17 42.5q0 27 -18.5 42t-52.5 15q-31 0 -49 -16t-18 -42z" />
    <glyph glyph-name="nine" unicode="9" horiz-adv-x="558" 
d="M69 73q0 21 9.5 40.5t22.5 29.5q27 -12 56.5 -18.5t54.5 -6.5q65 0 103 33.5t38 89.5v2q-20 -16 -50.5 -25t-65.5 -9q-45 0 -82.5 12.5t-65 37.5t-42.5 62.5t-15 86.5q0 43 15 82t45 68.5t74.5 47t103.5 17.5q118 0 185.5 -79t67.5 -225q0 -83 -20.5 -146t-58 -105
t-89.5 -63t-115 -21q-80 0 -125.5 22t-45.5 67zM276 337q19 0 38.5 8t32.5 22v13q0 108 -78 108q-33 0 -50.5 -20.5t-17.5 -55.5t21.5 -55t53.5 -20z" />
    <glyph glyph-name="colon" unicode=":" horiz-adv-x="258" 
d="M38 395q0 42 26 70t71 28t71 -28t26 -70t-26 -70t-71 -28t-71 28t-26 70zM32 81q0 42 26 70t71 28t71 -28t26 -70t-26 -70t-71 -28t-71 28t-26 70z" />
    <glyph glyph-name="semicolon" unicode=";" horiz-adv-x="266" 
d="M38 395q0 42 26 70t71 28t71 -28t26 -70t-26 -70t-71 -28t-71 28t-26 70zM162 -73q-17 -22 -36.5 -32t-47.5 -10q-44 0 -75 25q22 62 37 127.5t25 118.5q17 9 41 15.5t48 6.5q31 0 54.5 -14t23.5 -50q0 -21 -6 -46.5t-16 -51t-22.5 -49.5t-25.5 -40z" />
    <glyph glyph-name="less" unicode="&#x3c;" horiz-adv-x="490" 
d="M457 154q2 -6 2.5 -14t0.5 -15q0 -18 -4 -34t-13 -28t-23.5 -19.5t-36.5 -7.5q-21 0 -41 8.5t-51 24.5l-235 119q-26 34 -26 90q0 42 12 66t35 35l299 150q49 -13 66.5 -35.5t17.5 -48.5q0 -35 -17.5 -54.5t-51.5 -36.5l-200 -79z" />
    <glyph glyph-name="equal" unicode="=" horiz-adv-x="509" 
d="M49 333q-7 11 -12 27.5t-5 36.5q0 37 17 53.5t44 16.5h367q6 -11 11.5 -29t5.5 -38q0 -37 -17 -52t-44 -15h-367zM49 124q-7 11 -12 27.5t-5 36.5q0 37 17 53.5t44 16.5h367q6 -11 11.5 -29t5.5 -38q0 -37 -17 -52t-44 -15h-367z" />
    <glyph glyph-name="greater" unicode="&#x3e;" horiz-adv-x="491" 
d="M33 406q-2 6 -2.5 14t-0.5 15q0 18 4 34t13 28t23.5 19.5t36.5 7.5q21 0 43.5 -9.5t48.5 -22.5l235 -117q26 -34 26 -90q0 -42 -12 -65.5t-35 -35.5l-295 -150q-49 13 -66.5 35.5t-17.5 48.5q0 35 17.5 54.5t51.5 36.5l196 79z" />
    <glyph glyph-name="question" unicode="?" horiz-adv-x="498" 
d="M136 210q-17 11 -32 33.5t-15 54.5q0 31 16.5 46.5t48.5 23.5l78 19q26 8 38 19.5t12 34.5q0 19 -18.5 35.5t-63.5 16.5q-41 0 -77 -10t-58 -25q-17 13 -29 31.5t-12 44.5t15 45.5t41.5 32t63 18.5t80.5 6q59 0 103.5 -14.5t74.5 -40.5t45.5 -62t15.5 -78
q0 -87 -57 -137.5t-169 -73.5zM103 77q0 42 25.5 68t70.5 26t70.5 -26t25.5 -68t-25.5 -68t-70.5 -26t-70.5 26t-25.5 68z" />
    <glyph glyph-name="at" unicode="@" horiz-adv-x="1069" 
d="M640 30q-24 -14 -55.5 -22t-69.5 -8q-45 0 -82.5 13t-64.5 38.5t-42 62t-15 83.5q0 54 18.5 99.5t51.5 77.5t79.5 50t103.5 18q58 0 98 -14t68 -33q39 -27 39 -67v-10t-1 -10l-21 -180q4 -2 12 -3t13 -1q45 0 71 42.5t26 110.5q0 57 -23 104.5t-63.5 81.5t-97 53
t-123.5 19q-78 0 -143 -25t-111.5 -69.5t-72 -105t-25.5 -131.5q0 -69 22.5 -124t62.5 -94t94.5 -59.5t119.5 -20.5q45 0 73.5 4t50.5 7q7 -11 12.5 -27t5.5 -30q0 -21 -7 -37t-24.5 -27t-47.5 -17t-75 -6q-77 0 -156.5 24t-144.5 75.5t-106 133.5t-41 198q0 106 39.5 191.5
t108.5 144.5t162.5 91t201.5 32q103 0 189 -27.5t148 -77.5t96.5 -122t34.5 -160q0 -134 -67 -207.5t-190 -73.5q-30 0 -66.5 8.5t-65.5 26.5zM480 198q0 -40 19.5 -55t44.5 -15q29 0 50 15l15 156q-8 5 -18.5 7.5t-27.5 2.5q-35 0 -59 -28.5t-24 -82.5z" />
    <glyph glyph-name="A" unicode="A" horiz-adv-x="627" 
d="M403 126h-181q-10 -36 -17.5 -67t-14.5 -58q-14 -5 -29.5 -8.5t-37.5 -3.5q-51 0 -75.5 17.5t-24.5 48.5q0 14 4 28t9 33q7 27 19.5 67.5t27.5 87t32 95t32 92t27.5 78t19.5 52.5q17 10 51.5 19t69.5 9q50 0 88.5 -14.5t49.5 -46.5q18 -51 39 -120t42 -142.5t41 -145
t35 -126.5q-12 -14 -36 -22.5t-57 -8.5q-49 0 -68 16t-28 51zM314 459q-14 -41 -31 -91t-33 -107h124q-14 57 -28.5 107.5t-25.5 90.5h-6z" />
    <glyph glyph-name="B" unicode="B" horiz-adv-x="619" 
d="M564 447q0 -45 -25 -76.5t-70 -49.5q116 -38 116 -143q0 -99 -73.5 -146.5t-211.5 -47.5q-17 0 -40 1t-47.5 4t-48.5 7.5t-44 12.5q-55 21 -55 73v467q0 21 11.5 32.5t31.5 18.5q34 12 85 17.5t105 5.5q128 0 197 -43t69 -133zM406 186q0 61 -82 61h-89v-122
q14 -4 36 -5.5t42 -1.5q40 0 66.5 16.5t26.5 51.5zM235 369h73q43 0 62.5 16t19.5 47q0 27 -22.5 43t-67.5 16q-15 0 -34.5 -1t-30.5 -3v-118z" />
    <glyph glyph-name="C" unicode="C" horiz-adv-x="571" 
d="M541 518q0 -26 -13 -45t-30 -30q-26 17 -55.5 29t-68.5 12q-77 0 -118 -47.5t-41 -133.5q0 -89 44.5 -134.5t123.5 -45.5q41 0 69.5 11t54.5 25q17 -14 26.5 -33.5t9.5 -45.5q0 -23 -12 -42t-41 -32q-18 -8 -51 -16t-80 -8q-68 0 -127 19t-103 58t-69 99.5t-25 144.5
q0 78 24.5 138t67 101t99.5 62t122 21q92 0 142.5 -30t50.5 -77z" />
    <glyph glyph-name="D" unicode="D" horiz-adv-x="666" 
d="M451 301q0 90 -42 135.5t-112 45.5q-14 0 -28.5 -1t-29.5 -3v-348q11 -2 27 -3.5t30 -1.5q69 0 112 44t43 132zM631 304q0 -80 -24 -140t-68.5 -100t-106.5 -60t-137 -20q-17 0 -39 1t-45.5 4t-47 7.5t-43.5 12.5q-55 21 -55 73v467q0 21 11.5 32.5t31.5 18.5
q43 14 91 18.5t86 4.5q78 0 141.5 -19t109 -58.5t70.5 -99.5t25 -142z" />
    <glyph glyph-name="E" unicode="E" horiz-adv-x="548" 
d="M158 -3q-43 0 -68 25t-25 68v423q0 43 25 68t68 25h330q7 -11 12.5 -28t5.5 -38q0 -37 -16 -54t-44 -17h-211v-93h225q7 -11 12.5 -28t5.5 -38q0 -37 -16 -53.5t-44 -16.5h-183v-105h257q7 -11 12.5 -29t5.5 -39q0 -37 -16 -53.5t-44 -16.5h-292v0z" />
    <glyph glyph-name="F" unicode="F" horiz-adv-x="531" 
d="M65 513q0 43 25 68t68 25h333q7 -11 12.5 -29t5.5 -39q0 -38 -16.5 -55t-44.5 -17h-210v-113h219q7 -11 13 -28.5t6 -38.5q0 -38 -16.5 -54.5t-44.5 -16.5h-175v-214q-11 -3 -34 -6t-47 -3q-53 0 -73.5 18t-20.5 65v438v0z" />
    <glyph glyph-name="G" unicode="G" horiz-adv-x="664" 
d="M614 97q0 -31 -11 -46t-35 -29q-14 -8 -35 -15.5t-46 -13t-52.5 -8.5t-54.5 -3q-72 0 -135 18.5t-109.5 57.5t-73.5 99.5t-27 144.5q0 79 27 139t74 101t110 62t136 21q95 0 150.5 -30t55.5 -79q0 -26 -13 -45t-30 -30q-25 15 -63 29t-87 14q-40 0 -73 -13t-57 -36.5
t-37 -57t-13 -74.5q0 -45 12.5 -79t35 -56.5t53 -34t67.5 -11.5q22 0 38.5 4t25.5 9v96h-107q-6 11 -11.5 29t-5.5 38q0 36 16.5 52t42.5 16h169q30 0 46.5 -16.5t16.5 -46.5v-206z" />
    <glyph glyph-name="H" unicode="H" horiz-adv-x="672" 
d="M240 1q-11 -3 -34 -6t-47 -3q-53 0 -73.5 18t-20.5 65v533q12 2 35 5.5t46 3.5q50 0 72 -17t22 -66v-162h192v236q12 2 35 5.5t46 3.5q50 0 72 -18t22 -67v-531q-11 -3 -34 -6t-47 -3q-53 0 -73.5 18t-20.5 65v159h-192v-233v0z" />
    <glyph glyph-name="I" unicode="I" horiz-adv-x="305" 
d="M159 -8q-53 0 -73.5 18t-20.5 65v533q12 2 35 5.5t46 3.5q50 0 72 -17t22 -66v-533q-11 -3 -34 -6t-47 -3z" />
    <glyph glyph-name="J" unicode="J" horiz-adv-x="412" 
d="M350 180q0 -89 -51 -142t-150 -53q-27 0 -50 4.5t-40.5 15t-27.5 27.5t-10 42q0 20 5.5 35t13.5 24q19 -4 32.5 -5.5t29.5 -1.5q39 0 56 19.5t17 57.5v405q12 2 35 5.5t46 3.5q50 0 72 -17t22 -66v-354v0z" />
    <glyph glyph-name="K" unicode="K" horiz-adv-x="615" 
d="M240 227v-226q-11 -3 -34 -6t-47 -3q-53 0 -73.5 18t-20.5 65v533q12 2 35 5.5t46 3.5q50 0 72 -17t22 -66v-162l208 240q68 0 97.5 -25.5t29.5 -60.5q0 -26 -13 -49t-42 -52l-125 -125q65 -72 118 -128t85 -91q0 -22 -8 -39t-21.5 -29t-30.5 -18t-36 -6q-41 0 -67 20.5
t-50 48.5z" />
    <glyph glyph-name="L" unicode="L" horiz-adv-x="513" 
d="M158 -3q-43 0 -68 25t-25 68v518q12 2 35 5.5t46 3.5q50 0 72 -17t22 -66v-396h229q7 -11 13 -29t6 -39q0 -37 -16 -55t-44 -18h-270v0z" />
    <glyph glyph-name="M" unicode="M" horiz-adv-x="797" 
d="M484 149q-13 -11 -33.5 -17.5t-47.5 -6.5q-36 0 -59.5 9t-30.5 31q-28 88 -46 142.5t-28 95.5h-5q-3 -59 -4.5 -107.5t-2 -94.5t-2 -93t-4.5 -104q-13 -5 -34 -8.5t-42 -3.5q-44 0 -68.5 14t-24.5 51q0 31 3 90.5t7.5 131.5t9.5 148t9 140q8 13 35 28t76 15
q53 0 83 -16.5t44 -53.5q9 -24 19.5 -55t21 -64t20.5 -65.5l18 -58.5h5q24 84 48 162.5t44 131.5q15 8 38.5 13.5t52.5 5.5q49 0 80 -14.5t36 -41.5q4 -20 8.5 -61.5t9.5 -93.5t10 -110t9.5 -111.5t7.5 -98t4 -68.5q-17 -10 -35.5 -14.5t-47.5 -4.5q-38 0 -64 13t-28 51
q-6 109 -7.5 196t-4.5 146h-5q-10 -39 -29 -98t-46 -151z" />
    <glyph glyph-name="N" unicode="N" horiz-adv-x="679" 
d="M614 21q-14 -14 -40.5 -21.5t-63.5 -7.5t-70 11t-54 53l-99 202q-15 31 -27 58.5t-26 63.5l-7 -2q5 -63 5.5 -116.5t0.5 -102.5v-159q-11 -2 -33 -5t-45 -3q-51 0 -70.5 17.5t-19.5 62.5v503q14 20 43 30t62 10q37 0 70.5 -11.5t53.5 -52.5l100 -202q15 -31 27 -58.5
t26 -63.5l4 1q-4 48 -4.5 90.5t-0.5 81.5v209q11 2 33 5t45 3q51 0 70.5 -17.5t19.5 -62.5v-516v0z" />
    <glyph glyph-name="O" unicode="O" horiz-adv-x="703" 
d="M668 304q0 -78 -24 -138.5t-66.5 -101t-100.5 -61.5t-126 -21t-126 21t-100 62t-66 101t-24 138t24.5 138t67 100.5t100 61.5t124.5 21t124.5 -21t100.5 -61.5t67.5 -100.5t24.5 -138zM488 304q0 90 -37 135t-100 45q-61 0 -98.5 -44.5t-37.5 -135.5t37 -136t100 -45
q62 0 99 45t37 136z" />
    <glyph glyph-name="P" unicode="P" horiz-adv-x="581" 
d="M240 188v-187q-11 -3 -34 -6t-47 -3q-53 0 -73.5 18t-20.5 65v474q0 21 11.5 32.5t31.5 18.5q34 12 80.5 17.5t84.5 5.5q138 0 211 -59t73 -160q0 -49 -18.5 -88.5t-52 -68t-81.5 -44t-107 -15.5h-58zM287 325q42 0 67 20.5t25 58.5t-23.5 58.5t-68.5 20.5
q-16 0 -26.5 -0.5t-21.5 -2.5v-155h48z" />
    <glyph glyph-name="Q" unicode="Q" horiz-adv-x="705" 
d="M668 305q0 -99 -37 -168t-100 -107q42 -19 88 -33.5t85 -26.5q1 -6 1 -10.5v-8.5q0 -57 -29.5 -83t-77.5 -26q-46 0 -95 25.5t-100 73.5l-46 43h-6q-68 0 -126 21t-100 61.5t-66 100.5t-24 138t24.5 137.5t67 100t100 61.5t124.5 21t124.5 -21t100.5 -61.5t67.5 -100
t24.5 -137.5zM488 305q0 90 -37 134.5t-100 44.5q-61 0 -98.5 -44t-37.5 -135t37 -135.5t100 -44.5q62 0 99 44.5t37 135.5z" />
    <glyph glyph-name="R" unicode="R" horiz-adv-x="609" 
d="M561 408q0 -57 -29.5 -101.5t-78.5 -73.5q19 -26 38.5 -50t36.5 -46t30.5 -41t22.5 -34q-10 -35 -36.5 -53.5t-59.5 -18.5q-22 0 -38 5t-28 14t-22 22t-19 28l-85 137h-53v-195q-11 -3 -34 -6t-47 -3q-53 0 -73.5 18t-20.5 65v474q0 21 11.5 32.5t31.5 18.5
q34 12 79 17.5t96 5.5q138 0 208 -58.5t70 -156.5zM288 329q42 0 69 19.5t27 57.5t-24.5 57.5t-77.5 19.5q-12 0 -22.5 -1t-21.5 -3v-150h50z" />
    <glyph glyph-name="S" unicode="S" horiz-adv-x="551" 
d="M251 124q49 0 69 16t20 36t-16 31.5t-45 21.5l-42 14q-44 15 -80 30.5t-62 37.5t-40.5 52.5t-14.5 74.5q0 85 65.5 136t183.5 51q43 0 80 -6t63.5 -18.5t41.5 -32t15 -45.5t-12 -44.5t-29 -31.5q-22 14 -59 24.5t-81 10.5q-45 0 -66 -12.5t-21 -31.5q0 -15 13 -24.5
t39 -17.5l53 -17q94 -30 144.5 -77.5t50.5 -127.5q0 -42 -17 -77.5t-50.5 -61t-83 -39.5t-113.5 -14q-46 0 -85.5 7.5t-69 22t-46 36t-16.5 49.5q0 29 17 49.5t37 31.5q28 -22 68.5 -38t88.5 -16z" />
    <glyph glyph-name="T" unicode="T" horiz-adv-x="556" 
d="M518 606q7 -11 12.5 -29t5.5 -39q0 -38 -16.5 -55t-44.5 -17h-113v-465q-11 -3 -34 -6t-47 -3q-53 0 -73.5 18t-20.5 65v391h-151q-7 11 -12.5 29t-5.5 39q0 38 16.5 55t44.5 17h439v0z" />
    <glyph glyph-name="U" unicode="U" horiz-adv-x="664" 
d="M332 -18q-63 0 -113 17t-85 48.5t-53.5 76t-18.5 98.5v386q12 2 35 5.5t46 3.5q50 0 72 -17t22 -66v-309q0 -48 26.5 -75t68.5 -27t68.5 27t26.5 75v383q12 2 35 5.5t46 3.5q50 0 72 -17t22 -66v-312q0 -54 -18.5 -98.5t-53.5 -76t-85 -48.5t-113 -17z" />
    <glyph glyph-name="V" unicode="V" horiz-adv-x="634" 
d="M428 20q-14 -12 -43.5 -21t-64.5 -9q-42 0 -72 12.5t-41 34.5q-11 23 -27 59.5t-33.5 81.5t-36 95.5t-35.5 102.5t-32 102t-26 94q14 14 40.5 25.5t56.5 11.5q37 0 60.5 -15.5t34.5 -57.5q27 -98 54.5 -187.5t57.5 -186.5h6q27 94 55.5 205t54.5 221q18 9 38.5 15t46.5 6
q37 0 63 -16.5t26 -54.5q0 -22 -10.5 -64t-27 -94.5t-37 -109.5t-41 -107.5t-38.5 -89t-29 -53.5z" />
    <glyph glyph-name="W" unicode="W" horiz-adv-x="863" 
d="M345 458q11 5 34.5 11.5t47.5 6.5q42 0 70 -12.5t34 -36.5q11 -41 20.5 -76.5t18.5 -68t17.5 -64.5t16.5 -67h5q9 61 16 116.5t13 109t12 106t12 106.5q37 21 79 21q37 0 64 -16t27 -54q0 -22 -4.5 -62.5t-12 -90.5t-17.5 -105t-21 -105t-22.5 -90.5t-21.5 -62.5
q-15 -14 -49 -23t-70 -9q-47 0 -79.5 12.5t-39.5 35.5q-13 40 -28 95t-32 121q-14 -65 -29 -127t-27 -105q-15 -14 -45 -23t-66 -9q-45 0 -81.5 12.5t-47.5 35.5q-9 18 -19.5 53.5t-21.5 81t-22.5 98.5t-21 106t-17.5 103.5t-12 92.5q14 13 39 24t54 11q38 0 62.5 -16.5
t30.5 -55.5q16 -102 26.5 -170t17 -111.5t9.5 -67.5t6 -38h5q9 40 17 74t16.5 68.5t17.5 74t19 90.5z" />
    <glyph glyph-name="X" unicode="X" horiz-adv-x="601" 
d="M296 186l-127 -192q-8 -1 -15 -1.5t-14 -0.5q-57 0 -84 23t-27 57q0 29 12.5 50.5t35.5 50.5l105 134l-159 225q5 14 14 28t22.5 25.5t31.5 19t40 7.5q29 0 51 -14.5t45 -49.5l78 -120l116 174q8 3 22 5.5t29 2.5q45 0 70.5 -22t25.5 -54q0 -28 -14.5 -50t-39.5 -53
q-26 -32 -50 -63t-50 -62l166 -234q-8 -37 -34.5 -58.5t-71.5 -21.5q-29 0 -49.5 14.5t-43.5 49.5z" />
    <glyph glyph-name="Y" unicode="Y" horiz-adv-x="574" 
d="M562 535q0 -12 -6.5 -31.5t-26 -57t-54.5 -97.5t-92 -152v-196q-11 -3 -33.5 -6t-45.5 -3q-52 0 -72 18t-20 63v127q-26 37 -56 84.5t-59 97t-53.5 96.5t-38.5 83q13 18 35.5 33t55.5 15q39 0 63.5 -16t46.5 -60l88 -177h6q14 31 25.5 58t22.5 54.5t22.5 56.5t25.5 65
q18 9 40 14t42 5q35 0 59.5 -18.5t24.5 -55.5z" />
    <glyph glyph-name="Z" unicode="Z" horiz-adv-x="560" 
d="M73 0q-17 14 -28 38t-11 55q0 25 13 51t31 48l230 274h-246q-8 12 -13.5 29.5t-5.5 39.5q0 38 17 56t46 18h373q44 -36 44 -96q0 -25 -11.5 -49.5t-29.5 -46.5l-229 -274h258q7 -12 13 -30t6 -40q0 -38 -16.5 -55.5t-45.5 -17.5h-395v0z" />
    <glyph glyph-name="bracketleft" unicode="[" horiz-adv-x="303" 
d="M281 658q7 -10 12 -26.5t5 -34.5q0 -35 -15.5 -50t-40.5 -15h-38v-537h77q7 -10 12 -26.5t5 -34.5q0 -35 -15.5 -50t-40.5 -15h-120q-40 0 -58 23t-18 53v637q0 30 18 53t58 23h159z" />
    <glyph glyph-name="backslash" unicode="\" horiz-adv-x="360" 
d="M346 -20q-14 -15 -39 -26t-48 -11q-27 0 -47 11.5t-28 42.5l-174 636q14 15 39 26t48 11q27 0 47 -11.5t28 -42.5z" />
    <glyph glyph-name="bracketright" unicode="]" horiz-adv-x="317" 
d="M22 -131q-7 10 -12 26.5t-5 34.5q0 35 15.5 50t40.5 15h38v537h-77q-7 10 -12 26.5t-5 34.5q0 35 15.5 50t40.5 15h120q40 0 58 -23t18 -53v-637q0 -30 -18 -53t-58 -23h-159z" />
    <glyph glyph-name="asciicircum" unicode="^" horiz-adv-x="488" 
d="M153 642q12 10 36 17t54 7q34 0 58 -10t35 -28q12 -16 28.5 -50.5t33.5 -76t32 -84t23 -74.5q-12 -12 -33 -22.5t-45 -10.5q-31 0 -48.5 13t-30.5 48l-56 157h-4q-17 -46 -32.5 -99t-26.5 -102q-15 -9 -34.5 -13t-36.5 -4q-30 0 -50.5 13.5t-20.5 45.5q0 18 12 53.5
t30 76t38.5 79t37.5 64.5z" />
    <glyph glyph-name="underscore" unicode="_" horiz-adv-x="509" 
d="M17 -188q-7 11 -12 27.5t-5 36.5q0 37 17 53.5t44 16.5h431q6 -11 11.5 -29t5.5 -38q0 -37 -17 -52t-44 -15h-431z" />
    <glyph glyph-name="grave" unicode="`" horiz-adv-x="302" 
d="M18 646q-1 4 -1.5 11.5t-0.5 11.5q0 37 21 57.5t52 20.5q20 0 38.5 -8t35.5 -29l89 -111q-5 -35 -26 -52t-45 -17q-21 0 -35.5 6t-29.5 20z" />
    <glyph glyph-name="a" unicode="a" horiz-adv-x="544" 
d="M260 108q17 0 37.5 3.5t30.5 9.5v80l-72 -6q-28 -2 -46 -12t-18 -30t15.5 -32.5t52.5 -12.5zM252 501q54 0 98.5 -11t76 -33.5t48.5 -57t17 -81.5v-224q0 -26 -14.5 -42.5t-34.5 -28.5q-65 -39 -183 -39q-53 0 -95.5 10t-73 30t-47 51t-16.5 72q0 69 41 106t127 46
l131 14v7q0 29 -25.5 41.5t-73.5 12.5q-37 0 -73.5 -8t-65.5 -20q-13 9 -22 27.5t-9 38.5q0 26 12.5 41.5t38.5 26.5q29 11 68.5 16t74.5 5z" />
    <glyph glyph-name="b" unicode="b" horiz-adv-x="590" 
d="M322 501q49 0 92.5 -16.5t75.5 -48.5t50.5 -80t18.5 -111t-19.5 -111.5t-54.5 -81.5t-85.5 -50.5t-111.5 -17.5q-66 0 -112 15.5t-78 38.5q-44 31 -44 80v534q11 3 31.5 6t44.5 3q50 0 72 -16.5t22 -63.5v-99q20 8 44.5 13.5t53.5 5.5zM290 368q-20 0 -36.5 -5t-30.5 -13
v-217q11 -6 26.5 -10.5t36.5 -4.5q45 0 72 32t27 95q0 64 -25.5 93.5t-69.5 29.5z" />
    <glyph glyph-name="c" unicode="c" horiz-adv-x="489" 
d="M326 367q-25 0 -47.5 -8t-39 -24t-26.5 -39.5t-10 -54.5q0 -62 35 -92t87 -30q30 0 53 7.5t40 15.5q19 -14 28.5 -30t9.5 -39q0 -40 -39.5 -64t-112.5 -24q-63 0 -113.5 16.5t-86 49t-54.5 80t-19 110.5q0 66 21.5 115t58.5 81t85.5 48t102.5 16q72 0 111 -26t39 -67
q0 -19 -9 -35.5t-21 -28.5q-17 8 -41 15.5t-52 7.5z" />
    <glyph glyph-name="d" unicode="d" horiz-adv-x="586" 
d="M288 501q43 0 74 -11v162q11 3 31.5 6t44.5 3q50 0 72 -16.5t22 -63.5v-474q0 -47 -44 -75q-29 -19 -74.5 -33.5t-105.5 -14.5q-131 0 -204 64.5t-73 192.5q0 66 20 115t54.5 81t81.5 48t101 16zM363 357q-11 5 -24 8t-27 3q-52 0 -80.5 -31.5t-28.5 -95.5q0 -63 27 -93
t77 -30q18 0 33 4t23 9v226z" />
    <glyph glyph-name="e" unicode="e" horiz-adv-x="549" 
d="M198 176q14 -36 47 -50.5t74 -14.5q42 0 80 10.5t61 24.5q16 -10 27 -28t11 -38q0 -25 -14 -43t-39.5 -30t-60.5 -17.5t-77 -5.5q-59 0 -109.5 16.5t-87.5 49.5t-58 83t-21 117q0 66 21.5 113.5t57 78t80.5 45t92 14.5q53 0 96.5 -16t75 -44t48.5 -67t17 -85
q0 -34 -19 -52t-53 -23zM283 377q-38 0 -63.5 -23t-30.5 -65l170 28q-1 10 -6 20.5t-14 19.5t-23 14.5t-33 5.5z" />
    <glyph glyph-name="f" unicode="f" horiz-adv-x="430" 
d="M215 448h164q6 -11 11.5 -27.5t5.5 -36.5q0 -35 -15.5 -50.5t-41.5 -15.5h-115v-317q-11 -3 -31.5 -6t-44.5 -3q-50 0 -72 16.5t-22 63.5v414q0 51 17.5 87.5t47.5 60t70.5 34.5t86.5 11q74 0 109 -19.5t35 -66.5q0 -20 -8.5 -36t-18.5 -24q-19 5 -39.5 8.5t-47.5 3.5
q-43 0 -67 -14.5t-24 -50.5v-32z" />
    <glyph glyph-name="g" unicode="g" horiz-adv-x="565" 
d="M352 37q-20 -8 -44.5 -12.5t-54.5 -4.5q-45 0 -85.5 12.5t-71 41t-48.5 73.5t-18 110q0 60 18.5 105.5t52 76.5t81.5 46.5t107 15.5q28 0 55 -4t50.5 -11t42.5 -15t32 -17q20 -14 31.5 -31.5t11.5 -44.5v-371q0 -53 -19.5 -91.5t-54 -64t-81 -37.5t-99.5 -12
q-54 0 -95 8.5t-65 24.5q-36 24 -36 68q0 23 9.5 42t21.5 28q29 -16 65.5 -27t76.5 -11q53 0 85 18t32 58v26zM285 147q20 0 35.5 4.5t28.5 12.5v192q-11 5 -22.5 8.5t-30.5 3.5q-43 0 -70 -26.5t-27 -85.5q0 -63 24.5 -86t61.5 -23z" />
    <glyph glyph-name="h" unicode="h" horiz-adv-x="585" 
d="M532 1q-11 -3 -31.5 -6t-44.5 -3q-50 0 -72 16.5t-22 63.5v222q0 41 -20.5 57.5t-50.5 16.5q-20 0 -36.5 -5t-30.5 -13v-349q-11 -3 -31.5 -6t-44.5 -3q-50 0 -72 16.5t-22 63.5v580q11 3 31.5 6t44.5 3q50 0 72 -16.5t22 -63.5v-99q20 8 45 13.5t54 5.5q99 0 154 -49.5
t55 -147.5v-303v0z" />
    <glyph glyph-name="i" unicode="i" horiz-adv-x="282" 
d="M56 479q11 3 31.5 6t44.5 3q50 0 72 -16.5t22 -63.5v-407q-11 -3 -31.5 -6t-44.5 -3q-50 0 -72 16.5t-22 63.5v407zM48 621q0 38 25.5 64t67.5 26t67.5 -26t25.5 -64t-25.5 -64t-67.5 -26t-67.5 26t-25.5 64z" />
    <glyph glyph-name="j" unicode="j" horiz-adv-x="287" 
d="M231 -9q0 -49 -11.5 -84t-31 -57.5t-45.5 -33.5t-55 -11q-44 0 -69 26.5t-26 66.5q36 18 52 42.5t16 66.5v472q11 3 31.5 6t44.5 3q50 0 72 -16.5t22 -63.5v-417zM48 621q0 38 25.5 64t67.5 26t67.5 -26t25.5 -64t-25.5 -64t-67.5 -26t-67.5 26t-25.5 64z" />
    <glyph glyph-name="k" unicode="k" horiz-adv-x="555" 
d="M224 1q-11 -3 -31.5 -6t-44.5 -3q-50 0 -72 16.5t-22 63.5v580q11 3 31.5 6t44.5 3q50 0 72 -16.5t22 -63.5v-264l172 176q52 0 83.5 -23t31.5 -58q0 -15 -5 -27.5t-15.5 -25.5t-27 -27.5t-38.5 -33.5l-59 -51l161 -159q-5 -47 -27.5 -72t-65.5 -25q-32 0 -57 15.5
t-54 52.5l-99 123v-181v0z" />
    <glyph glyph-name="l" unicode="l" horiz-adv-x="284" 
d="M151 -8q-50 0 -72 16.5t-22 63.5v580q11 3 31.5 6t44.5 3q50 0 72 -16.5t22 -63.5v-580q-11 -3 -31.5 -6t-44.5 -3z" />
    <glyph glyph-name="m" unicode="m" horiz-adv-x="847" 
d="M794 1q-11 -3 -31.5 -6t-44.5 -3q-50 0 -72 16.5t-22 63.5v239q0 30 -16 43.5t-42 13.5q-17 0 -32.5 -6t-26.5 -14q0 -4 0.5 -7.5t0.5 -6.5v-333q-11 -3 -31.5 -6t-44.5 -3q-50 0 -72 16.5t-22 63.5v239q0 30 -17.5 43.5t-42.5 13.5q-19 0 -33 -5.5t-23 -10.5v-351
q-11 -3 -31.5 -6t-44.5 -3q-50 0 -72 16.5t-22 63.5v301q0 27 11.5 44t31.5 31q34 24 84 38.5t106 14.5q41 0 78.5 -11t70.5 -34q30 19 67.5 32t90.5 13q38 0 74.5 -10t65 -31.5t45.5 -57t17 -86.5v-315z" />
    <glyph glyph-name="n" unicode="n" horiz-adv-x="583" 
d="M530 1q-11 -3 -31.5 -6t-44.5 -3q-50 0 -72 16.5t-22 63.5v236q0 31 -18.5 45.5t-48.5 14.5q-20 0 -37.5 -5t-33.5 -13v-349q-11 -3 -31.5 -6t-44.5 -3q-50 0 -72 16.5t-22 63.5v301q0 27 11.5 44t31.5 31q34 24 85.5 38.5t114.5 14.5q113 0 174 -49.5t61 -138.5v-312z
" />
    <glyph glyph-name="o" unicode="o" horiz-adv-x="586" 
d="M555 243q0 -60 -18.5 -108t-53 -81.5t-82.5 -51.5t-108 -18t-108 17.5t-82.5 51t-53 81.5t-18.5 109q0 59 19 107t53.5 81.5t82.5 51.5t107 18t107 -18.5t82.5 -52t53.5 -81.5t19 -106zM293 368q-42 0 -65 -32.5t-23 -92.5q0 -63 23 -94.5t65 -31.5t65 32t23 94
q0 60 -23 92.5t-65 32.5z" />
    <glyph glyph-name="p" unicode="p" horiz-adv-x="585" 
d="M303 -15q-24 0 -44 3.5t-37 9.5v-176q-11 -3 -31.5 -6t-44.5 -3q-50 0 -72 16.5t-22 63.5v487q0 27 11.5 45t31.5 31q31 20 79.5 32.5t108.5 12.5t110 -15t86 -46t55.5 -79t19.5 -115q0 -64 -19 -112.5t-53 -81.5t-79.5 -50t-99.5 -17zM277 119q50 0 76.5 32t26.5 95
q0 64 -24.5 93t-72.5 29q-19 0 -35 -4.5t-27 -10.5v-220q12 -6 26 -10t30 -4z" />
    <glyph glyph-name="q" unicode="q" horiz-adv-x="587" 
d="M533 -181q-11 -3 -31.5 -6t-44.5 -3q-50 0 -72 16.5t-22 63.5v107q-17 -6 -37.5 -9.5t-43.5 -3.5q-55 0 -101 16.5t-79.5 48.5t-52 80.5t-18.5 111.5q0 64 19.5 112.5t56 81.5t87.5 49.5t114 16.5q28 0 55 -4t51 -10t43.5 -14t32.5 -17q20 -14 31.5 -31.5t11.5 -44.5
v-561zM307 118q33 0 57 13v225q-8 5 -21.5 8.5t-30.5 3.5q-52 0 -80.5 -31.5t-28.5 -95.5q0 -63 27 -93t77 -30z" />
    <glyph glyph-name="r" unicode="r" horiz-adv-x="411" 
d="M222 1q-11 -3 -31.5 -6t-44.5 -3q-50 0 -72 16.5t-22 63.5v297q0 29 15 50.5t41 37.5q35 21 81.5 32t97.5 11q109 0 109 -77q0 -18 -5 -33.5t-12 -26.5q-19 4 -55 4q-26 0 -53.5 -6t-48.5 -18v-342z" />
    <glyph glyph-name="s" unicode="s" horiz-adv-x="492" 
d="M462 145q0 -76 -57 -119t-168 -43q-42 0 -78 6t-61.5 18.5t-40 31.5t-14.5 45q0 24 10 40.5t24 27.5q29 -16 66.5 -28.5t86.5 -12.5q31 0 47.5 9t16.5 24q0 14 -12 22t-40 13l-30 6q-87 17 -129.5 53.5t-42.5 104.5q0 37 16 67t45 50t69.5 31t89.5 11q37 0 69.5 -5.5
t56.5 -16.5t38 -28.5t14 -41.5q0 -23 -8.5 -39.5t-21.5 -27.5q-8 5 -24 10.5t-35 10t-38.5 7.5t-35.5 3q-33 0 -51 -7.5t-18 -23.5q0 -11 10 -18t38 -13l31 -7q96 -22 136.5 -60.5t40.5 -99.5z" />
    <glyph glyph-name="t" unicode="t" horiz-adv-x="397" 
d="M237 -15q-88 0 -135.5 40t-47.5 130v444q11 3 31.5 6.5t43.5 3.5q49 0 71 -17t22 -63v-54h131q6 -11 11.5 -27.5t5.5 -36.5q0 -35 -15.5 -50.5t-41.5 -15.5h-91v-178q0 -26 16.5 -37t46.5 -11q15 0 31 2.5t28 6.5q9 -11 15.5 -24.5t6.5 -32.5q0 -38 -28.5 -62t-100.5 -24
z" />
    <glyph glyph-name="u" unicode="u" horiz-adv-x="582" 
d="M52 484q11 3 31.5 6t44.5 3q50 0 72 -16.5t22 -63.5v-220q0 -41 20 -58.5t58 -17.5q23 0 37.5 4t22.5 8v355q11 3 31.5 6t44.5 3q50 0 72 -16.5t22 -63.5v-309q0 -50 -42 -75q-35 -22 -83.5 -33.5t-105.5 -11.5q-54 0 -99.5 12t-78.5 37t-51 64.5t-18 95.5v291z" />
    <glyph glyph-name="v" unicode="v" horiz-adv-x="545" 
d="M438 496q35 0 59 -15t24 -52q0 -16 -7 -46.5t-19 -69t-27 -81.5t-31 -83.5t-32 -76t-28 -57.5q-14 -11 -41 -18t-61 -7q-39 0 -67.5 10t-39.5 32q-9 17 -21.5 47t-26.5 68t-29 80t-28.5 84t-24.5 81t-18 69q14 14 37.5 24.5t51.5 10.5q35 0 57.5 -14.5t33.5 -54.5
l39 -153q11 -45 21 -81.5t15 -56.5h5q19 74 40 164t38 177q17 9 38.5 14t41.5 5z" />
    <glyph glyph-name="w" unicode="w" horiz-adv-x="791" 
d="M400 273q-7 -35 -17 -72.5t-20.5 -72t-19.5 -64t-14 -47.5q-14 -12 -38 -19.5t-57 -7.5q-41 0 -71 11.5t-40 32.5q-7 16 -16 45t-18.5 65.5t-19 78.5t-18 84t-16 81.5t-12.5 72.5q14 14 37.5 24.5t51.5 10.5q35 0 57.5 -15.5t27.5 -53.5q10 -76 17 -125.5t11.5 -81t7 -48
t4.5 -26.5h4q3 16 10.5 46.5t17.5 69.5t21 84.5t22 90.5q20 11 39.5 17t48.5 6q35 0 60 -11t32 -34q12 -44 23 -85.5t20 -77t16 -63t10 -43.5h5q11 77 21.5 160t19.5 169q18 11 38 16t40 5q35 0 58 -15t23 -52q0 -16 -5 -47.5t-13 -71.5t-18.5 -84t-21 -84.5t-20 -73.5
t-16.5 -51q-14 -12 -43 -19.5t-62 -7.5q-84 0 -99 42q-6 18 -15 45.5t-19 59.5t-19 67.5t-15 68.5z" />
    <glyph glyph-name="x" unicode="x" horiz-adv-x="523" 
d="M28 64q0 24 11.5 42.5t39.5 50.5l79 92l-133 158q8 38 31.5 62t58.5 24q33 0 51 -16t40 -45l63 -84q27 36 54 71.5t54 72.5q5 1 9 1h8q47 0 74.5 -20t27.5 -52q0 -13 -3 -24t-9.5 -22.5t-18 -25t-27.5 -31.5l-67 -74l132 -173q-5 -38 -30 -60t-60 -22q-38 1 -60.5 22
t-43.5 51l-54 77l-102 -147q-5 0 -11 -0.5t-10 -0.5q-51 0 -77.5 21t-26.5 52z" />
    <glyph glyph-name="y" unicode="y" horiz-adv-x="551" 
d="M128 124q-11 25 -23.5 56t-26 71t-28 91.5t-30.5 118.5q14 14 37.5 24.5t51.5 10.5q35 0 58 -14.5t34 -54.5q20 -70 39.5 -138.5t39.5 -136.5h4q12 34 23.5 74t22.5 82.5t20.5 85t16.5 83.5q17 9 35 14t38 5q35 0 61 -15t26 -52q0 -40 -12.5 -95.5t-32.5 -115t-45 -116.5
t-50 -100q-57 -98 -104.5 -144.5t-96.5 -46.5q-40 0 -67 25t-32 65q32 27 64 61t56 69q-17 5 -36.5 23.5t-42.5 69.5z" />
    <glyph glyph-name="z" unicode="z" horiz-adv-x="481" 
d="M410 485q16 -14 25.5 -33t9.5 -43q0 -20 -9.5 -39.5t-23.5 -36.5l-168 -202h196q6 -11 11.5 -28t5.5 -37q0 -35 -15.5 -50.5t-41.5 -15.5h-331q-16 14 -25.5 33t-9.5 43q0 20 9.5 39.5t23.5 36.5l172 202h-184q-6 11 -11.5 28t-5.5 37q0 35 15.5 50.5t41.5 15.5h315v0z
" />
    <glyph glyph-name="braceleft" unicode="{" horiz-adv-x="337" 
d="M199 266q54 -26 54 -110v-111q0 -34 16.5 -48.5t38.5 -20.5q2 -8 2 -14.5v-12.5q0 -45 -24 -64.5t-63 -19.5q-55 0 -91 35t-36 106v104q0 44 -15.5 67t-49.5 32q-3 12 -5 26.5t-2 30.5t2 30.5t5 26.5q34 9 49.5 32t15.5 67v101q0 71 37.5 106t92.5 35q40 0 62 -18.5
t22 -65.5v-12.5t-2 -14.5q-22 -6 -38.5 -20.5t-16.5 -48.5v-108q0 -85 -54 -110z" />
    <glyph glyph-name="bar" unicode="|" horiz-adv-x="281" 
d="M216 -169q-10 -2 -29 -4.5t-38 -2.5q-40 0 -62 13t-22 57v782q10 2 29 4.5t38 2.5q40 0 62 -13.5t22 -57.5v-781z" />
    <glyph glyph-name="braceright" unicode="}" horiz-adv-x="337" 
d="M138 266q-54 25 -54 110v108q0 34 -16.5 48.5t-38.5 20.5q-2 8 -2 14.5v12.5q0 47 22 65.5t62 18.5q55 0 92.5 -35t37.5 -106v-101q0 -44 15.5 -67t49.5 -32q3 -12 5 -26.5t2 -30.5t-2 -30.5t-5 -26.5q-34 -9 -49.5 -32t-15.5 -67v-104q0 -71 -36 -106t-91 -35
q-39 0 -63 19.5t-24 64.5v12.5t2 14.5q22 6 38.5 20.5t16.5 48.5v111q0 84 54 110z" />
    <glyph glyph-name="asciitilde" unicode="~" horiz-adv-x="503" 
d="M325 313q24 0 37.5 13t22.5 28q21 0 39.5 -7t32.5 -19t22 -29.5t8 -38.5q0 -26 -10 -45.5t-26.5 -32t-38.5 -18.5t-46 -6t-47 5t-46 11.5t-46.5 11.5t-47.5 5q-25 0 -38.5 -14.5t-21.5 -25.5q-20 0 -38.5 7t-32.5 19t-22 29.5t-8 38.5q0 27 11 46t28.5 31.5t38.5 18.5
t42 6q25 0 49 -5.5t47 -11.5t45.5 -11.5t45.5 -5.5z" />
    <glyph glyph-name="uni00A0" unicode="&#xa0;" horiz-adv-x="200" 
 />
    <glyph glyph-name="exclamdown" unicode="&#xa1;" horiz-adv-x="298" 
d="M61 -88q0 23 1 63t4 86.5t8 93.5t12 84q4 3 12 6t17 5t18 3t16 1q29 0 48.5 -9t24.5 -35q4 -23 8 -66.5t7 -94t4.5 -101.5t1.5 -89q-20 -11 -45.5 -17.5t-50.5 -6.5q-41 0 -63.5 19t-22.5 58zM245 394q0 -42 -25.5 -68t-70.5 -26t-70.5 26t-25.5 68t25.5 68t70.5 26
t70.5 -26t25.5 -68z" />
    <glyph glyph-name="cent" unicode="&#xa2;" horiz-adv-x="492" 
d="M324 367q-25 0 -47.5 -8t-39 -24t-26.5 -39.5t-10 -54.5q0 -62 35 -92t87 -30q30 0 53 7.5t40 15.5q19 -14 28.5 -30t9.5 -39q0 -35 -30.5 -58t-87.5 -28v-73q-10 -3 -28 -5.5t-39 -2.5q-44 0 -63.5 14.5t-19.5 56.5v25q-75 26 -116 85.5t-41 153.5q0 97 44 156.5
t113 84.5v92q10 3 28 5.5t39 2.5q44 0 63.5 -14.5t19.5 -56.5v-13q54 -7 82.5 -31t28.5 -59q0 -19 -9 -35.5t-21 -28.5q-17 8 -41 15.5t-52 7.5z" />
    <glyph glyph-name="sterling" unicode="&#xa3;" horiz-adv-x="504" 
d="M116 240h-21q-26 0 -41.5 15t-15.5 53q0 19 6 35.5t11 27.5h48q-1 11 -1.5 21t-0.5 19q0 56 18.5 96.5t50 66.5t73.5 38.5t89 12.5q68 0 103.5 -23t35.5 -68q0 -20 -9 -38.5t-20 -26.5q-17 9 -36 14.5t-46 5.5q-43 0 -67.5 -19t-24.5 -65v-16.5t1 -17.5h132
q5 -11 11 -27.5t6 -35.5q0 -38 -15.5 -53t-41.5 -15h-80v-13q0 -55 -30 -95h221q6 -11 11.5 -28t5.5 -37q0 -36 -16 -51.5t-42 -15.5h-331q-26 0 -45.5 20.5t-19.5 58.5v7.5t1 7.5q40 18 60 48t20 87v11z" />
    <glyph glyph-name="currency" unicode="&#xa4;" horiz-adv-x="565" 
d="M493 291q0 -39 -11 -70.5t-30 -56.5l54 -65q-11 -26 -27.5 -38t-35.5 -12q-18 0 -32.5 14t-28.5 31l-10 12q-43 -17 -92 -17q-26 0 -49.5 4t-45.5 13l-46 -61q-28 5 -49 18t-21 36q0 14 8 29.5t22 32.5l4 6q-18 24 -28 55t-10 69t10.5 69.5t29.5 56.5l-50 61
q11 26 27.5 38t35.5 12q18 0 32.5 -14t28.5 -31l5 -8q43 18 94 18q55 0 101 -20l45 59q28 -5 49 -18t21 -36q0 -14 -8 -29.5t-22 -32.5l-6 -7q17 -24 26 -53.5t9 -64.5zM352 291q0 45 -20.5 68t-52.5 23t-52.5 -23t-20.5 -68t20.5 -68t52.5 -23t52.5 23t20.5 68z" />
    <glyph glyph-name="yen" unicode="&#xa5;" horiz-adv-x="597" 
d="M559 538q0 -9 -3 -21t-12 -32t-25.5 -50.5t-43.5 -75.5h62q5 -10 9.5 -23t4.5 -29q0 -29 -13.5 -41t-33.5 -12h-430q-5 8 -9.5 22t-4.5 29q0 29 13 41.5t33 12.5h33q-32 54 -60.5 107.5t-45.5 95.5q13 18 34 32.5t53 14.5q38 0 62 -15t45 -58l79 -160h6q14 30 24 55
t19.5 49t19.5 50.5t24 60.5q17 8 39 13t41 5q34 0 57 -18t23 -53zM390 102v-101q-11 -3 -33.5 -6t-45.5 -3q-52 0 -72 18t-20 63v29h-145q-5 8 -9.5 22t-4.5 29q0 29 13 41.5t33 12.5h431q5 -10 9.5 -23t4.5 -29q0 -29 -13.5 -41t-33.5 -12h-114z" />
    <glyph glyph-name="brokenbar" unicode="&#xa6;" horiz-adv-x="293" 
d="M216 313q-10 -2 -29 -4.5t-38 -2.5q-40 0 -62 13t-22 57v300q10 2 29 4.5t38 2.5q40 0 62 -13.5t22 -57.5v-299zM216 -169q-10 -2 -29 -4.5t-38 -2.5q-40 0 -62 13t-22 57v300q10 2 29 4.5t38 2.5q40 0 62 -13.5t22 -57.5v-299z" />
    <glyph glyph-name="section" unicode="&#xa7;" horiz-adv-x="546" 
d="M496 278q0 -28 -11.5 -53t-29.5 -42q41 -35 41 -93q0 -73 -62 -115.5t-183 -42.5q-43 0 -79.5 6t-62.5 18.5t-41 31.5t-15 45q0 24 10 40.5t24 27.5q29 -16 67.5 -28.5t89.5 -12.5q48 0 66 9t18 24q0 14 -11.5 20t-40.5 11l-59 9q-88 14 -127.5 50.5t-39.5 100.5
q0 58 42 92q-39 36 -39 97q0 36 16 64t45 47.5t69.5 30t89.5 10.5q38 0 72 -5.5t60 -16.5t41 -28.5t15 -41.5q0 -23 -8.5 -39.5t-21.5 -27.5q-8 5 -25 10.5t-37 10t-41.5 7.5t-39.5 3q-32 0 -50.5 -7.5t-18.5 -23.5q0 -11 10.5 -16.5t34.5 -9.5l56 -8q91 -13 133.5 -53
t42.5 -101zM208 289q0 -11 10 -23.5t37 -17.5l71 -15q12 18 12 35q0 14 -12.5 26t-40.5 17l-66 12q-6 -8 -8.5 -17t-2.5 -17z" />
    <glyph glyph-name="dieresis" unicode="&#xa8;" horiz-adv-x="374" 
d="M163 630q0 -35 -23.5 -58.5t-61.5 -23.5t-61 23.5t-23 58.5t23 59t61 24t61.5 -24t23.5 -59zM378 630q0 -35 -23 -58.5t-61 -23.5t-61.5 23.5t-23.5 58.5t23.5 59t61.5 24t61 -24t23 -59z" />
    <glyph glyph-name="copyright" unicode="&#xa9;" horiz-adv-x="713" 
d="M35 308q0 65 23 122t65 99t101 66t131 24t131 -24t102 -66t66.5 -99t23.5 -122q0 -66 -23.5 -122.5t-66.5 -98t-102 -65.5t-131 -24t-131 24t-101 65.5t-65 98t-23 122.5zM355 529q-50 0 -89 -16.5t-67 -46t-42.5 -70t-14.5 -88.5t14.5 -88t42.5 -69t67 -45t89 -16
t89.5 16t67 45t42 69t14.5 88t-14.5 88.5t-42 70t-67 46t-89.5 16.5zM394 373q-27 0 -46 -16t-19 -45q0 -31 18 -48t46 -17q19 0 32.5 5t23.5 10q23 -20 23 -50q0 -23 -28 -40t-73 -17q-33 0 -61.5 10.5t-49.5 30.5t-33 49.5t-12 67.5q0 39 14.5 67.5t37.5 47.5t51.5 28.5
t56.5 9.5q42 0 67 -16.5t25 -41.5q0 -29 -20 -49q-9 5 -22.5 9.5t-30.5 4.5z" />
    <glyph glyph-name="ordfeminine" unicode="&#xaa;" horiz-adv-x="355" 
d="M164 367q12 0 25 2t20 6v53l-47 -4q-18 -2 -30 -8t-12 -20q0 -13 10.5 -21t33.5 -8zM159 623q72 0 114 -29t42 -90v-146q0 -17 -9.5 -27.5t-22.5 -18.5q-40 -25 -119 -25q-69 0 -109.5 26t-40.5 79q0 46 26 70t83 30l85 9v4q0 36 -64 36q-24 0 -48 -5.5t-43 -13.5
q-8 6 -13.5 18t-5.5 25q0 31 32 44q19 8 44.5 11t48.5 3z" />
    <glyph glyph-name="guillemotleft" unicode="&#xab;" horiz-adv-x="574" 
d="M293 94q0 -29 -19 -52t-59 -23q-22 0 -39.5 11.5t-34.5 29.5l-97 98q-6 10 -10.5 26.5t-4.5 32.5q0 32 8 51.5t20 30.5l147 142q38 -11 57.5 -31.5t19.5 -44.5q0 -11 -1.5 -20.5t-6.5 -19t-14 -20t-24 -23.5l-66 -61zM542 94q0 -29 -19 -52t-59 -23q-22 0 -39.5 11.5
t-34.5 29.5l-97 98q-6 10 -10.5 26.5t-4.5 32.5q0 32 8 51.5t20 30.5l147 142q38 -11 57.5 -31.5t19.5 -44.5q0 -11 -1.5 -20.5t-6.5 -19t-14 -20t-24 -23.5l-66 -61z" />
    <glyph glyph-name="logicalnot" unicode="&#xac;" horiz-adv-x="528" 
d="M423 448q35 0 55 -20t20 -55v-191q-10 -3 -31.5 -5.5t-41.5 -2.5q-21 0 -37 3t-26.5 11t-16 23t-5.5 38v69h-293q-6 11 -11.5 27.5t-5.5 36.5q0 35 15.5 50.5t41.5 15.5h336z" />
    <glyph glyph-name="uni00AD" unicode="&#xad;" horiz-adv-x="354" 
d="M49 186q-7 11 -13 29t-6 38q0 37 17 53.5t44 16.5h214q6 -11 12.5 -29t6.5 -38q0 -37 -17 -53.5t-44 -16.5h-214z" />
    <glyph glyph-name="registered" unicode="&#xae;" horiz-adv-x="619" 
d="M37 372q0 55 19.5 103t55.5 83.5t86 56t111 20.5q60 0 110 -20.5t86.5 -56t56.5 -83.5t20 -103t-20 -103t-56.5 -83t-86.5 -55.5t-110 -20.5q-61 0 -111 20.5t-86 55.5t-55.5 83t-19.5 103zM127 372q0 -41 12.5 -74.5t36.5 -58t57.5 -38t75.5 -13.5t75.5 13.5t56.5 38
t35.5 58t12.5 74.5q0 40 -12.5 74.5t-35.5 59.5t-56.5 39t-75.5 14t-75.5 -14t-57.5 -39t-36.5 -59.5t-12.5 -74.5zM290 336v-76q-6 -1 -15.5 -2t-22.5 -1q-17 0 -26.5 6t-9.5 26v187q0 13 16 19q14 5 32 7t38 2q55 0 82.5 -22.5t27.5 -62.5q0 -26 -12.5 -42.5t-30.5 -25.5
l50 -68q-4 -14 -15.5 -21t-24.5 -7q-18 0 -28 8.5t-19 22.5l-32 50h-10zM305 390q15 0 24 6.5t9 22.5q0 28 -34 28q-5 0 -8.5 -0.5t-5.5 -0.5v-56h15z" />
    <glyph glyph-name="macron" unicode="&#xaf;" horiz-adv-x="364" 
d="M30 564q-5 11 -10.5 27.5t-5.5 34.5q0 37 15 51.5t40 14.5h265q8 -11 12 -27.5t4 -34.5q0 -37 -14.5 -51.5t-39.5 -14.5h-266z" />
    <glyph glyph-name="degree" unicode="&#xb0;" horiz-adv-x="361" 
d="M345 475q0 -36 -12.5 -63.5t-34.5 -46.5t-52 -29t-65 -10q-36 0 -66 10t-52 29t-34.5 46.5t-12.5 63.5q0 35 12.5 62.5t34.5 46.5t52 29t66 10q35 0 65 -10t52 -29t34.5 -46.5t12.5 -62.5zM181 527q-19 0 -33 -12t-14 -40q0 -29 14 -41.5t33 -12.5t32.5 12.5t13.5 41.5
q0 28 -13.5 40t-32.5 12z" />
    <glyph glyph-name="plusminus" unicode="&#xb1;" horiz-adv-x="525" 
d="M341 448h127q6 -11 11.5 -29t5.5 -38q0 -37 -17 -52t-44 -15h-83v-123q-10 -2 -31 -5t-40 -3q-41 0 -62 13.5t-21 57.5v60h-130q-7 11 -12 27.5t-5 36.5q0 37 17 53.5t44 16.5h86v119q10 2 30.5 5.5t39.5 3.5q40 0 62 -14t22 -58v-56zM57 0q-7 11 -12 27.5t-5 36.5
q0 37 17 53.5t44 16.5h367q6 -11 11.5 -29t5.5 -38q0 -37 -17 -52t-44 -15h-367z" />
    <glyph glyph-name="twosuperior" unicode="&#xb2;" horiz-adv-x="280" 
d="M125 701q60 0 94 -28.5t34 -77.5q0 -31 -19.5 -59t-50.5 -53l-39 -31h104q3 -7 6.5 -17.5t3.5 -21.5q0 -22 -9.5 -31t-25.5 -9h-177q-11 8 -17.5 19.5t-6.5 27.5q0 37 14 48l73 64q15 13 24 22t13.5 16t6 12t1.5 10q0 13 -10 21.5t-28 8.5q-22 0 -37 -6.5t-26 -13.5
q-8 7 -14 18.5t-6 26.5q0 27 24 40.5t68 13.5z" />
    <glyph glyph-name="threesuperior" unicode="&#xb3;" horiz-adv-x="286" 
d="M122 574q33 0 33 23q0 25 -43 25q-20 0 -36 -5t-29 -12q-24 16 -24 44q0 27 28.5 40t76.5 13q60 0 93 -26t33 -69q0 -21 -12.5 -39t-29.5 -27q20 -9 34.5 -28t14.5 -50q0 -45 -37 -71.5t-96 -26.5q-56 0 -85 16.5t-29 41.5q0 14 7.5 26.5t19.5 17.5q16 -9 33.5 -15.5
t41.5 -6.5q23 0 34.5 7.5t11.5 19.5q0 27 -38 27h-47q-4 6 -7 15.5t-3 21.5q0 25 10 38h45z" />
    <glyph glyph-name="acute" unicode="&#xb4;" horiz-adv-x="298" 
d="M177 752q52 0 78 -22t26 -50q0 -23 -10 -38.5t-34 -35.5l-95 -78q-45 0 -67 21t-22 45q0 12 4.5 23t18.5 26z" />
    <glyph glyph-name="mu" unicode="&#xb5;" horiz-adv-x="582" 
d="M530 104q0 -47 -42 -75q-29 -19 -67.5 -32t-95.5 -13q-40 0 -68 8.5t-48 23.5q5 -38 9 -72t4 -70v-34q-14 -7 -33 -11.5t-43 -4.5q-50 0 -72 16.5t-22 63.5v580q11 3 31.5 6t44.5 3q50 0 72 -16.5t22 -63.5v-220q0 -41 20 -58.5t58 -17.5q23 0 37.5 4t22.5 8v355
q11 3 31.5 6t44.5 3q50 0 72 -16.5t22 -63.5v-309v0z" />
    <glyph glyph-name="paragraph" unicode="&#xb6;" horiz-adv-x="550" 
d="M401 613q22 0 39.5 -3t29.5 -12t18.5 -24.5t6.5 -40.5v-602q-11 -2 -32.5 -5.5t-43.5 -3.5t-39.5 3t-29.5 12t-18.5 24.5t-6.5 40.5v468h-69v-243q0 -13 -15 -21.5t-48 -8.5q-32 0 -64 12t-57 36.5t-40.5 62t-15.5 89.5q0 54 19 94.5t51.5 67.5t75.5 40.5t91 13.5h148z
" />
    <glyph glyph-name="periodcentered" unicode="&#xb7;" horiz-adv-x="238" 
d="M22 271q0 42 26 70t71 28t71 -28t26 -70t-26 -70t-71 -28t-71 28t-26 70z" />
    <glyph glyph-name="cedilla" unicode="&#xb8;" horiz-adv-x="195" 
d="M126 38q38 -21 53 -53t15 -69q0 -51 -32 -84.5t-89 -33.5q-42 0 -67.5 20.5t-25.5 58.5q0 17 4 30h10q31 0 44.5 15t13.5 37q0 10 -4 23t-13 23z" />
    <glyph glyph-name="onesuperior" unicode="&#xb9;" horiz-adv-x="222" 
d="M82 589l-41 -12q-12 6 -23 19.5t-11 33.5q0 18 9 29t23 16l72 26h16q24 0 38.5 -15t14.5 -39v-272q-6 -2 -18.5 -4t-26.5 -2q-26 0 -39.5 9t-13.5 37v174z" />
    <glyph glyph-name="ordmasculine" unicode="&#xba;" horiz-adv-x="396" 
d="M365 456q0 -81 -47 -124.5t-123 -43.5q-77 0 -123.5 45t-46.5 123q0 77 46.5 122t123.5 45q38 0 69 -12t53.5 -33.5t35 -52.5t12.5 -69zM195 537q-27 0 -42 -21t-15 -60q0 -40 15.5 -61t41.5 -21q27 0 42 21.5t15 60.5q0 38 -15.5 59.5t-41.5 21.5z" />
    <glyph glyph-name="guillemotright" unicode="&#xbb;" horiz-adv-x="574" 
d="M281 366q0 29 19 52t59 23q22 0 39.5 -11.5t34.5 -29.5l97 -98q6 -10 10.5 -26.5t4.5 -32.5q0 -32 -8 -51.5t-20 -30.5l-147 -142q-38 11 -57.5 31.5t-19.5 44.5q0 22 8.5 39t37.5 44l66 61zM32 366q0 29 19 52t59 23q22 0 39.5 -11.5t34.5 -29.5l97 -98
q6 -10 10.5 -26.5t4.5 -32.5q0 -32 -8 -51.5t-20 -30.5l-147 -142q-38 11 -57.5 31.5t-19.5 44.5q0 22 8.5 39t37.5 44l66 61z" />
    <glyph glyph-name="questiondown" unicode="&#xbf;" horiz-adv-x="498" 
d="M351 261q17 -11 32 -33.5t15 -54.5q0 -31 -16.5 -46.5t-48.5 -23.5l-78 -19q-26 -8 -38 -19.5t-12 -34.5q0 -19 18.5 -35.5t63.5 -16.5q41 0 77 10t58 25q17 -13 29 -31.5t12 -44.5t-15 -45.5t-41.5 -32t-63.5 -18.5t-80 -6q-59 0 -103.5 14.5t-74.5 40.5t-45.5 62
t-15.5 78q0 87 56.5 137.5t169.5 73.5zM384 394q0 -42 -25.5 -68t-70.5 -26t-70.5 26t-25.5 68t25.5 68t70.5 26t70.5 -26t25.5 -68z" />
    <glyph glyph-name="Agrave" unicode="&#xc0;" horiz-adv-x="627" 
d="M403 126h-181q-10 -36 -17.5 -67t-14.5 -58q-14 -5 -29.5 -8.5t-37.5 -3.5q-51 0 -75.5 17.5t-24.5 48.5q0 14 4 28t9 33q7 27 19.5 67.5t27.5 87t32 95t32 92t27.5 78t19.5 52.5q17 10 51.5 19t69.5 9q50 0 88.5 -14.5t49.5 -46.5q18 -51 39 -120t42 -142.5t41 -145
t35 -126.5q-12 -14 -36 -22.5t-57 -8.5q-49 0 -68 16t-28 51zM314 459q-14 -41 -31 -91t-33 -107h124q-14 57 -28.5 107.5t-25.5 90.5h-6zM153 739q-1 4 -1.5 11.5t-0.5 11.5q0 37 21 57.5t52 20.5q20 0 37 -9t37 -28l86 -85q-5 -35 -26 -52t-45 -17q-21 0 -36 7.5t-32 18.5
z" />
    <glyph glyph-name="Aacute" unicode="&#xc1;" horiz-adv-x="627" 
d="M403 126h-181q-10 -36 -17.5 -67t-14.5 -58q-14 -5 -29.5 -8.5t-37.5 -3.5q-51 0 -75.5 17.5t-24.5 48.5q0 14 4 28t9 33q7 27 19.5 67.5t27.5 87t32 95t32 92t27.5 78t19.5 52.5q17 10 51.5 19t69.5 9q50 0 88.5 -14.5t49.5 -46.5q18 -51 39 -120t42 -142.5t41 -145
t35 -126.5q-12 -14 -36 -22.5t-57 -8.5q-49 0 -68 16t-28 51zM314 459q-14 -41 -31 -91t-33 -107h124q-14 57 -28.5 107.5t-25.5 90.5h-6zM387 846q42 0 65.5 -20.5t23.5 -50.5q0 -20 -9.5 -36t-37.5 -33l-100 -58q-40 0 -60.5 18t-20.5 42q0 12 3.5 23t19.5 25z" />
    <glyph glyph-name="Acircumflex" unicode="&#xc2;" horiz-adv-x="627" 
d="M324 734q-24 -23 -48 -45t-46 -40q-31 0 -52 18t-21 45q0 21 10 36t37 36l29 22q29 22 51 31.5t42 9.5q26 0 47 -9.5t44 -32.5l81 -81q0 -36 -18.5 -54t-50.5 -18q-20 0 -37 13t-41 39zM403 126h-181q-10 -36 -17.5 -67t-14.5 -58q-14 -5 -29.5 -8.5t-37.5 -3.5
q-51 0 -75.5 17.5t-24.5 48.5q0 14 4 28t9 33q7 27 19.5 67.5t27.5 87t32 95t32 92t27.5 78t19.5 52.5q17 10 51.5 19t69.5 9q50 0 88.5 -14.5t49.5 -46.5q18 -51 39 -120t42 -142.5t41 -145t35 -126.5q-12 -14 -36 -22.5t-57 -8.5q-49 0 -68 16t-28 51zM314 459
q-14 -41 -31 -91t-33 -107h124q-14 57 -28.5 107.5t-25.5 90.5h-6z" />
    <glyph glyph-name="Atilde" unicode="&#xc3;" horiz-adv-x="627" 
d="M403 126h-181q-10 -36 -17.5 -67t-14.5 -58q-14 -5 -29.5 -8.5t-37.5 -3.5q-51 0 -75.5 17.5t-24.5 48.5q0 14 4 28t9 33q7 27 19.5 67.5t27.5 87t32 95t32 92t27.5 78t19.5 52.5q17 10 51.5 19t69.5 9q50 0 88.5 -14.5t49.5 -46.5q18 -51 39 -120t42 -142.5t41 -145
t35 -126.5q-12 -14 -36 -22.5t-57 -8.5q-49 0 -68 16t-28 51zM314 459q-14 -41 -31 -91t-33 -107h124q-14 57 -28.5 107.5t-25.5 90.5h-6zM231 843q21 0 41 -4.5t38.5 -10t34 -10t27.5 -4.5q22 0 34 13t17 22h4q32 0 55 -22.5t23 -57.5q0 -45 -28 -66t-70 -21
q-24 0 -44.5 4.5t-37.5 10t-32 10t-27 4.5q-22 0 -33.5 -12.5t-17.5 -22.5h-4q-31 0 -54.5 22t-23.5 58q0 22 8.5 38.5t22.5 27.5t31.5 16t35.5 5z" />
    <glyph glyph-name="Adieresis" unicode="&#xc4;" horiz-adv-x="627" 
d="M403 126h-181q-10 -36 -17.5 -67t-14.5 -58q-14 -5 -29.5 -8.5t-37.5 -3.5q-51 0 -75.5 17.5t-24.5 48.5q0 14 4 28t9 33q7 27 19.5 67.5t27.5 87t32 95t32 92t27.5 78t19.5 52.5q17 10 51.5 19t69.5 9q50 0 88.5 -14.5t49.5 -46.5q18 -51 39 -120t42 -142.5t41 -145
t35 -126.5q-12 -14 -36 -22.5t-57 -8.5q-49 0 -68 16t-28 51zM314 459q-14 -41 -31 -91t-33 -107h124q-14 57 -28.5 107.5t-25.5 90.5h-6zM294 748q0 -35 -23.5 -58.5t-61.5 -23.5t-61 23.5t-23 58.5t23 59t61 24t61.5 -24t23.5 -59zM509 748q0 -35 -23 -58.5t-61 -23.5
t-61.5 23.5t-23.5 58.5t23.5 59t61.5 24t61 -24t23 -59z" />
    <glyph glyph-name="Aring" unicode="&#xc5;" horiz-adv-x="627" 
d="M403 126h-181q-10 -36 -17.5 -67t-14.5 -58q-14 -5 -29.5 -8.5t-37.5 -3.5q-51 0 -75.5 17.5t-24.5 48.5q0 14 4 28t9 33q7 27 19.5 67.5t27.5 87t32 95t32 92t27.5 78t19.5 52.5q17 10 51.5 19t69.5 9q50 0 88.5 -14.5t49.5 -46.5q18 -51 39 -120t42 -142.5t41 -145
t35 -126.5q-12 -14 -36 -22.5t-57 -8.5q-49 0 -68 16t-28 51zM314 459q-14 -41 -31 -91t-33 -107h124q-14 57 -28.5 107.5t-25.5 90.5h-6zM189 754q0 46 35.5 77.5t96.5 31.5q65 0 101 -31.5t36 -77.5t-36 -77t-101 -31q-61 0 -96.5 31t-35.5 77zM290 754q0 -14 9.5 -22.5
t22.5 -8.5q15 0 24.5 8.5t9.5 22.5t-9.5 22.5t-24.5 8.5q-13 0 -22.5 -8.5t-9.5 -22.5z" />
    <glyph glyph-name="AE" unicode="&#xc6;" horiz-adv-x="875" 
d="M485 -3q-43 0 -68 25t-25 68v36h-155l-55 -124q-14 -5 -28.5 -8.5t-35.5 -3.5q-46 0 -68 17.5t-22 48.5q0 14 3.5 28.5t11.5 32.5q13 28 31.5 67.5t40.5 84.5t45 92t44.5 89t39 76.5t28.5 54.5q14 11 42.5 20.5t63.5 9.5q20 0 46 -4t48 -15q23 14 52 14h291
q7 -11 12.5 -28t5.5 -38q0 -37 -16 -54t-44 -17h-211v-93h225q7 -11 12.5 -28t5.5 -38q0 -37 -16 -53.5t-44 -16.5h-183v-105h257q7 -11 12.5 -29t5.5 -39q0 -37 -16 -53.5t-44 -16.5h-292zM298 261h94v198h-6z" />
    <glyph glyph-name="Ccedilla" unicode="&#xc7;" horiz-adv-x="571" 
d="M541 518q0 -26 -13 -45t-30 -30q-26 17 -55.5 29t-68.5 12q-77 0 -118 -47.5t-41 -133.5q0 -89 44.5 -134.5t123.5 -45.5q41 0 69.5 11t54.5 25q17 -14 26.5 -33.5t9.5 -45.5q0 -23 -12 -42t-41 -32q-11 -5 -27 -10t-38 -9q17 -30 17 -71q0 -51 -32 -84.5t-89 -33.5
q-42 0 -67.5 20.5t-25.5 58.5q0 17 4 30h10q31 0 44.5 15t13.5 37q0 13 -6 28q-56 8 -103.5 30.5t-82 61.5t-54 94.5t-19.5 129.5q0 78 24.5 138t67 101t99.5 62t122 21q92 0 142.5 -30t50.5 -77z" />
    <glyph glyph-name="Egrave" unicode="&#xc8;" horiz-adv-x="548" 
d="M158 -3q-43 0 -68 25t-25 68v423q0 43 25 68t68 25h330q7 -11 12.5 -28t5.5 -38q0 -37 -16 -54t-44 -17h-211v-93h225q7 -11 12.5 -28t5.5 -38q0 -37 -16 -53.5t-44 -16.5h-183v-105h257q7 -11 12.5 -29t5.5 -39q0 -37 -16 -53.5t-44 -16.5h-292zM146 739q-1 4 -1.5 11.5
t-0.5 11.5q0 37 21 57.5t52 20.5q20 0 37 -9t37 -28l86 -85q-5 -35 -26 -52t-45 -17q-21 0 -36 7.5t-32 18.5z" />
    <glyph glyph-name="Eacute" unicode="&#xc9;" horiz-adv-x="548" 
d="M158 -3q-43 0 -68 25t-25 68v423q0 43 25 68t68 25h330q7 -11 12.5 -28t5.5 -38q0 -37 -16 -54t-44 -17h-211v-93h225q7 -11 12.5 -28t5.5 -38q0 -37 -16 -53.5t-44 -16.5h-183v-105h257q7 -11 12.5 -29t5.5 -39q0 -37 -16 -53.5t-44 -16.5h-292zM375 846
q42 0 65.5 -20.5t23.5 -50.5q0 -20 -9.5 -36t-37.5 -33l-100 -58q-40 0 -60.5 18t-20.5 42q0 12 3.5 23t19.5 25z" />
    <glyph glyph-name="Ecircumflex" unicode="&#xca;" horiz-adv-x="548" 
d="M158 -3q-43 0 -68 25t-25 68v423q0 43 25 68t68 25h330q7 -11 12.5 -28t5.5 -38q0 -37 -16 -54t-44 -17h-211v-93h225q7 -11 12.5 -28t5.5 -38q0 -37 -16 -53.5t-44 -16.5h-183v-105h257q7 -11 12.5 -29t5.5 -39q0 -37 -16 -53.5t-44 -16.5h-292zM293 734
q-24 -23 -48 -45t-46 -40q-31 0 -52 18t-21 45q0 21 10 36t37 36l29 22q29 22 51 31.5t42 9.5q26 0 47 -9.5t44 -32.5l81 -81q0 -36 -18.5 -54t-50.5 -18q-20 0 -37 13t-41 39z" />
    <glyph glyph-name="Edieresis" unicode="&#xcb;" horiz-adv-x="548" 
d="M158 -3q-43 0 -68 25t-25 68v423q0 43 25 68t68 25h330q7 -11 12.5 -28t5.5 -38q0 -37 -16 -54t-44 -17h-211v-93h225q7 -11 12.5 -28t5.5 -38q0 -37 -16 -53.5t-44 -16.5h-183v-105h257q7 -11 12.5 -29t5.5 -39q0 -37 -16 -53.5t-44 -16.5h-292zM265 748
q0 -35 -23.5 -58.5t-61.5 -23.5t-61 23.5t-23 58.5t23 59t61 24t61.5 -24t23.5 -59zM480 748q0 -35 -23 -58.5t-61 -23.5t-61.5 23.5t-23.5 58.5t23.5 59t61.5 24t61 -24t23 -59z" />
    <glyph glyph-name="Igrave" unicode="&#xcc;" horiz-adv-x="305" 
d="M159 -8q-53 0 -73.5 18t-20.5 65v533q12 2 35 5.5t46 3.5q50 0 72 -17t22 -66v-533q-11 -3 -34 -6t-47 -3zM-20 739q-1 4 -1.5 11.5t-0.5 11.5q0 37 21 57.5t52 20.5q20 0 37 -9t37 -28l86 -85q-5 -35 -26 -52t-45 -17q-21 0 -36 7.5t-32 18.5z" />
    <glyph glyph-name="Iacute" unicode="&#xcd;" horiz-adv-x="305" 
d="M159 -8q-53 0 -73.5 18t-20.5 65v533q12 2 35 5.5t46 3.5q50 0 72 -17t22 -66v-533q-11 -3 -34 -6t-47 -3zM217 846q42 0 65.5 -20.5t23.5 -50.5q0 -20 -9.5 -36t-37.5 -33l-100 -58q-40 0 -60.5 18t-20.5 42q0 12 3.5 23t19.5 25z" />
    <glyph glyph-name="Icircumflex" unicode="&#xce;" horiz-adv-x="305" 
d="M159 -8q-53 0 -73.5 18t-20.5 65v533q12 2 35 5.5t46 3.5q50 0 72 -17t22 -66v-533q-11 -3 -34 -6t-47 -3zM152 734q-24 -23 -48 -45t-46 -40q-31 0 -52 18t-21 45q0 21 10 36t37 36l29 22q29 22 51 31.5t42 9.5q26 0 47 -9.5t44 -32.5l81 -81q0 -36 -18.5 -54t-50.5 -18
q-20 0 -37 13t-41 39z" />
    <glyph glyph-name="Idieresis" unicode="&#xcf;" horiz-adv-x="305" 
d="M159 -8q-53 0 -73.5 18t-20.5 65v533q12 2 35 5.5t46 3.5q50 0 72 -17t22 -66v-533q-11 -3 -34 -6t-47 -3zM124 748q0 -35 -23.5 -58.5t-61.5 -23.5t-61 23.5t-23 58.5t23 59t61 24t61.5 -24t23.5 -59zM339 748q0 -35 -23 -58.5t-61 -23.5t-61.5 23.5t-23.5 58.5t23.5 59
t61.5 24t61 -24t23 -59z" />
    <glyph glyph-name="Eth" unicode="&#xd0;" horiz-adv-x="700" 
d="M665 304q0 -80 -24 -140t-68.5 -100t-106.5 -60t-137 -20q-17 0 -39 1t-45.5 4t-47 7.5t-43.5 12.5q-55 21 -55 73v156h-61q-7 11 -12.5 28t-5.5 38q0 37 16 53.5t44 16.5h19v175q0 21 11.5 32.5t31.5 18.5q43 14 91 18.5t86 4.5q78 0 141.5 -19t109 -58.5t70.5 -99.5
t25 -142zM485 301q0 90 -42 135.5t-112 45.5q-14 0 -28.5 -1t-29.5 -3v-104h95q7 -11 12.5 -28t5.5 -38q0 -37 -16 -53.5t-44 -16.5h-53v-108q11 -2 27 -3.5t30 -1.5q69 0 112 44t43 132z" />
    <glyph glyph-name="Ntilde" unicode="&#xd1;" horiz-adv-x="679" 
d="M614 21q-14 -14 -40.5 -21.5t-63.5 -7.5t-70 11t-54 53l-99 202q-15 31 -27 58.5t-26 63.5l-7 -2q5 -63 5.5 -116.5t0.5 -102.5v-159q-11 -2 -33 -5t-45 -3q-51 0 -70.5 17.5t-19.5 62.5v503q14 20 43 30t62 10q37 0 70.5 -11.5t53.5 -52.5l100 -202q15 -31 27 -58.5
t26 -63.5l4 1q-4 48 -4.5 90.5t-0.5 81.5v209q11 2 33 5t45 3q51 0 70.5 -17.5t19.5 -62.5v-516zM247 843q21 0 41 -4.5t38.5 -10t34 -10t27.5 -4.5q22 0 34 13t17 22h4q32 0 55 -22.5t23 -57.5q0 -45 -28 -66t-70 -21q-24 0 -44.5 4.5t-37.5 10t-32 10t-27 4.5
q-22 0 -33.5 -12.5t-17.5 -22.5h-4q-31 0 -54.5 22t-23.5 58q0 22 8.5 38.5t22.5 27.5t31.5 16t35.5 5z" />
    <glyph glyph-name="Ograve" unicode="&#xd2;" horiz-adv-x="703" 
d="M668 304q0 -78 -24 -138.5t-66.5 -101t-100.5 -61.5t-126 -21t-126 21t-100 62t-66 101t-24 138t24.5 138t67 100.5t100 61.5t124.5 21t124.5 -21t100.5 -61.5t67.5 -100.5t24.5 -138zM488 304q0 90 -37 135t-100 45q-61 0 -98.5 -44.5t-37.5 -135.5t37 -136t100 -45
q62 0 99 45t37 136zM193 739q-1 4 -1.5 11.5t-0.5 11.5q0 37 21 57.5t52 20.5q20 0 37 -9t37 -28l86 -85q-5 -35 -26 -52t-45 -17q-21 0 -36 7.5t-32 18.5z" />
    <glyph glyph-name="Oacute" unicode="&#xd3;" horiz-adv-x="703" 
d="M668 304q0 -78 -24 -138.5t-66.5 -101t-100.5 -61.5t-126 -21t-126 21t-100 62t-66 101t-24 138t24.5 138t67 100.5t100 61.5t124.5 21t124.5 -21t100.5 -61.5t67.5 -100.5t24.5 -138zM488 304q0 90 -37 135t-100 45q-61 0 -98.5 -44.5t-37.5 -135.5t37 -136t100 -45
q62 0 99 45t37 136zM432 846q42 0 65.5 -20.5t23.5 -50.5q0 -20 -9.5 -36t-37.5 -33l-100 -58q-40 0 -60.5 18t-20.5 42q0 12 3.5 23t19.5 25z" />
    <glyph glyph-name="Ocircumflex" unicode="&#xd4;" horiz-adv-x="703" 
d="M668 304q0 -78 -24 -138.5t-66.5 -101t-100.5 -61.5t-126 -21t-126 21t-100 62t-66 101t-24 138t24.5 138t67 100.5t100 61.5t124.5 21t124.5 -21t100.5 -61.5t67.5 -100.5t24.5 -138zM488 304q0 90 -37 135t-100 45q-61 0 -98.5 -44.5t-37.5 -135.5t37 -136t100 -45
q62 0 99 45t37 136zM355 734q-24 -23 -48 -45t-46 -40q-31 0 -52 18t-21 45q0 21 10 36t37 36l29 22q29 22 51 31.5t42 9.5q26 0 47 -9.5t44 -32.5l81 -81q0 -36 -18.5 -54t-50.5 -18q-20 0 -37 13t-41 39z" />
    <glyph glyph-name="Otilde" unicode="&#xd5;" horiz-adv-x="703" 
d="M668 304q0 -78 -24 -138.5t-66.5 -101t-100.5 -61.5t-126 -21t-126 21t-100 62t-66 101t-24 138t24.5 138t67 100.5t100 61.5t124.5 21t124.5 -21t100.5 -61.5t67.5 -100.5t24.5 -138zM488 304q0 90 -37 135t-100 45q-61 0 -98.5 -44.5t-37.5 -135.5t37 -136t100 -45
q62 0 99 45t37 136zM265 843q21 0 41 -4.5t38.5 -10t34 -10t27.5 -4.5q22 0 34 13t17 22h4q32 0 55 -22.5t23 -57.5q0 -45 -28 -66t-70 -21q-24 0 -44.5 4.5t-37.5 10t-32 10t-27 4.5q-22 0 -33.5 -12.5t-17.5 -22.5h-4q-31 0 -54.5 22t-23.5 58q0 22 8.5 38.5t22.5 27.5
t31.5 16t35.5 5z" />
    <glyph glyph-name="Odieresis" unicode="&#xd6;" horiz-adv-x="703" 
d="M668 304q0 -78 -24 -138.5t-66.5 -101t-100.5 -61.5t-126 -21t-126 21t-100 62t-66 101t-24 138t24.5 138t67 100.5t100 61.5t124.5 21t124.5 -21t100.5 -61.5t67.5 -100.5t24.5 -138zM488 304q0 90 -37 135t-100 45q-61 0 -98.5 -44.5t-37.5 -135.5t37 -136t100 -45
q62 0 99 45t37 136zM327 748q0 -35 -23.5 -58.5t-61.5 -23.5t-61 23.5t-23 58.5t23 59t61 24t61.5 -24t23.5 -59zM542 748q0 -35 -23 -58.5t-61 -23.5t-61.5 23.5t-23.5 58.5t23.5 59t61.5 24t61 -24t23 -59z" />
    <glyph glyph-name="multiply" unicode="&#xd7;" horiz-adv-x="504" 
d="M353 285l123 -142q-11 -35 -34 -55.5t-56 -20.5q-11 0 -26.5 6.5t-26.5 20.5l-83 100l-124 -134q-20 3 -37 11.5t-29.5 20t-19.5 25t-7 26.5q0 19 26 48l93 99l-124 128q4 15 12.5 30t20.5 26.5t26 18.5t29 7q27 0 46 -22l94 -102l123 129q31 -10 55 -34t24 -54
q0 -11 -6 -23.5t-20 -26.5z" />
    <glyph glyph-name="Oslash" unicode="&#xd8;" horiz-adv-x="703" 
d="M668 304q0 -78 -24 -138.5t-66.5 -101t-100.5 -61.5t-126 -21q-109 0 -188 55l-53 -55q-33 8 -54 25t-21 45q0 17 9.5 32.5t32.5 36.5l4 4q-22 37 -34 81.5t-12 97.5q0 78 24.5 138t67 100.5t100 61.5t124.5 21q106 0 185 -55l54 55q34 -9 54 -28t20 -42q0 -18 -13 -35.5
t-32 -34.5q23 -37 36 -82t13 -99zM493 304q0 28 -5 56l-213 -215q32 -22 77 -22q62 0 101.5 45t39.5 136zM210 304q0 -17 1 -31t4 -28l211 218q-32 21 -75 21q-61 0 -101 -45t-40 -135z" />
    <glyph glyph-name="Ugrave" unicode="&#xd9;" horiz-adv-x="664" 
d="M332 -18q-63 0 -113 17t-85 48.5t-53.5 76t-18.5 98.5v386q12 2 35 5.5t46 3.5q50 0 72 -17t22 -66v-309q0 -48 26.5 -75t68.5 -27t68.5 27t26.5 75v383q12 2 35 5.5t46 3.5q50 0 72 -17t22 -66v-312q0 -54 -18.5 -98.5t-53.5 -76t-85 -48.5t-113 -17zM156 739
q-1 4 -1.5 11.5t-0.5 11.5q0 37 21 57.5t52 20.5q20 0 37 -9t37 -28l86 -85q-5 -35 -26 -52t-45 -17q-21 0 -36 7.5t-32 18.5z" />
    <glyph glyph-name="Uacute" unicode="&#xda;" horiz-adv-x="664" 
d="M332 -18q-63 0 -113 17t-85 48.5t-53.5 76t-18.5 98.5v386q12 2 35 5.5t46 3.5q50 0 72 -17t22 -66v-309q0 -48 26.5 -75t68.5 -27t68.5 27t26.5 75v383q12 2 35 5.5t46 3.5q50 0 72 -17t22 -66v-312q0 -54 -18.5 -98.5t-53.5 -76t-85 -48.5t-113 -17zM406 846
q42 0 65.5 -20.5t23.5 -50.5q0 -20 -9.5 -36t-37.5 -33l-100 -58q-40 0 -60.5 18t-20.5 42q0 12 3.5 23t19.5 25z" />
    <glyph glyph-name="Ucircumflex" unicode="&#xdb;" horiz-adv-x="664" 
d="M332 -18q-63 0 -113 17t-85 48.5t-53.5 76t-18.5 98.5v386q12 2 35 5.5t46 3.5q50 0 72 -17t22 -66v-309q0 -48 26.5 -75t68.5 -27t68.5 27t26.5 75v383q12 2 35 5.5t46 3.5q50 0 72 -17t22 -66v-312q0 -54 -18.5 -98.5t-53.5 -76t-85 -48.5t-113 -17zM337 734
q-24 -23 -48 -45t-46 -40q-31 0 -52 18t-21 45q0 21 10 36t37 36l29 22q29 22 51 31.5t42 9.5q26 0 47 -9.5t44 -32.5l81 -81q0 -36 -18.5 -54t-50.5 -18q-20 0 -37 13t-41 39z" />
    <glyph glyph-name="Udieresis" unicode="&#xdc;" horiz-adv-x="664" 
d="M332 -18q-63 0 -113 17t-85 48.5t-53.5 76t-18.5 98.5v386q12 2 35 5.5t46 3.5q50 0 72 -17t22 -66v-309q0 -48 26.5 -75t68.5 -27t68.5 27t26.5 75v383q12 2 35 5.5t46 3.5q50 0 72 -17t22 -66v-312q0 -54 -18.5 -98.5t-53.5 -76t-85 -48.5t-113 -17zM306 748
q0 -35 -23.5 -58.5t-61.5 -23.5t-61 23.5t-23 58.5t23 59t61 24t61.5 -24t23.5 -59zM521 748q0 -35 -23 -58.5t-61 -23.5t-61.5 23.5t-23.5 58.5t23.5 59t61.5 24t61 -24t23 -59z" />
    <glyph glyph-name="Yacute" unicode="&#xdd;" horiz-adv-x="574" 
d="M562 535q0 -12 -6.5 -31.5t-26 -57t-54.5 -97.5t-92 -152v-196q-11 -3 -33.5 -6t-45.5 -3q-52 0 -72 18t-20 63v127q-26 37 -56 84.5t-59 97t-53.5 96.5t-38.5 83q13 18 35.5 33t55.5 15q39 0 63.5 -16t46.5 -60l88 -177h6q14 31 25.5 58t22.5 54.5t22.5 56.5t25.5 65
q18 9 40 14t42 5q35 0 59.5 -18.5t24.5 -55.5zM352 846q42 0 65.5 -20.5t23.5 -50.5q0 -20 -9.5 -36t-37.5 -33l-100 -58q-40 0 -60.5 18t-20.5 42q0 12 3.5 23t19.5 25z" />
    <glyph glyph-name="Thorn" unicode="&#xde;" horiz-adv-x="577" 
d="M60 608q12 2 35 5.5t46 3.5q50 0 72 -17t22 -66v-11h71q61 0 107.5 -15.5t77 -44t46 -68t15.5 -88.5t-15.5 -88.5t-46 -68t-77 -44t-107.5 -15.5h-71v-90q-11 -3 -34 -6t-47 -3q-53 0 -73.5 18t-20.5 65v533zM234 228h53q42 0 64.5 19.5t22.5 59.5t-22.5 59.5t-64.5 19.5
h-53v-158z" />
    <glyph glyph-name="germandbls" unicode="&#xdf;" horiz-adv-x="624" 
d="M224 1q-11 -3 -31.5 -6t-44.5 -3q-50 0 -72 16.5t-22 63.5v382q0 58 19.5 100t52.5 70t78 41.5t96 13.5q55 0 100 -15.5t77.5 -44.5t50.5 -70t18 -91q0 -25 -8 -40.5t-27 -25.5l-34 -18q-13 -7 -20.5 -15t-7.5 -19t7.5 -18t19.5 -13q61 -30 89.5 -66t28.5 -94
q0 -40 -14 -71t-39.5 -52t-60 -32t-74.5 -11q-60 0 -96.5 19t-36.5 57q0 23 9.5 39t23.5 26q14 -8 29.5 -13t35.5 -5q23 0 36 11t13 30q0 18 -10 29t-30 22q-52 28 -78.5 60t-26.5 84q0 40 25 70t69 47l8 3q0 34 -21 56.5t-55 22.5q-35 0 -56 -22t-21 -65v-453z" />
    <glyph glyph-name="agrave" unicode="&#xe0;" horiz-adv-x="544" 
d="M260 108q17 0 37.5 3.5t30.5 9.5v80l-72 -6q-28 -2 -46 -12t-18 -30t15.5 -32.5t52.5 -12.5zM252 501q54 0 98.5 -11t76 -33.5t48.5 -57t17 -81.5v-224q0 -26 -14.5 -42.5t-34.5 -28.5q-65 -39 -183 -39q-53 0 -95.5 10t-73 30t-47 51t-16.5 72q0 69 41 106t127 46
l131 14v7q0 29 -25.5 41.5t-73.5 12.5q-37 0 -73.5 -8t-65.5 -20q-13 9 -22 27.5t-9 38.5q0 26 12.5 41.5t38.5 26.5q29 11 68.5 16t74.5 5zM113 646q-1 4 -1.5 11.5t-0.5 11.5q0 37 21 57.5t52 20.5q20 0 38.5 -8t35.5 -29l89 -111q-5 -35 -26 -52t-45 -17q-21 0 -35.5 6
t-29.5 20z" />
    <glyph glyph-name="aacute" unicode="&#xe1;" horiz-adv-x="544" 
d="M260 108q17 0 37.5 3.5t30.5 9.5v80l-72 -6q-28 -2 -46 -12t-18 -30t15.5 -32.5t52.5 -12.5zM252 501q54 0 98.5 -11t76 -33.5t48.5 -57t17 -81.5v-224q0 -26 -14.5 -42.5t-34.5 -28.5q-65 -39 -183 -39q-53 0 -95.5 10t-73 30t-47 51t-16.5 72q0 69 41 106t127 46
l131 14v7q0 29 -25.5 41.5t-73.5 12.5q-37 0 -73.5 -8t-65.5 -20q-13 9 -22 27.5t-9 38.5q0 26 12.5 41.5t38.5 26.5q29 11 68.5 16t74.5 5zM320 752q52 0 78 -22t26 -50q0 -23 -10 -38.5t-34 -35.5l-95 -78q-45 0 -67 21t-22 45q0 12 4.5 23t18.5 26z" />
    <glyph glyph-name="acircumflex" unicode="&#xe2;" horiz-adv-x="544" 
d="M260 108q17 0 37.5 3.5t30.5 9.5v80l-72 -6q-28 -2 -46 -12t-18 -30t15.5 -32.5t52.5 -12.5zM252 501q54 0 98.5 -11t76 -33.5t48.5 -57t17 -81.5v-224q0 -26 -14.5 -42.5t-34.5 -28.5q-65 -39 -183 -39q-53 0 -95.5 10t-73 30t-47 51t-16.5 72q0 69 41 106t127 46
l131 14v7q0 29 -25.5 41.5t-73.5 12.5q-37 0 -73.5 -8t-65.5 -20q-13 9 -22 27.5t-9 38.5q0 26 12.5 41.5t38.5 26.5q29 11 68.5 16t74.5 5zM270 626q-13 -15 -23.5 -26t-19.5 -21.5l-18 -21t-20 -23.5q-39 0 -62 17.5t-23 46.5q0 20 11 34.5t33 36.5l34 34q19 19 40.5 30.5
t50.5 11.5q26 0 48 -10t51 -45l71 -87q0 -28 -16.5 -47.5t-50.5 -19.5q-20 0 -35 10.5t-31 30.5z" />
    <glyph glyph-name="atilde" unicode="&#xe3;" horiz-adv-x="544" 
d="M260 108q17 0 37.5 3.5t30.5 9.5v80l-72 -6q-28 -2 -46 -12t-18 -30t15.5 -32.5t52.5 -12.5zM252 501q54 0 98.5 -11t76 -33.5t48.5 -57t17 -81.5v-224q0 -26 -14.5 -42.5t-34.5 -28.5q-65 -39 -183 -39q-53 0 -95.5 10t-73 30t-47 51t-16.5 72q0 69 41 106t127 46
l131 14v7q0 29 -25.5 41.5t-73.5 12.5q-37 0 -73.5 -8t-65.5 -20q-13 9 -22 27.5t-9 38.5q0 26 12.5 41.5t38.5 26.5q29 11 68.5 16t74.5 5zM183 715q21 0 41 -4.5t38.5 -10t34 -10t27.5 -4.5q22 0 34 13t17 22h4q32 0 55 -22.5t23 -57.5q0 -45 -28 -66t-70 -21
q-24 0 -44.5 4.5t-37.5 10t-32 10t-27 4.5q-22 0 -33.5 -12.5t-17.5 -22.5h-4q-32 0 -55 22t-23 58q0 22 8.5 38.5t22.5 27.5t31.5 16t35.5 5z" />
    <glyph glyph-name="adieresis" unicode="&#xe4;" horiz-adv-x="544" 
d="M260 108q17 0 37.5 3.5t30.5 9.5v80l-72 -6q-28 -2 -46 -12t-18 -30t15.5 -32.5t52.5 -12.5zM252 501q54 0 98.5 -11t76 -33.5t48.5 -57t17 -81.5v-224q0 -26 -14.5 -42.5t-34.5 -28.5q-65 -39 -183 -39q-53 0 -95.5 10t-73 30t-47 51t-16.5 72q0 69 41 106t127 46
l131 14v7q0 29 -25.5 41.5t-73.5 12.5q-37 0 -73.5 -8t-65.5 -20q-13 9 -22 27.5t-9 38.5q0 26 12.5 41.5t38.5 26.5q29 11 68.5 16t74.5 5zM252 630q0 -35 -23.5 -58.5t-61.5 -23.5t-61 23.5t-23 58.5t23 59t61 24t61.5 -24t23.5 -59zM467 630q0 -35 -23 -58.5t-61 -23.5
t-61.5 23.5t-23.5 58.5t23.5 59t61.5 24t61 -24t23 -59z" />
    <glyph glyph-name="aring" unicode="&#xe5;" horiz-adv-x="544" 
d="M260 108q17 0 37.5 3.5t30.5 9.5v80l-72 -6q-28 -2 -46 -12t-18 -30t15.5 -32.5t52.5 -12.5zM252 501q54 0 98.5 -11t76 -33.5t48.5 -57t17 -81.5v-224q0 -26 -14.5 -42.5t-34.5 -28.5q-65 -39 -183 -39q-53 0 -95.5 10t-73 30t-47 51t-16.5 72q0 69 41 106t127 46
l131 14v7q0 29 -25.5 41.5t-73.5 12.5q-37 0 -73.5 -8t-65.5 -20q-13 9 -22 27.5t-9 38.5q0 26 12.5 41.5t38.5 26.5q29 11 68.5 16t74.5 5zM136 641q0 47 35.5 79.5t96.5 32.5q65 0 101 -32.5t36 -79.5t-36 -79t-101 -32q-61 0 -96.5 32t-35.5 79zM237 641q0 -16 9.5 -25
t22.5 -9q15 0 24.5 9t9.5 25t-9.5 25t-24.5 9q-13 0 -22.5 -9t-9.5 -25z" />
    <glyph glyph-name="ae" unicode="&#xe6;" horiz-adv-x="831" 
d="M252 501q107 0 160 -53q32 27 71 40t81 13q53 0 96.5 -16t75 -44t48.5 -67t17 -85q0 -34 -19 -52t-53 -23l-249 -37q14 -37 47 -51.5t74 -14.5q42 0 80 10.5t61 24.5q16 -10 27 -28t11 -38q0 -25 -14 -43t-39.5 -30t-60.5 -17.5t-77 -5.5q-96 0 -159 46l-8 -5
q-32 -19 -69.5 -30t-95.5 -11q-105 0 -167 40t-62 123q0 69 41 106t127 46l131 14v7q0 29 -25.5 41.5t-73.5 12.5q-37 0 -73.5 -8t-65.5 -20q-13 9 -22 27.5t-9 38.5q0 26 12.5 41.5t38.5 26.5q29 11 68.5 16t74.5 5zM260 108q17 0 37.5 3.5t30.5 9.5v80l-72 -6
q-28 -2 -46 -12t-18 -30t15.5 -32.5t52.5 -12.5zM565 377q-38 0 -63.5 -23t-30.5 -65l170 28q-1 10 -6 20.5t-14 19.5t-23 14.5t-33 5.5z" />
    <glyph glyph-name="ccedilla" unicode="&#xe7;" horiz-adv-x="489" 
d="M326 367q-25 0 -47.5 -8t-39 -24t-26.5 -39.5t-10 -54.5q0 -62 35 -92t87 -30q30 0 53 7.5t40 15.5q19 -14 28.5 -30t9.5 -39q0 -31 -23.5 -53t-68.5 -30q10 -17 14 -35.5t4 -38.5q0 -51 -32 -84.5t-89 -33.5q-42 0 -67.5 20.5t-25.5 58.5q0 17 4 30h10q31 0 44.5 15
t13.5 37q0 14 -8 32q-94 17 -147.5 80t-53.5 170q0 66 21.5 115t58.5 81t85.5 48t102.5 16q72 0 111 -26t39 -67q0 -19 -9 -35.5t-21 -28.5q-17 8 -41 15.5t-52 7.5z" />
    <glyph glyph-name="egrave" unicode="&#xe8;" horiz-adv-x="549" 
d="M198 176q14 -36 47 -50.5t74 -14.5q42 0 80 10.5t61 24.5q16 -10 27 -28t11 -38q0 -25 -14 -43t-39.5 -30t-60.5 -17.5t-77 -5.5q-59 0 -109.5 16.5t-87.5 49.5t-58 83t-21 117q0 66 21.5 113.5t57 78t80.5 45t92 14.5q53 0 96.5 -16t75 -44t48.5 -67t17 -85
q0 -34 -19 -52t-53 -23zM283 377q-38 0 -63.5 -23t-30.5 -65l170 28q-1 10 -6 20.5t-14 19.5t-23 14.5t-33 5.5zM115 646q-1 4 -1.5 11.5t-0.5 11.5q0 37 21 57.5t52 20.5q20 0 38.5 -8t35.5 -29l89 -111q-5 -35 -26 -52t-45 -17q-21 0 -35.5 6t-29.5 20z" />
    <glyph glyph-name="eacute" unicode="&#xe9;" horiz-adv-x="549" 
d="M198 176q14 -36 47 -50.5t74 -14.5q42 0 80 10.5t61 24.5q16 -10 27 -28t11 -38q0 -25 -14 -43t-39.5 -30t-60.5 -17.5t-77 -5.5q-59 0 -109.5 16.5t-87.5 49.5t-58 83t-21 117q0 66 21.5 113.5t57 78t80.5 45t92 14.5q53 0 96.5 -16t75 -44t48.5 -67t17 -85
q0 -34 -19 -52t-53 -23zM283 377q-38 0 -63.5 -23t-30.5 -65l170 28q-1 10 -6 20.5t-14 19.5t-23 14.5t-33 5.5zM331 752q52 0 78 -22t26 -50q0 -23 -10 -38.5t-34 -35.5l-95 -78q-45 0 -67 21t-22 45q0 12 4.5 23t18.5 26z" />
    <glyph glyph-name="ecircumflex" unicode="&#xea;" horiz-adv-x="549" 
d="M198 176q14 -36 47 -50.5t74 -14.5q42 0 80 10.5t61 24.5q16 -10 27 -28t11 -38q0 -25 -14 -43t-39.5 -30t-60.5 -17.5t-77 -5.5q-59 0 -109.5 16.5t-87.5 49.5t-58 83t-21 117q0 66 21.5 113.5t57 78t80.5 45t92 14.5q53 0 96.5 -16t75 -44t48.5 -67t17 -85
q0 -34 -19 -52t-53 -23zM283 377q-38 0 -63.5 -23t-30.5 -65l170 28q-1 10 -6 20.5t-14 19.5t-23 14.5t-33 5.5zM283 626q-13 -15 -23.5 -26t-19.5 -21.5l-18 -21t-20 -23.5q-39 0 -62 17.5t-23 46.5q0 20 11 34.5t33 36.5l34 34q19 19 40.5 30.5t50.5 11.5q26 0 48 -10
t51 -45l71 -87q0 -28 -16.5 -47.5t-50.5 -19.5q-20 0 -35 10.5t-31 30.5z" />
    <glyph glyph-name="edieresis" unicode="&#xeb;" horiz-adv-x="549" 
d="M198 176q14 -36 47 -50.5t74 -14.5q42 0 80 10.5t61 24.5q16 -10 27 -28t11 -38q0 -25 -14 -43t-39.5 -30t-60.5 -17.5t-77 -5.5q-59 0 -109.5 16.5t-87.5 49.5t-58 83t-21 117q0 66 21.5 113.5t57 78t80.5 45t92 14.5q53 0 96.5 -16t75 -44t48.5 -67t17 -85
q0 -34 -19 -52t-53 -23zM283 377q-38 0 -63.5 -23t-30.5 -65l170 28q-1 10 -6 20.5t-14 19.5t-23 14.5t-33 5.5zM249 630q0 -35 -23.5 -58.5t-61.5 -23.5t-61 23.5t-23 58.5t23 59t61 24t61.5 -24t23.5 -59zM464 630q0 -35 -23 -58.5t-61 -23.5t-61.5 23.5t-23.5 58.5
t23.5 59t61.5 24t61 -24t23 -59z" />
    <glyph glyph-name="igrave" unicode="&#xec;" horiz-adv-x="282" 
d="M150 -8q-50 0 -72 16.5t-22 63.5v407q11 3 31.5 6t44.5 3q50 0 72 -16.5t22 -63.5v-407q-11 -3 -31.5 -6t-44.5 -3zM-22 646q-1 4 -1.5 11.5t-0.5 11.5q0 37 21 57.5t52 20.5q20 0 38.5 -8t35.5 -29l89 -111q-5 -35 -26 -52t-45 -17q-21 0 -35.5 6t-29.5 20z" />
    <glyph glyph-name="iacute" unicode="&#xed;" horiz-adv-x="282" 
d="M150 -8q-50 0 -72 16.5t-22 63.5v407q11 3 31.5 6t44.5 3q50 0 72 -16.5t22 -63.5v-407q-11 -3 -31.5 -6t-44.5 -3zM194 752q52 0 78 -22t26 -50q0 -23 -10 -38.5t-34 -35.5l-95 -78q-45 0 -67 21t-22 45q0 12 4.5 23t18.5 26z" />
    <glyph glyph-name="icircumflex" unicode="&#xee;" horiz-adv-x="282" 
d="M150 -8q-50 0 -72 16.5t-22 63.5v407q11 3 31.5 6t44.5 3q50 0 72 -16.5t22 -63.5v-407q-11 -3 -31.5 -6t-44.5 -3zM140 626q-13 -15 -23.5 -26t-19.5 -21.5l-18 -21t-20 -23.5q-39 0 -62 17.5t-23 46.5q0 20 11 34.5t33 36.5l34 34q19 19 40.5 30.5t50.5 11.5
q26 0 48 -10t51 -45l71 -87q0 -28 -16.5 -47.5t-50.5 -19.5q-20 0 -35 10.5t-31 30.5z" />
    <glyph glyph-name="idieresis" unicode="&#xef;" horiz-adv-x="282" 
d="M150 -8q-50 0 -72 16.5t-22 63.5v407q11 3 31.5 6t44.5 3q50 0 72 -16.5t22 -63.5v-407q-11 -3 -31.5 -6t-44.5 -3zM117 630q0 -35 -23.5 -58.5t-61.5 -23.5t-61 23.5t-23 58.5t23 59t61 24t61.5 -24t23.5 -59zM332 630q0 -35 -23 -58.5t-61 -23.5t-61.5 23.5t-23.5 58.5
t23.5 59t61.5 24t61 -24t23 -59z" />
    <glyph glyph-name="eth" unicode="&#xf0;" horiz-adv-x="585" 
d="M428 578q55 -63 90 -144.5t35 -173.5q0 -60 -15 -110.5t-46.5 -87t-81 -57.5t-117.5 -21q-61 0 -109.5 17t-82.5 48.5t-52 76t-18 100.5q0 58 20 101t53 72t75 43.5t86 14.5q22 0 41.5 -3.5t36.5 -9.5q-12 21 -25.5 39.5t-33.5 35.5l-152 -57q-14 11 -25.5 29.5
t-11.5 38.5q0 32 33 46l44 19q-17 7 -34.5 13t-37.5 13q3 47 26.5 68.5t56.5 21.5q37 0 75 -13t75 -37l114 46q14 -10 26 -29t12 -39q0 -23 -10 -34t-26 -18zM378 228q0 20 -2.5 38.5t-6.5 35.5q-30 28 -71 28q-45 0 -69 -29t-24 -75q0 -51 22 -79.5t67 -28.5
q43 0 63.5 29.5t20.5 80.5z" />
    <glyph glyph-name="ntilde" unicode="&#xf1;" horiz-adv-x="583" 
d="M530 1q-11 -3 -31.5 -6t-44.5 -3q-50 0 -72 16.5t-22 63.5v236q0 31 -18.5 45.5t-48.5 14.5q-20 0 -37.5 -5t-33.5 -13v-349q-11 -3 -31.5 -6t-44.5 -3q-50 0 -72 16.5t-22 63.5v301q0 27 11.5 44t31.5 31q34 24 85.5 38.5t114.5 14.5q113 0 174 -49.5t61 -138.5v-312z
M205 715q21 0 41 -4.5t38.5 -10t34 -10t27.5 -4.5q22 0 34 13t17 22h4q32 0 55 -22.5t23 -57.5q0 -45 -28 -66t-70 -21q-24 0 -44.5 4.5t-37.5 10t-32 10t-27 4.5q-22 0 -33.5 -12.5t-17.5 -22.5h-4q-31 0 -54.5 22t-23.5 58q0 22 8.5 38.5t22.5 27.5t31.5 16t35.5 5z" />
    <glyph glyph-name="ograve" unicode="&#xf2;" horiz-adv-x="586" 
d="M555 243q0 -60 -18.5 -108t-53 -81.5t-82.5 -51.5t-108 -18t-108 17.5t-82.5 51t-53 81.5t-18.5 109q0 59 19 107t53.5 81.5t82.5 51.5t107 18t107 -18.5t82.5 -52t53.5 -81.5t19 -106zM293 368q-42 0 -65 -32.5t-23 -92.5q0 -63 23 -94.5t65 -31.5t65 32t23 94
q0 60 -23 92.5t-65 32.5zM160 646q-1 4 -1.5 11.5t-0.5 11.5q0 37 21 57.5t52 20.5q20 0 38.5 -8t35.5 -29l89 -111q-5 -35 -26 -52t-45 -17q-21 0 -35.5 6t-29.5 20z" />
    <glyph glyph-name="oacute" unicode="&#xf3;" horiz-adv-x="586" 
d="M555 243q0 -60 -18.5 -108t-53 -81.5t-82.5 -51.5t-108 -18t-108 17.5t-82.5 51t-53 81.5t-18.5 109q0 59 19 107t53.5 81.5t82.5 51.5t107 18t107 -18.5t82.5 -52t53.5 -81.5t19 -106zM293 368q-42 0 -65 -32.5t-23 -92.5q0 -63 23 -94.5t65 -31.5t65 32t23 94
q0 60 -23 92.5t-65 32.5zM316 752q52 0 78 -22t26 -50q0 -23 -10 -38.5t-34 -35.5l-95 -78q-45 0 -67 21t-22 45q0 12 4.5 23t18.5 26z" />
    <glyph glyph-name="ocircumflex" unicode="&#xf4;" horiz-adv-x="586" 
d="M555 243q0 -60 -18.5 -108t-53 -81.5t-82.5 -51.5t-108 -18t-108 17.5t-82.5 51t-53 81.5t-18.5 109q0 59 19 107t53.5 81.5t82.5 51.5t107 18t107 -18.5t82.5 -52t53.5 -81.5t19 -106zM293 368q-42 0 -65 -32.5t-23 -92.5q0 -63 23 -94.5t65 -31.5t65 32t23 94
q0 60 -23 92.5t-65 32.5zM290 626q-13 -15 -23.5 -26t-19.5 -21.5l-18 -21t-20 -23.5q-39 0 -62 17.5t-23 46.5q0 20 11 34.5t33 36.5l34 34q19 19 40.5 30.5t50.5 11.5q26 0 48 -10t51 -45l71 -87q0 -28 -16.5 -47.5t-50.5 -19.5q-20 0 -35 10.5t-31 30.5z" />
    <glyph glyph-name="otilde" unicode="&#xf5;" horiz-adv-x="586" 
d="M555 243q0 -60 -18.5 -108t-53 -81.5t-82.5 -51.5t-108 -18t-108 17.5t-82.5 51t-53 81.5t-18.5 109q0 59 19 107t53.5 81.5t82.5 51.5t107 18t107 -18.5t82.5 -52t53.5 -81.5t19 -106zM293 368q-42 0 -65 -32.5t-23 -92.5q0 -63 23 -94.5t65 -31.5t65 32t23 94
q0 60 -23 92.5t-65 32.5zM207 715q21 0 41 -4.5t38.5 -10t34 -10t27.5 -4.5q22 0 34 13t17 22h4q32 0 55 -22.5t23 -57.5q0 -45 -28 -66t-70 -21q-24 0 -44.5 4.5t-37.5 10t-32 10t-27 4.5q-22 0 -33.5 -12.5t-17.5 -22.5h-4q-31 0 -54.5 22t-23.5 58q0 22 8.5 38.5
t22.5 27.5t31.5 16t35.5 5z" />
    <glyph glyph-name="odieresis" unicode="&#xf6;" horiz-adv-x="586" 
d="M555 243q0 -60 -18.5 -108t-53 -81.5t-82.5 -51.5t-108 -18t-108 17.5t-82.5 51t-53 81.5t-18.5 109q0 59 19 107t53.5 81.5t82.5 51.5t107 18t107 -18.5t82.5 -52t53.5 -81.5t19 -106zM293 368q-42 0 -65 -32.5t-23 -92.5q0 -63 23 -94.5t65 -31.5t65 32t23 94
q0 60 -23 92.5t-65 32.5zM269 630q0 -35 -23.5 -58.5t-61.5 -23.5t-61 23.5t-23 58.5t23 59t61 24t61.5 -24t23.5 -59zM484 630q0 -35 -23 -58.5t-61 -23.5t-61.5 23.5t-23.5 58.5t23.5 59t61.5 24t61 -24t23 -59z" />
    <glyph glyph-name="divide" unicode="&#xf7;" horiz-adv-x="525" 
d="M47 222q-7 11 -12 27.5t-5 36.5q0 37 17 53.5t44 16.5h387q6 -11 11.5 -29t5.5 -38q0 -37 -17 -52t-44 -15h-387zM186 120q0 34 21.5 57t57.5 23t57 -23t21 -57t-21 -56.5t-57 -22.5t-57.5 22.5t-21.5 56.5zM186 458q0 34 21.5 57t57.5 23t57 -23t21 -57t-21 -56.5
t-57 -22.5t-57.5 22.5t-21.5 56.5z" />
    <glyph glyph-name="oslash" unicode="&#xf8;" horiz-adv-x="586" 
d="M555 243q0 -60 -18.5 -108t-53 -81.5t-82.5 -51.5t-108 -18q-61 0 -109 18l-43 -63q-10 0 -21.5 4t-21.5 11t-16.5 15.5t-6.5 17.5q0 11 8 22l26 37q-38 34 -58 83.5t-20 113.5q0 59 19 107t53.5 81.5t82.5 51.5t107 18t110 -20l44 66q9 0 20.5 -3.5t21.5 -10t17 -15.5
t7 -19t-7 -21l-29 -42q37 -34 57.5 -83t20.5 -110zM393 243q0 32 -10 60l-122 -183q17 -5 32 -5q42 0 71 31t29 97zM293 370q-42 0 -71 -31.5t-29 -95.5q0 -35 9 -60l123 181q-15 6 -32 6z" />
    <glyph glyph-name="ugrave" unicode="&#xf9;" horiz-adv-x="582" 
d="M52 484q11 3 31.5 6t44.5 3q50 0 72 -16.5t22 -63.5v-220q0 -41 20 -58.5t58 -17.5q23 0 37.5 4t22.5 8v355q11 3 31.5 6t44.5 3q50 0 72 -16.5t22 -63.5v-309q0 -50 -42 -75q-35 -22 -83.5 -33.5t-105.5 -11.5q-54 0 -99.5 12t-78.5 37t-51 64.5t-18 95.5v291zM117 646
q-1 4 -1.5 11.5t-0.5 11.5q0 37 21 57.5t52 20.5q20 0 38.5 -8t35.5 -29l89 -111q-5 -35 -26 -52t-45 -17q-21 0 -35.5 6t-29.5 20z" />
    <glyph glyph-name="uacute" unicode="&#xfa;" horiz-adv-x="582" 
d="M52 484q11 3 31.5 6t44.5 3q50 0 72 -16.5t22 -63.5v-220q0 -41 20 -58.5t58 -17.5q23 0 37.5 4t22.5 8v355q11 3 31.5 6t44.5 3q50 0 72 -16.5t22 -63.5v-309q0 -50 -42 -75q-35 -22 -83.5 -33.5t-105.5 -11.5q-54 0 -99.5 12t-78.5 37t-51 64.5t-18 95.5v291zM355 752
q52 0 78 -22t26 -50q0 -23 -10 -38.5t-34 -35.5l-95 -78q-45 0 -67 21t-22 45q0 12 4.5 23t18.5 26z" />
    <glyph glyph-name="ucircumflex" unicode="&#xfb;" horiz-adv-x="582" 
d="M52 484q11 3 31.5 6t44.5 3q50 0 72 -16.5t22 -63.5v-220q0 -41 20 -58.5t58 -17.5q23 0 37.5 4t22.5 8v355q11 3 31.5 6t44.5 3q50 0 72 -16.5t22 -63.5v-309q0 -50 -42 -75q-35 -22 -83.5 -33.5t-105.5 -11.5q-54 0 -99.5 12t-78.5 37t-51 64.5t-18 95.5v291zM288 626
q-13 -15 -23.5 -26t-19.5 -21.5l-18 -21t-20 -23.5q-39 0 -62 17.5t-23 46.5q0 20 11 34.5t33 36.5l34 34q19 19 40.5 30.5t50.5 11.5q26 0 48 -10t51 -45l71 -87q0 -28 -16.5 -47.5t-50.5 -19.5q-20 0 -35 10.5t-31 30.5z" />
    <glyph glyph-name="udieresis" unicode="&#xfc;" horiz-adv-x="582" 
d="M52 484q11 3 31.5 6t44.5 3q50 0 72 -16.5t22 -63.5v-220q0 -41 20 -58.5t58 -17.5q23 0 37.5 4t22.5 8v355q11 3 31.5 6t44.5 3q50 0 72 -16.5t22 -63.5v-309q0 -50 -42 -75q-35 -22 -83.5 -33.5t-105.5 -11.5q-54 0 -99.5 12t-78.5 37t-51 64.5t-18 95.5v291zM265 630
q0 -35 -23.5 -58.5t-61.5 -23.5t-61 23.5t-23 58.5t23 59t61 24t61.5 -24t23.5 -59zM480 630q0 -35 -23 -58.5t-61 -23.5t-61.5 23.5t-23.5 58.5t23.5 59t61.5 24t61 -24t23 -59z" />
    <glyph glyph-name="yacute" unicode="&#xfd;" horiz-adv-x="551" 
d="M128 124q-11 25 -23.5 56t-26 71t-28 91.5t-30.5 118.5q14 14 37.5 24.5t51.5 10.5q35 0 58 -14.5t34 -54.5q20 -70 39.5 -138.5t39.5 -136.5h4q12 34 23.5 74t22.5 82.5t20.5 85t16.5 83.5q17 9 35 14t38 5q35 0 61 -15t26 -52q0 -40 -12.5 -95.5t-32.5 -115t-45 -116.5
t-50 -100q-57 -98 -104.5 -144.5t-96.5 -46.5q-40 0 -67 25t-32 65q32 27 64 61t56 69q-17 5 -36.5 23.5t-42.5 69.5zM306 752q52 0 78 -22t26 -50q0 -23 -10 -38.5t-34 -35.5l-95 -78q-45 0 -67 21t-22 45q0 12 4.5 23t18.5 26z" />
    <glyph glyph-name="thorn" unicode="&#xfe;" horiz-adv-x="587" 
d="M305 -15q-24 0 -44 3.5t-37 9.5v-165q-11 -3 -31.5 -6t-44.5 -3q-50 0 -72 16.5t-22 63.5v748q11 3 31.5 6t44.5 3q50 0 72 -16.5t22 -63.5v-94q18 5 40 9.5t48 4.5q50 0 94.5 -15t77.5 -46t52.5 -79t19.5 -115q0 -64 -19 -112.5t-53 -81.5t-79.5 -50t-99.5 -17zM279 119
q50 0 76.5 32t26.5 95q0 64 -26 93t-71 29q-13 0 -28.5 -3t-32.5 -11v-222q26 -13 55 -13z" />
    <glyph glyph-name="ydieresis" unicode="&#xff;" horiz-adv-x="551" 
d="M128 124q-11 25 -23.5 56t-26 71t-28 91.5t-30.5 118.5q14 14 37.5 24.5t51.5 10.5q35 0 58 -14.5t34 -54.5q20 -70 39.5 -138.5t39.5 -136.5h4q12 34 23.5 74t22.5 82.5t20.5 85t16.5 83.5q17 9 35 14t38 5q35 0 61 -15t26 -52q0 -40 -12.5 -95.5t-32.5 -115t-45 -116.5
t-50 -100q-57 -98 -104.5 -144.5t-96.5 -46.5q-40 0 -67 25t-32 65q32 27 64 61t56 69q-17 5 -36.5 23.5t-42.5 69.5zM248 630q0 -35 -23.5 -58.5t-61.5 -23.5t-61 23.5t-23 58.5t23 59t61 24t61.5 -24t23.5 -59zM463 630q0 -35 -23 -58.5t-61 -23.5t-61.5 23.5t-23.5 58.5
t23.5 59t61.5 24t61 -24t23 -59z" />
    <glyph glyph-name="Amacron" unicode="&#x100;" horiz-adv-x="627" 
d="M159 693q-5 11 -10.5 27.5t-5.5 34.5q0 37 15 51.5t40 14.5h265q8 -11 12 -27.5t4 -34.5q0 -37 -14.5 -51.5t-39.5 -14.5h-266zM403 126h-181q-10 -36 -17.5 -67t-14.5 -58q-14 -5 -29.5 -8.5t-37.5 -3.5q-51 0 -75.5 17.5t-24.5 48.5q0 14 4 28t9 33q7 27 19.5 67.5
t27.5 87t32 95t32 92t27.5 78t19.5 52.5q17 10 51.5 19t69.5 9q50 0 88.5 -14.5t49.5 -46.5q18 -51 39 -120t42 -142.5t41 -145t35 -126.5q-12 -14 -36 -22.5t-57 -8.5q-49 0 -68 16t-28 51zM314 459q-14 -41 -31 -91t-33 -107h124q-14 57 -28.5 107.5t-25.5 90.5h-6z" />
    <glyph glyph-name="amacron" unicode="&#x101;" horiz-adv-x="544" 
d="M260 108q17 0 37.5 3.5t30.5 9.5v80l-72 -6q-28 -2 -46 -12t-18 -30t15.5 -32.5t52.5 -12.5zM252 501q54 0 98.5 -11t76 -33.5t48.5 -57t17 -81.5v-224q0 -26 -14.5 -42.5t-34.5 -28.5q-65 -39 -183 -39q-53 0 -95.5 10t-73 30t-47 51t-16.5 72q0 69 41 106t127 46
l131 14v7q0 29 -25.5 41.5t-73.5 12.5q-37 0 -73.5 -8t-65.5 -20q-13 9 -22 27.5t-9 38.5q0 26 12.5 41.5t38.5 26.5q29 11 68.5 16t74.5 5zM129 564q-5 11 -10.5 27.5t-5.5 34.5q0 37 15 51.5t40 14.5h265q8 -11 12 -27.5t4 -34.5q0 -37 -14.5 -51.5t-39.5 -14.5h-266z" />
    <glyph glyph-name="Abreve" unicode="&#x102;" horiz-adv-x="627" 
d="M403 126h-181q-10 -36 -17.5 -67t-14.5 -58q-14 -5 -29.5 -8.5t-37.5 -3.5q-51 0 -75.5 17.5t-24.5 48.5q0 14 4 28t9 33q7 27 19.5 67.5t27.5 87t32 95t32 92t27.5 78t19.5 52.5q17 10 51.5 19t69.5 9q50 0 88.5 -14.5t49.5 -46.5q18 -51 39 -120t42 -142.5t41 -145
t35 -126.5q-12 -14 -36 -22.5t-57 -8.5q-49 0 -68 16t-28 51zM314 459q-14 -41 -31 -91t-33 -107h124q-14 57 -28.5 107.5t-25.5 90.5h-6zM317 786q31 0 50.5 15t25.5 37q5 1 9 1h9q41 0 60.5 -23t19.5 -49q0 -45 -45 -75.5t-129 -30.5t-129 30.5t-45 75.5q0 26 19.5 49
t60.5 23h9t9 -1q5 -22 25 -37t51 -15z" />
    <glyph glyph-name="abreve" unicode="&#x103;" horiz-adv-x="544" 
d="M260 108q17 0 37.5 3.5t30.5 9.5v80l-72 -6q-28 -2 -46 -12t-18 -30t15.5 -32.5t52.5 -12.5zM252 501q54 0 98.5 -11t76 -33.5t48.5 -57t17 -81.5v-224q0 -26 -14.5 -42.5t-34.5 -28.5q-65 -39 -183 -39q-53 0 -95.5 10t-73 30t-47 51t-16.5 72q0 69 41 106t127 46
l131 14v7q0 29 -25.5 41.5t-73.5 12.5q-37 0 -73.5 -8t-65.5 -20q-13 9 -22 27.5t-9 38.5q0 26 12.5 41.5t38.5 26.5q29 11 68.5 16t74.5 5zM271 678q31 0 50.5 15t25.5 37q5 1 9 1h9q41 0 60.5 -23t19.5 -49q0 -45 -45 -75.5t-129 -30.5t-129 30.5t-45 75.5q0 26 19.5 49
t60.5 23h9t9 -1q5 -22 25 -37t51 -15z" />
    <glyph glyph-name="Aogonek" unicode="&#x104;" horiz-adv-x="627" 
d="M403 126h-181q-10 -36 -17.5 -67t-14.5 -58q-14 -5 -29.5 -8.5t-37.5 -3.5q-51 0 -75.5 17.5t-24.5 48.5q0 14 4 28t9 33q7 27 19.5 67.5t27.5 87t32 95t32 92t27.5 78t19.5 52.5q17 10 51.5 19t69.5 9q50 0 88.5 -14.5t49.5 -46.5q18 -51 39 -120t42 -142.5t41 -145
t35 -126.5q-12 -15 -38 -23q-8 -8 -12.5 -17t-4.5 -23q0 -20 14 -32t40 -12h5q3 -9 5 -19t2 -23q0 -14 -4.5 -27.5t-16 -24t-29.5 -16.5t-45 -6q-55 0 -90.5 27.5t-35.5 78.5q0 35 16.5 62.5t34.5 38.5q-12 8 -18.5 21t-11.5 31zM314 459q-14 -41 -31 -91t-33 -107h124
q-14 57 -28.5 107.5t-25.5 90.5h-6z" />
    <glyph glyph-name="aogonek" unicode="&#x105;" horiz-adv-x="544" 
d="M252 501q54 0 98.5 -11t76 -33.5t48.5 -57t17 -81.5v-224q0 -25 -13 -40.5t-30 -27.5q-17 -14 -27.5 -29.5t-10.5 -38.5q0 -20 14 -32t40 -12h5q3 -9 5 -19t2 -23q0 -14 -4.5 -27.5t-16 -24t-29.5 -16.5t-45 -6q-55 0 -90.5 27.5t-35.5 78.5q0 27 11 47t25 34
q-8 -1 -16 -1h-16q-53 0 -95.5 10t-73 30t-47 51t-16.5 72q0 69 41 106t127 46l131 14v7q0 29 -25.5 41.5t-73.5 12.5q-37 0 -73.5 -8t-65.5 -20q-13 9 -22 27.5t-9 38.5q0 26 12.5 41.5t38.5 26.5q29 11 68.5 16t74.5 5zM260 108q17 0 37.5 3.5t30.5 9.5v80l-72 -6
q-28 -2 -46 -12t-18 -30t15.5 -32.5t52.5 -12.5z" />
    <glyph glyph-name="Cacute" unicode="&#x106;" horiz-adv-x="571" 
d="M541 518q0 -26 -13 -45t-30 -30q-26 17 -55.5 29t-68.5 12q-77 0 -118 -47.5t-41 -133.5q0 -89 44.5 -134.5t123.5 -45.5q41 0 69.5 11t54.5 25q17 -14 26.5 -33.5t9.5 -45.5q0 -23 -12 -42t-41 -32q-18 -8 -51 -16t-80 -8q-68 0 -127 19t-103 58t-69 99.5t-25 144.5
q0 78 24.5 138t67 101t99.5 62t122 21q92 0 142.5 -30t50.5 -77zM391 846q42 0 65.5 -20.5t23.5 -50.5q0 -20 -9.5 -36t-37.5 -33l-100 -58q-40 0 -60.5 18t-20.5 42q0 12 3.5 23t19.5 25z" />
    <glyph glyph-name="cacute" unicode="&#x107;" horiz-adv-x="489" 
d="M326 367q-25 0 -47.5 -8t-39 -24t-26.5 -39.5t-10 -54.5q0 -62 35 -92t87 -30q30 0 53 7.5t40 15.5q19 -14 28.5 -30t9.5 -39q0 -40 -39.5 -64t-112.5 -24q-63 0 -113.5 16.5t-86 49t-54.5 80t-19 110.5q0 66 21.5 115t58.5 81t85.5 48t102.5 16q72 0 111 -26t39 -67
q0 -19 -9 -35.5t-21 -28.5q-17 8 -41 15.5t-52 7.5zM326 752q52 0 78 -22t26 -50q0 -23 -10 -38.5t-34 -35.5l-95 -78q-45 0 -67 21t-22 45q0 12 4.5 23t18.5 26z" />
    <glyph glyph-name="Ccircumflex" unicode="&#x108;" horiz-adv-x="571" 
d="M541 518q0 -26 -13 -45t-30 -30q-26 17 -55.5 29t-68.5 12q-77 0 -118 -47.5t-41 -133.5q0 -89 44.5 -134.5t123.5 -45.5q41 0 69.5 11t54.5 25q17 -14 26.5 -33.5t9.5 -45.5q0 -23 -12 -42t-41 -32q-18 -8 -51 -16t-80 -8q-68 0 -127 19t-103 58t-69 99.5t-25 144.5
q0 78 24.5 138t67 101t99.5 62t122 21q92 0 142.5 -30t50.5 -77zM335 734q-24 -23 -48 -45t-46 -40q-31 0 -52 18t-21 45q0 21 10 36t37 36l29 22q29 22 51 31.5t42 9.5q26 0 47 -9.5t44 -32.5l81 -81q0 -36 -18.5 -54t-50.5 -18q-20 0 -37 13t-41 39z" />
    <glyph glyph-name="ccircumflex" unicode="&#x109;" horiz-adv-x="489" 
d="M326 367q-25 0 -47.5 -8t-39 -24t-26.5 -39.5t-10 -54.5q0 -62 35 -92t87 -30q30 0 53 7.5t40 15.5q19 -14 28.5 -30t9.5 -39q0 -40 -39.5 -64t-112.5 -24q-63 0 -113.5 16.5t-86 49t-54.5 80t-19 110.5q0 66 21.5 115t58.5 81t85.5 48t102.5 16q72 0 111 -26t39 -67
q0 -19 -9 -35.5t-21 -28.5q-17 8 -41 15.5t-52 7.5zM274 626q-13 -15 -23.5 -26t-19.5 -21.5l-18 -21t-20 -23.5q-39 0 -62 17.5t-23 46.5q0 20 11 34.5t33 36.5l34 34q19 19 40.5 30.5t50.5 11.5q26 0 48 -10t51 -45l71 -87q0 -28 -16.5 -47.5t-50.5 -19.5q-20 0 -35 10.5
t-31 30.5z" />
    <glyph glyph-name="Cdotaccent" unicode="&#x10a;" horiz-adv-x="571" 
d="M541 518q0 -26 -13 -45t-30 -30q-26 17 -55.5 29t-68.5 12q-77 0 -118 -47.5t-41 -133.5q0 -89 44.5 -134.5t123.5 -45.5q41 0 69.5 11t54.5 25q17 -14 26.5 -33.5t9.5 -45.5q0 -23 -12 -42t-41 -32q-18 -8 -51 -16t-80 -8q-68 0 -127 19t-103 58t-69 99.5t-25 144.5
q0 78 24.5 138t67 101t99.5 62t122 21q92 0 142.5 -30t50.5 -77zM429 760q0 -37 -24.5 -62t-65.5 -25t-65.5 25t-24.5 62t24.5 62t65.5 25t65.5 -25t24.5 -62z" />
    <glyph glyph-name="cdotaccent" unicode="&#x10b;" horiz-adv-x="489" 
d="M326 367q-25 0 -47.5 -8t-39 -24t-26.5 -39.5t-10 -54.5q0 -62 35 -92t87 -30q30 0 53 7.5t40 15.5q19 -14 28.5 -30t9.5 -39q0 -40 -39.5 -64t-112.5 -24q-63 0 -113.5 16.5t-86 49t-54.5 80t-19 110.5q0 66 21.5 115t58.5 81t85.5 48t102.5 16q72 0 111 -26t39 -67
q0 -19 -9 -35.5t-21 -28.5q-17 8 -41 15.5t-52 7.5zM368 632q0 -37 -24.5 -62t-65.5 -25t-65.5 25t-24.5 62t24.5 62t65.5 25t65.5 -25t24.5 -62z" />
    <glyph glyph-name="Ccaron" unicode="&#x10c;" horiz-adv-x="571" 
d="M541 518q0 -26 -13 -45t-30 -30q-26 17 -55.5 29t-68.5 12q-77 0 -118 -47.5t-41 -133.5q0 -89 44.5 -134.5t123.5 -45.5q41 0 69.5 11t54.5 25q17 -14 26.5 -33.5t9.5 -45.5q0 -23 -12 -42t-41 -32q-18 -8 -51 -16t-80 -8q-68 0 -127 19t-103 58t-69 99.5t-25 144.5
q0 78 24.5 138t67 101t99.5 62t122 21q92 0 142.5 -30t50.5 -77zM340 762q25 23 49 45t46 40q32 0 53 -18t21 -46q0 -21 -10 -36.5t-38 -36.5l-28 -21q-29 -22 -49 -30.5t-44 -8.5q-30 0 -52 11.5t-42 29.5l-83 75q0 37 17.5 57.5t49.5 20.5q20 0 37.5 -10.5t45.5 -41.5z
" />
    <glyph glyph-name="ccaron" unicode="&#x10d;" horiz-adv-x="489" 
d="M326 367q-25 0 -47.5 -8t-39 -24t-26.5 -39.5t-10 -54.5q0 -62 35 -92t87 -30q30 0 53 7.5t40 15.5q19 -14 28.5 -30t9.5 -39q0 -40 -39.5 -64t-112.5 -24q-63 0 -113.5 16.5t-86 49t-54.5 80t-19 110.5q0 66 21.5 115t58.5 81t85.5 48t102.5 16q72 0 111 -26t39 -67
q0 -19 -9 -35.5t-21 -28.5q-17 8 -41 15.5t-52 7.5zM273 656l90 84q39 0 62 -18.5t23 -47.5q0 -22 -11.5 -36.5t-36.5 -34.5l-45 -37q-20 -17 -39.5 -24t-39.5 -7q-14 0 -25 2t-22.5 7t-25.5 15t-33 27l-74 64q-1 5 -1.5 9t-0.5 9q0 26 15.5 48t48.5 22q10 0 18.5 -1.5
t17.5 -7t20 -14.5t25 -24z" />
    <glyph glyph-name="Dcaron" unicode="&#x10e;" horiz-adv-x="666" 
d="M451 301q0 90 -42 135.5t-112 45.5q-14 0 -28.5 -1t-29.5 -3v-348q11 -2 27 -3.5t30 -1.5q69 0 112 44t43 132zM631 304q0 -80 -24 -140t-68.5 -100t-106.5 -60t-137 -20q-17 0 -39 1t-45.5 4t-47 7.5t-43.5 12.5q-55 21 -55 73v467q0 21 11.5 32.5t31.5 18.5
q43 14 91 18.5t86 4.5q78 0 141.5 -19t109 -58.5t70.5 -99.5t25 -142zM339 762q25 23 49 45t46 40q32 0 53 -18t21 -46q0 -21 -10 -36.5t-38 -36.5l-28 -21q-29 -22 -49 -30.5t-44 -8.5q-30 0 -52 11.5t-42 29.5l-83 75q0 37 17.5 57.5t49.5 20.5q20 0 37.5 -10.5
t45.5 -41.5z" />
    <glyph glyph-name="dcaron" unicode="&#x10f;" horiz-adv-x="772" 
d="M288 501q43 0 74 -11v162q11 3 31.5 6t44.5 3q50 0 72 -16.5t22 -63.5v-474q0 -47 -44 -75q-29 -19 -74.5 -33.5t-105.5 -14.5q-131 0 -204 64.5t-73 192.5q0 66 20 115t54.5 81t81.5 48t101 16zM363 357q-11 5 -24 8t-27 3q-52 0 -80.5 -31.5t-28.5 -95.5q0 -63 27 -93
t77 -30q18 0 33 4t23 9v226zM715 493q-17 -18 -36.5 -25.5t-42.5 -7.5q-38 0 -64 23q21 42 31.5 81.5t15.5 78.5q16 8 37.5 14.5t43.5 6.5q32 0 52 -12t20 -40q0 -12 -5.5 -28.5t-13.5 -33t-18 -32t-20 -25.5z" />
    <glyph glyph-name="Dcroat" unicode="&#x110;" horiz-adv-x="700" 
d="M665 304q0 -80 -24 -140t-68.5 -100t-106.5 -60t-137 -20q-17 0 -39 1t-45.5 4t-47 7.5t-43.5 12.5q-55 21 -55 73v156h-66q-7 11 -12.5 28t-5.5 38q0 37 16 53.5t44 16.5h24v175q0 21 11.5 32.5t31.5 18.5q43 14 91 18.5t86 4.5q78 0 141.5 -19t109 -58.5t70.5 -99.5
t25 -142zM485 301q0 90 -42 135.5t-112 45.5q-14 0 -28.5 -1t-29.5 -3v-104h88q7 -11 12.5 -28t5.5 -38q0 -37 -16 -53.5t-44 -16.5h-46v-108q11 -2 27 -3.5t30 -1.5q69 0 112 44t43 132z" />
    <glyph glyph-name="dcroat" unicode="&#x111;" horiz-adv-x="592" 
d="M532 107q0 -47 -44 -75q-29 -19 -74.5 -33.5t-105.5 -14.5q-131 0 -204 64.5t-73 192.5q0 66 20 115t54.5 81t81.5 48t101 16q43 0 74 -11v40h-71q-5 8 -9 20t-4 26q0 25 11 36t31 11h42v59q11 3 31.5 6t44.5 3q46 0 68.5 -14.5t24.5 -53.5h50q4 -7 8.5 -19t4.5 -26
q0 -25 -11 -36.5t-31 -11.5h-20v-423zM363 357q-11 5 -24 8t-27 3q-52 0 -80.5 -31.5t-28.5 -95.5q0 -63 27 -93t77 -30q18 0 33 4t23 9v226z" />
    <glyph glyph-name="Emacron" unicode="&#x112;" horiz-adv-x="548" 
d="M158 -3q-43 0 -68 25t-25 68v423q0 43 25 68t68 25h330q7 -11 12.5 -28t5.5 -38q0 -37 -16 -54t-44 -17h-211v-93h225q7 -11 12.5 -28t5.5 -38q0 -37 -16 -53.5t-44 -16.5h-183v-105h257q7 -11 12.5 -29t5.5 -39q0 -37 -16 -53.5t-44 -16.5h-292zM149 693
q-5 11 -10.5 27.5t-5.5 34.5q0 37 15 51.5t40 14.5h265q8 -11 12 -27.5t4 -34.5q0 -37 -14.5 -51.5t-39.5 -14.5h-266z" />
    <glyph glyph-name="emacron" unicode="&#x113;" horiz-adv-x="549" 
d="M198 176q14 -36 47 -50.5t74 -14.5q42 0 80 10.5t61 24.5q16 -10 27 -28t11 -38q0 -25 -14 -43t-39.5 -30t-60.5 -17.5t-77 -5.5q-59 0 -109.5 16.5t-87.5 49.5t-58 83t-21 117q0 66 21.5 113.5t57 78t80.5 45t92 14.5q53 0 96.5 -16t75 -44t48.5 -67t17 -85
q0 -34 -19 -52t-53 -23zM283 377q-38 0 -63.5 -23t-30.5 -65l170 28q-1 10 -6 20.5t-14 19.5t-23 14.5t-33 5.5zM131 564q-5 11 -10.5 27.5t-5.5 34.5q0 37 15 51.5t40 14.5h265q8 -11 12 -27.5t4 -34.5q0 -37 -14.5 -51.5t-39.5 -14.5h-266z" />
    <glyph glyph-name="Ebreve" unicode="&#x114;" horiz-adv-x="548" 
d="M158 -3q-43 0 -68 25t-25 68v423q0 43 25 68t68 25h330q7 -11 12.5 -28t5.5 -38q0 -37 -16 -54t-44 -17h-211v-93h225q7 -11 12.5 -28t5.5 -38q0 -37 -16 -53.5t-44 -16.5h-183v-105h257q7 -11 12.5 -29t5.5 -39q0 -37 -16 -53.5t-44 -16.5h-292zM297 796q31 0 50.5 15
t25.5 37q5 1 9 1h9q41 0 60.5 -23t19.5 -49q0 -45 -45 -75.5t-129 -30.5t-129 30.5t-45 75.5q0 26 19.5 49t60.5 23h9t9 -1q5 -22 25 -37t51 -15z" />
    <glyph glyph-name="ebreve" unicode="&#x115;" horiz-adv-x="549" 
d="M198 176q14 -36 47 -50.5t74 -14.5q42 0 80 10.5t61 24.5q16 -10 27 -28t11 -38q0 -25 -14 -43t-39.5 -30t-60.5 -17.5t-77 -5.5q-59 0 -109.5 16.5t-87.5 49.5t-58 83t-21 117q0 66 21.5 113.5t57 78t80.5 45t92 14.5q53 0 96.5 -16t75 -44t48.5 -67t17 -85
q0 -34 -19 -52t-53 -23zM283 377q-38 0 -63.5 -23t-30.5 -65l170 28q-1 10 -6 20.5t-14 19.5t-23 14.5t-33 5.5zM290 678q31 0 50.5 15t25.5 37q5 1 9 1h9q41 0 60.5 -23t19.5 -49q0 -45 -45 -75.5t-129 -30.5t-129 30.5t-45 75.5q0 26 19.5 49t60.5 23h9t9 -1q5 -22 25 -37
t51 -15z" />
    <glyph glyph-name="Edotaccent" unicode="&#x116;" horiz-adv-x="548" 
d="M158 -3q-43 0 -68 25t-25 68v423q0 43 25 68t68 25h330q7 -11 12.5 -28t5.5 -38q0 -37 -16 -54t-44 -17h-211v-93h225q7 -11 12.5 -28t5.5 -38q0 -37 -16 -53.5t-44 -16.5h-183v-105h257q7 -11 12.5 -29t5.5 -39q0 -37 -16 -53.5t-44 -16.5h-292zM387 760
q0 -37 -24.5 -62t-65.5 -25t-65.5 25t-24.5 62t24.5 62t65.5 25t65.5 -25t24.5 -62z" />
    <glyph glyph-name="edotaccent" unicode="&#x117;" horiz-adv-x="549" 
d="M198 176q14 -36 47 -50.5t74 -14.5q42 0 80 10.5t61 24.5q16 -10 27 -28t11 -38q0 -25 -14 -43t-39.5 -30t-60.5 -17.5t-77 -5.5q-59 0 -109.5 16.5t-87.5 49.5t-58 83t-21 117q0 66 21.5 113.5t57 78t80.5 45t92 14.5q53 0 96.5 -16t75 -44t48.5 -67t17 -85
q0 -34 -19 -52t-53 -23zM283 377q-38 0 -63.5 -23t-30.5 -65l170 28q-1 10 -6 20.5t-14 19.5t-23 14.5t-33 5.5zM376 632q0 -37 -24.5 -62t-65.5 -25t-65.5 25t-24.5 62t24.5 62t65.5 25t65.5 -25t24.5 -62z" />
    <glyph glyph-name="Eogonek" unicode="&#x118;" horiz-adv-x="548" 
d="M158 -3q-43 0 -68 25t-25 68v423q0 43 25 68t68 25h330q7 -11 12.5 -28t5.5 -38q0 -37 -16 -54t-44 -17h-211v-93h225q7 -11 12.5 -28t5.5 -38q0 -37 -16 -53.5t-44 -16.5h-183v-105h257q7 -11 12.5 -29t5.5 -39q0 -35 -14.5 -51.5t-39.5 -18.5q-16 -16 -16 -39
q0 -20 14 -32t40 -12h5q3 -9 5 -19t2 -23q0 -14 -4.5 -27.5t-16 -24t-29.5 -16.5t-45 -6q-55 0 -90.5 27.5t-35.5 78.5q0 32 13.5 56t30.5 37h-171v0z" />
    <glyph glyph-name="eogonek" unicode="&#x119;" horiz-adv-x="549" 
d="M198 176q14 -36 47 -50.5t74 -14.5q42 0 80 10.5t61 24.5q16 -10 27 -28t11 -38q0 -32 -22.5 -52t-60.5 -31q-16 -16 -16 -39q0 -20 14 -32t40 -12h5q3 -9 5 -19t2 -23q0 -14 -4.5 -27.5t-16 -24t-29.5 -16.5t-45 -6q-55 0 -90.5 27.5t-35.5 78.5q0 26 9 46.5t22 34.5
q-53 4 -97.5 23t-77 52t-51 80.5t-18.5 109.5q0 66 21.5 113.5t57 78t80.5 45t92 14.5q53 0 96.5 -16t75 -44t48.5 -67t17 -85q0 -34 -19 -52t-53 -23zM283 377q-38 0 -63.5 -23t-30.5 -65l170 28q-1 10 -6 20.5t-14 19.5t-23 14.5t-33 5.5z" />
    <glyph glyph-name="Ecaron" unicode="&#x11a;" horiz-adv-x="548" 
d="M158 -3q-43 0 -68 25t-25 68v423q0 43 25 68t68 25h330q7 -11 12.5 -28t5.5 -38q0 -37 -16 -54t-44 -17h-211v-93h225q7 -11 12.5 -28t5.5 -38q0 -37 -16 -53.5t-44 -16.5h-183v-105h257q7 -11 12.5 -29t5.5 -39q0 -37 -16 -53.5t-44 -16.5h-292zM296 762q25 23 49 45
t46 40q32 0 53 -18t21 -46q0 -21 -10 -36.5t-38 -36.5l-28 -21q-29 -22 -49 -30.5t-44 -8.5q-30 0 -52 11.5t-42 29.5l-83 75q0 37 17.5 57.5t49.5 20.5q20 0 37.5 -10.5t45.5 -41.5z" />
    <glyph glyph-name="ecaron" unicode="&#x11b;" horiz-adv-x="549" 
d="M198 176q14 -36 47 -50.5t74 -14.5q42 0 80 10.5t61 24.5q16 -10 27 -28t11 -38q0 -25 -14 -43t-39.5 -30t-60.5 -17.5t-77 -5.5q-59 0 -109.5 16.5t-87.5 49.5t-58 83t-21 117q0 66 21.5 113.5t57 78t80.5 45t92 14.5q53 0 96.5 -16t75 -44t48.5 -67t17 -85
q0 -34 -19 -52t-53 -23zM283 377q-38 0 -63.5 -23t-30.5 -65l170 28q-1 10 -6 20.5t-14 19.5t-23 14.5t-33 5.5zM290 656l90 84q39 0 62 -18.5t23 -47.5q0 -22 -11.5 -36.5t-36.5 -34.5l-45 -37q-20 -17 -39.5 -24t-39.5 -7q-14 0 -25 2t-22.5 7t-25.5 15t-33 27l-74 64
q-1 5 -1.5 9t-0.5 9q0 26 15.5 48t48.5 22q10 0 18.5 -1.5t17.5 -7t20 -14.5t25 -24z" />
    <glyph glyph-name="Gcircumflex" unicode="&#x11c;" horiz-adv-x="664" 
d="M614 97q0 -31 -11 -46t-35 -29q-14 -8 -35 -15.5t-46 -13t-52.5 -8.5t-54.5 -3q-72 0 -135 18.5t-109.5 57.5t-73.5 99.5t-27 144.5q0 79 27 139t74 101t110 62t136 21q95 0 150.5 -30t55.5 -79q0 -26 -13 -45t-30 -30q-25 15 -63 29t-87 14q-40 0 -73 -13t-57 -36.5
t-37 -57t-13 -74.5q0 -45 12.5 -79t35 -56.5t53 -34t67.5 -11.5q22 0 38.5 4t25.5 9v96h-107q-6 11 -11.5 29t-5.5 38q0 36 16.5 52t42.5 16h169q30 0 46.5 -16.5t16.5 -46.5v-206zM355 734q-24 -23 -48 -45t-46 -40q-31 0 -52 18t-21 45q0 21 10 36t37 36l29 22
q29 22 51 31.5t42 9.5q26 0 47 -9.5t44 -32.5l81 -81q0 -36 -18.5 -54t-50.5 -18q-20 0 -37 13t-41 39z" />
    <glyph glyph-name="gcircumflex" unicode="&#x11d;" horiz-adv-x="567" 
d="M354 37q-20 -8 -44.5 -12.5t-54.5 -4.5q-45 0 -85.5 12.5t-71 41t-48.5 73.5t-18 110q0 60 18.5 105.5t52 76.5t81.5 46.5t107 15.5q28 0 55 -4t50.5 -11t42.5 -15t32 -17q20 -14 31.5 -31.5t11.5 -44.5v-371q0 -53 -19.5 -91.5t-54 -64t-81 -37.5t-99.5 -12
q-54 0 -95 8.5t-65 24.5q-36 24 -36 68q0 23 9.5 42t21.5 28q29 -16 65.5 -27t76.5 -11q53 0 85 18t32 58v26zM287 147q20 0 35.5 4.5t28.5 12.5v192q-11 5 -22.5 8.5t-30.5 3.5q-43 0 -70 -26.5t-27 -85.5q0 -63 24.5 -86t61.5 -23zM290 626q-13 -15 -23.5 -26t-19.5 -21.5
l-18 -21t-20 -23.5q-39 0 -62 17.5t-23 46.5q0 20 11 34.5t33 36.5l34 34q19 19 40.5 30.5t50.5 11.5q26 0 48 -10t51 -45l71 -87q0 -28 -16.5 -47.5t-50.5 -19.5q-20 0 -35 10.5t-31 30.5z" />
    <glyph glyph-name="Gbreve" unicode="&#x11e;" horiz-adv-x="664" 
d="M614 97q0 -31 -11 -46t-35 -29q-14 -8 -35 -15.5t-46 -13t-52.5 -8.5t-54.5 -3q-72 0 -135 18.5t-109.5 57.5t-73.5 99.5t-27 144.5q0 79 27 139t74 101t110 62t136 21q95 0 150.5 -30t55.5 -79q0 -26 -13 -45t-30 -30q-25 15 -63 29t-87 14q-40 0 -73 -13t-57 -36.5
t-37 -57t-13 -74.5q0 -45 12.5 -79t35 -56.5t53 -34t67.5 -11.5q22 0 38.5 4t25.5 9v96h-107q-6 11 -11.5 29t-5.5 38q0 36 16.5 52t42.5 16h169q30 0 46.5 -16.5t16.5 -46.5v-206zM349 796q31 0 50.5 15t25.5 37q5 1 9 1h9q41 0 60.5 -23t19.5 -49q0 -45 -45 -75.5
t-129 -30.5t-129 30.5t-45 75.5q0 26 19.5 49t60.5 23h9t9 -1q5 -22 25 -37t51 -15z" />
    <glyph glyph-name="gbreve" unicode="&#x11f;" horiz-adv-x="567" 
d="M354 37q-20 -8 -44.5 -12.5t-54.5 -4.5q-45 0 -85.5 12.5t-71 41t-48.5 73.5t-18 110q0 60 18.5 105.5t52 76.5t81.5 46.5t107 15.5q28 0 55 -4t50.5 -11t42.5 -15t32 -17q20 -14 31.5 -31.5t11.5 -44.5v-371q0 -53 -19.5 -91.5t-54 -64t-81 -37.5t-99.5 -12
q-54 0 -95 8.5t-65 24.5q-36 24 -36 68q0 23 9.5 42t21.5 28q29 -16 65.5 -27t76.5 -11q53 0 85 18t32 58v26zM287 147q20 0 35.5 4.5t28.5 12.5v192q-11 5 -22.5 8.5t-30.5 3.5q-43 0 -70 -26.5t-27 -85.5q0 -63 24.5 -86t61.5 -23zM283 678q31 0 50.5 15t25.5 37q5 1 9 1
h9q41 0 60.5 -23t19.5 -49q0 -45 -45 -75.5t-129 -30.5t-129 30.5t-45 75.5q0 26 19.5 49t60.5 23h9t9 -1q5 -22 25 -37t51 -15z" />
    <glyph glyph-name="Gdotaccent" unicode="&#x120;" horiz-adv-x="664" 
d="M614 97q0 -31 -11 -46t-35 -29q-14 -8 -35 -15.5t-46 -13t-52.5 -8.5t-54.5 -3q-72 0 -135 18.5t-109.5 57.5t-73.5 99.5t-27 144.5q0 79 27 139t74 101t110 62t136 21q95 0 150.5 -30t55.5 -79q0 -26 -13 -45t-30 -30q-25 15 -63 29t-87 14q-40 0 -73 -13t-57 -36.5
t-37 -57t-13 -74.5q0 -45 12.5 -79t35 -56.5t53 -34t67.5 -11.5q22 0 38.5 4t25.5 9v96h-107q-6 11 -11.5 29t-5.5 38q0 36 16.5 52t42.5 16h169q30 0 46.5 -16.5t16.5 -46.5v-206zM461 760q0 -37 -24.5 -62t-65.5 -25t-65.5 25t-24.5 62t24.5 62t65.5 25t65.5 -25t24.5 -62
z" />
    <glyph glyph-name="gdotaccent" unicode="&#x121;" horiz-adv-x="567" 
d="M354 37q-20 -8 -44.5 -12.5t-54.5 -4.5q-45 0 -85.5 12.5t-71 41t-48.5 73.5t-18 110q0 60 18.5 105.5t52 76.5t81.5 46.5t107 15.5q28 0 55 -4t50.5 -11t42.5 -15t32 -17q20 -14 31.5 -31.5t11.5 -44.5v-371q0 -53 -19.5 -91.5t-54 -64t-81 -37.5t-99.5 -12
q-54 0 -95 8.5t-65 24.5q-36 24 -36 68q0 23 9.5 42t21.5 28q29 -16 65.5 -27t76.5 -11q53 0 85 18t32 58v26zM287 147q20 0 35.5 4.5t28.5 12.5v192q-11 5 -22.5 8.5t-30.5 3.5q-43 0 -70 -26.5t-27 -85.5q0 -63 24.5 -86t61.5 -23zM376 632q0 -37 -24.5 -62t-65.5 -25
t-65.5 25t-24.5 62t24.5 62t65.5 25t65.5 -25t24.5 -62z" />
    <glyph glyph-name="Gcommaaccent" unicode="&#x122;" horiz-adv-x="664" 
d="M614 97q0 -31 -11 -46t-35 -29q-14 -8 -35 -15.5t-46 -13t-52.5 -8.5t-54.5 -3q-72 0 -135 18.5t-109.5 57.5t-73.5 99.5t-27 144.5q0 79 27 139t74 101t110 62t136 21q95 0 150.5 -30t55.5 -79q0 -26 -13 -45t-30 -30q-25 15 -63 29t-87 14q-40 0 -73 -13t-57 -36.5
t-37 -57t-13 -74.5q0 -45 12.5 -79t35 -56.5t53 -34t67.5 -11.5q22 0 38.5 4t25.5 9v96h-107q-6 11 -11.5 29t-5.5 38q0 36 16.5 52t42.5 16h169q30 0 46.5 -16.5t16.5 -46.5v-206zM384 -223q-17 -18 -36.5 -25.5t-42.5 -7.5q-38 0 -64 23q21 42 31.5 81.5t15.5 78.5
q16 8 37.5 14.5t43.5 6.5q32 0 52 -12t20 -40q0 -12 -5.5 -28.5t-13.5 -33t-18 -32t-20 -25.5z" />
    <glyph glyph-name="gcommaaccent" unicode="&#x123;" horiz-adv-x="567" 
d="M270 717q17 17 34 23t37 6t38.5 -6.5t32.5 -16.5q-21 -42 -32 -81.5t-16 -78.5q-16 -9 -35.5 -15.5t-41.5 -6.5q-35 0 -55 11.5t-20 35.5q0 14 5 32t13 36t18.5 34t21.5 27zM354 37q-20 -8 -44.5 -12.5t-54.5 -4.5q-45 0 -85.5 12.5t-71 41t-48.5 73.5t-18 110
q0 60 18.5 105.5t52 76.5t81.5 46.5t107 15.5q28 0 55 -4t50.5 -11t42.5 -15t32 -17q20 -14 31.5 -31.5t11.5 -44.5v-371q0 -53 -19.5 -91.5t-54 -64t-81 -37.5t-99.5 -12q-54 0 -95 8.5t-65 24.5q-36 24 -36 68q0 23 9.5 42t21.5 28q29 -16 65.5 -27t76.5 -11q53 0 85 18
t32 58v26zM287 147q20 0 35.5 4.5t28.5 12.5v192q-11 5 -22.5 8.5t-30.5 3.5q-43 0 -70 -26.5t-27 -85.5q0 -63 24.5 -86t61.5 -23z" />
    <glyph glyph-name="Hcircumflex" unicode="&#x124;" horiz-adv-x="672" 
d="M256 1q-11 -3 -34 -6t-47 -3q-53 0 -73.5 18t-20.5 65v533q12 2 35 5.5t46 3.5q50 0 72 -17t22 -66v-162h192v236q12 2 35 5.5t46 3.5q50 0 72 -18t22 -67v-531q-11 -3 -34 -6t-47 -3q-53 0 -73.5 18t-20.5 65v159h-192v-233zM339 734q-24 -23 -48 -45t-46 -40
q-31 0 -52 18t-21 45q0 21 10 36t37 36l29 22q29 22 51 31.5t42 9.5q26 0 47 -9.5t44 -32.5l81 -81q0 -36 -18.5 -54t-50.5 -18q-20 0 -37 13t-41 39z" />
    <glyph glyph-name="hcircumflex" unicode="&#x125;" horiz-adv-x="585" 
d="M554 1q-11 -3 -31.5 -6t-44.5 -3q-50 0 -72 16.5t-22 63.5v222q0 41 -20.5 57.5t-50.5 16.5q-20 0 -36.5 -5t-30.5 -13v-349q-11 -3 -31.5 -6t-44.5 -3q-50 0 -72 16.5t-22 63.5v580q11 3 31.5 6t44.5 3q50 0 72 -16.5t22 -63.5v-99q20 8 45 13.5t54 5.5q99 0 154 -49.5
t55 -147.5v-303zM148 744q-24 -23 -48 -45t-46 -40q-31 0 -52 18t-21 45q0 21 10 36t37 36l29 22q29 22 51 31.5t42 9.5q26 0 47 -9.5t44 -32.5l81 -81q0 -36 -18.5 -54t-50.5 -18q-20 0 -37 13t-41 39z" />
    <glyph glyph-name="Hbar" unicode="&#x126;" horiz-adv-x="701" 
d="M255 1q-11 -3 -34 -6t-47 -3q-53 0 -73.5 18t-20.5 65v357h-47q-5 8 -9 20t-4 26q0 25 11 36t31 11h18v83q12 2 35 5.5t46 3.5q50 0 72 -17t22 -66v-9h192v83q12 2 35 5.5t46 3.5q50 0 72 -18t22 -67v-7h46q4 -7 8.5 -19t4.5 -26q0 -25 -11 -36.5t-31 -11.5h-17v-431
q-11 -3 -34 -6t-47 -3q-53 0 -73.5 18t-20.5 65v159h-192v-233zM447 372v60h-192v-60h192z" />
    <glyph glyph-name="hbar" unicode="&#x127;" horiz-adv-x="591" 
d="M224 1q-11 -3 -31.5 -6t-44.5 -3q-50 0 -72 16.5t-22 63.5v458h-41q-4 7 -8.5 19t-4.5 26q0 25 11 36.5t31 11.5h12v59q11 3 31.5 6t44.5 3q46 0 68.5 -14.5t24.5 -53.5h80q5 -8 9 -20t4 -26q0 -25 -11 -36t-31 -11h-50v-48q20 8 45 13.5t54 5.5q99 0 154 -49.5
t55 -147.5v-303q-11 -3 -31.5 -6t-44.5 -3q-50 0 -72 16.5t-22 63.5v222q0 41 -20.5 57.5t-50.5 16.5q-20 0 -36.5 -5t-30.5 -13v-349v0z" />
    <glyph glyph-name="Itilde" unicode="&#x128;" horiz-adv-x="305" 
d="M159 -8q-53 0 -73.5 18t-20.5 65v533q12 2 35 5.5t46 3.5q50 0 72 -17t22 -66v-533q-11 -3 -34 -6t-47 -3zM54 843q21 0 41 -4.5t38.5 -10t34 -10t27.5 -4.5q22 0 34 13t17 22h4q32 0 55 -22.5t23 -57.5q0 -45 -28 -66t-70 -21q-24 0 -44.5 4.5t-37.5 10t-32 10t-27 4.5
q-22 0 -33.5 -12.5t-17.5 -22.5h-4q-31 0 -54.5 22t-23.5 58q0 22 8.5 38.5t22.5 27.5t31.5 16t35.5 5z" />
    <glyph glyph-name="itilde" unicode="&#x129;" horiz-adv-x="282" 
d="M150 -8q-50 0 -72 16.5t-22 63.5v407q11 3 31.5 6t44.5 3q50 0 72 -16.5t22 -63.5v-407q-11 -3 -31.5 -6t-44.5 -3zM46 715q21 0 41 -4.5t38.5 -10t34 -10t27.5 -4.5q22 0 34 13t17 22h4q32 0 55 -22.5t23 -57.5q0 -45 -28 -66t-70 -21q-24 0 -44.5 4.5t-37.5 10t-32 10
t-27 4.5q-22 0 -33.5 -12.5t-17.5 -22.5h-4q-31 0 -54.5 22t-23.5 58q0 22 8.5 38.5t22.5 27.5t31.5 16t35.5 5z" />
    <glyph glyph-name="Imacron" unicode="&#x12a;" horiz-adv-x="305" 
d="M159 -8q-53 0 -73.5 18t-20.5 65v533q12 2 35 5.5t46 3.5q50 0 72 -17t22 -66v-533q-11 -3 -34 -6t-47 -3zM-2 693q-5 11 -10.5 27.5t-5.5 34.5q0 37 15 51.5t40 14.5h265q8 -11 12 -27.5t4 -34.5q0 -37 -14.5 -51.5t-39.5 -14.5h-266z" />
    <glyph glyph-name="imacron" unicode="&#x12b;" horiz-adv-x="282" 
d="M150 -8q-50 0 -72 16.5t-22 63.5v407q11 3 31.5 6t44.5 3q50 0 72 -16.5t22 -63.5v-407q-11 -3 -31.5 -6t-44.5 -3zM-11 564q-5 11 -10.5 27.5t-5.5 34.5q0 37 15 51.5t40 14.5h265q8 -11 12 -27.5t4 -34.5q0 -37 -14.5 -51.5t-39.5 -14.5h-266z" />
    <glyph glyph-name="Iogonek" unicode="&#x12e;" horiz-adv-x="305" 
d="M63 -90q0 31 11.5 53t31.5 36q-23 8 -32 26t-9 50v533q12 2 35 5.5t46 3.5q50 0 72 -17t22 -66v-533q-22 -22 -22 -47q0 -20 12.5 -31t30.5 -11h16q7 -21 7 -41q0 -38 -26 -58.5t-67 -20.5q-57 0 -92.5 33.5t-35.5 84.5z" />
    <glyph glyph-name="iogonek" unicode="&#x12f;" horiz-adv-x="282" 
d="M56 479q11 3 31.5 6t44.5 3q50 0 72 -16.5t22 -63.5v-407q-10 -7 -16 -17t-6 -26q0 -20 14 -32t40 -12h5q3 -9 5 -19t2 -23q0 -14 -4.5 -27.5t-16 -24t-29.5 -16.5t-45 -6q-55 0 -90.5 27.5t-35.5 78.5q0 33 14.5 58t31.5 37q-39 14 -39 73v407zM48 621q0 38 25.5 64
t67.5 26t67.5 -26t25.5 -64t-25.5 -64t-67.5 -26t-67.5 26t-25.5 64z" />
    <glyph glyph-name="Idotaccent" unicode="&#x130;" horiz-adv-x="305" 
d="M159 -8q-53 0 -73.5 18t-20.5 65v533q12 2 35 5.5t46 3.5q50 0 72 -17t22 -66v-533q-11 -3 -34 -6t-47 -3zM237 760q0 -37 -24.5 -62t-65.5 -25t-65.5 25t-24.5 62t24.5 62t65.5 25t65.5 -25t24.5 -62z" />
    <glyph glyph-name="dotlessi" unicode="&#x131;" horiz-adv-x="282" 
d="M150 -8q-50 0 -72 16.5t-22 63.5v412q11 3 31.5 6t44.5 3q50 0 72 -16.5t22 -63.5v-412q-11 -3 -31.5 -6t-44.5 -3z" />
    <glyph glyph-name="Jcircumflex" unicode="&#x134;" horiz-adv-x="412" 
d="M350 180q0 -89 -51 -142t-150 -53q-27 0 -50 4.5t-40.5 15t-27.5 27.5t-10 42q0 20 5.5 35t13.5 24q19 -4 32.5 -5.5t29.5 -1.5q39 0 56 19.5t17 57.5v405q12 2 35 5.5t46 3.5q50 0 72 -17t22 -66v-354zM259 734q-24 -23 -48 -45t-46 -40q-31 0 -52 18t-21 45q0 21 10 36
t37 36l29 22q29 22 51 31.5t42 9.5q26 0 47 -9.5t44 -32.5l81 -81q0 -36 -18.5 -54t-50.5 -18q-20 0 -37 13t-41 39z" />
    <glyph glyph-name="jcircumflex" unicode="&#x135;" horiz-adv-x="287" 
d="M231 9q0 -69 -25 -115q-18 -34 -48 -52.5t-70 -18.5q-44 0 -69 26.5t-26 66.5l26 16q23 14 32.5 38.5t9.5 54.5v454q11 3 31.5 6t44.5 3q50 0 72 -16.5t22 -63.5v-399zM133 626q-13 -15 -23.5 -26t-19.5 -21.5l-18 -21t-20 -23.5q-39 0 -62 17.5t-23 46.5q0 20 11 34.5
t33 36.5l34 34q19 19 40.5 30.5t50.5 11.5q26 0 48 -10t51 -45l71 -87q0 -28 -16.5 -47.5t-50.5 -19.5q-20 0 -35 10.5t-31 30.5z" />
    <glyph glyph-name="Kcommaaccent" unicode="&#x136;" horiz-adv-x="615" 
d="M240 227v-226q-11 -3 -34 -6t-47 -3q-53 0 -73.5 18t-20.5 65v533q12 2 35 5.5t46 3.5q50 0 72 -17t22 -66v-162l208 240q68 0 97.5 -25.5t29.5 -60.5q0 -26 -13 -49t-42 -52l-125 -125q65 -72 118 -128t85 -91q0 -22 -8 -39t-21.5 -29t-30.5 -18t-36 -6q-41 0 -67 20.5
t-50 48.5zM343 -223q-17 -18 -36.5 -25.5t-42.5 -7.5q-38 0 -64 23q21 42 31.5 81.5t15.5 78.5q16 8 37.5 14.5t43.5 6.5q32 0 52 -12t20 -40q0 -12 -5.5 -28.5t-13.5 -33t-18 -32t-20 -25.5z" />
    <glyph glyph-name="kcommaaccent" unicode="&#x137;" horiz-adv-x="555" 
d="M224 1q-11 -3 -31.5 -6t-44.5 -3q-50 0 -72 16.5t-22 63.5v580q11 3 31.5 6t44.5 3q50 0 72 -16.5t22 -63.5v-264l172 176q52 0 83.5 -23t31.5 -58q0 -15 -5 -27.5t-15.5 -25.5t-27 -27.5t-38.5 -33.5l-59 -51l161 -159q-5 -47 -27.5 -72t-65.5 -25q-32 0 -57 15.5
t-54 52.5l-99 123v-181zM322 -223q-17 -18 -36.5 -25.5t-42.5 -7.5q-38 0 -64 23q21 42 31.5 81.5t15.5 78.5q16 8 37.5 14.5t43.5 6.5q32 0 52 -12t20 -40q0 -12 -5.5 -28.5t-13.5 -33t-18 -32t-20 -25.5z" />
    <glyph glyph-name="kgreenlandic" unicode="&#x138;" horiz-adv-x="555" 
d="M224 316l174 177q52 0 83.5 -23t31.5 -58q0 -15 -5 -27.5t-15.5 -25.5t-27 -27.5t-38.5 -33.5l-60 -51l160 -159q-5 -47 -27.5 -72t-65.5 -25q-32 0 -57 15.5t-54 52.5l-99 123v-181q-11 -3 -31.5 -6t-44.5 -3q-50 0 -72 16.5t-22 63.5v412q11 3 31.5 6t44.5 3
q50 0 72 -16.5t22 -63.5v-97z" />
    <glyph glyph-name="Lacute" unicode="&#x139;" horiz-adv-x="513" 
d="M158 -3q-43 0 -68 25t-25 68v518q12 2 35 5.5t46 3.5q50 0 72 -17t22 -66v-396h229q7 -11 13 -29t6 -39q0 -37 -16 -55t-44 -18h-270zM221 846q42 0 65.5 -20.5t23.5 -50.5q0 -20 -9.5 -36t-37.5 -33l-100 -58q-40 0 -60.5 18t-20.5 42q0 12 3.5 23t19.5 25z" />
    <glyph glyph-name="lacute" unicode="&#x13a;" horiz-adv-x="282" 
d="M221 896q42 0 65.5 -20.5t23.5 -50.5q0 -20 -9.5 -36t-37.5 -33l-100 -58q-40 0 -60.5 18t-20.5 42q0 12 3.5 23t19.5 25zM149 -8q-50 0 -72 16.5t-22 63.5v580q11 3 31.5 6t44.5 3q50 0 72 -16.5t22 -63.5v-580q-11 -3 -31.5 -6t-44.5 -3z" />
    <glyph glyph-name="Lcommaaccent" unicode="&#x13b;" horiz-adv-x="513" 
d="M158 -3q-43 0 -68 25t-25 68v518q12 2 35 5.5t46 3.5q50 0 72 -17t22 -66v-396h229q7 -11 13 -29t6 -39q0 -37 -16 -55t-44 -18h-270zM299 -223q-17 -18 -36.5 -25.5t-42.5 -7.5q-38 0 -64 23q21 42 31.5 81.5t15.5 78.5q16 8 37.5 14.5t43.5 6.5q32 0 52 -12t20 -40
q0 -12 -5.5 -28.5t-13.5 -33t-18 -32t-20 -25.5z" />
    <glyph glyph-name="lcommaaccent" unicode="&#x13c;" horiz-adv-x="284" 
d="M151 -8q-50 0 -72 16.5t-22 63.5v580q11 3 31.5 6t44.5 3q50 0 72 -16.5t22 -63.5v-580q-11 -3 -31.5 -6t-44.5 -3zM170 -223q-17 -18 -36.5 -25.5t-42.5 -7.5q-38 0 -64 23q21 42 31.5 81.5t15.5 78.5q16 8 37.5 14.5t43.5 6.5q32 0 52 -12t20 -40q0 -12 -5.5 -28.5
t-13.5 -33t-18 -32t-20 -25.5z" />
    <glyph glyph-name="Lcaron" unicode="&#x13d;" horiz-adv-x="513" 
d="M158 -3q-43 0 -68 25t-25 68v518q12 2 35 5.5t46 3.5q50 0 72 -17t22 -66v-396h229q7 -11 13 -29t6 -39q0 -37 -16 -55t-44 -18h-270zM426 445q-17 -18 -36.5 -25.5t-42.5 -7.5q-38 0 -64 23q21 42 31.5 81.5t15.5 78.5q16 8 37.5 14.5t43.5 6.5q32 0 52 -12t20 -40
q0 -12 -5.5 -28.5t-13.5 -33t-18 -32t-20 -25.5z" />
    <glyph glyph-name="lcaron" unicode="&#x13e;" horiz-adv-x="467" 
d="M151 -8q-50 0 -72 16.5t-22 63.5v580q11 3 31.5 6t44.5 3q50 0 72 -16.5t22 -63.5v-580q-11 -3 -31.5 -6t-44.5 -3zM410 493q-17 -18 -36.5 -25.5t-42.5 -7.5q-38 0 -64 23q21 42 31.5 81.5t15.5 78.5q16 8 37.5 14.5t43.5 6.5q32 0 52 -12t20 -40q0 -12 -5.5 -28.5
t-13.5 -33t-18 -32t-20 -25.5z" />
    <glyph glyph-name="Ldot" unicode="&#x13f;" horiz-adv-x="513" 
d="M158 -3q-43 0 -68 25t-25 68v518q12 2 35 5.5t46 3.5q50 0 72 -17t22 -66v-396h229q7 -11 13 -29t6 -39q0 -37 -16 -55t-44 -18h-270zM313 351q0 42 26 70t71 28t71 -28t26 -70t-26 -70t-71 -28t-71 28t-26 70z" />
    <glyph glyph-name="ldot" unicode="&#x140;" horiz-adv-x="458" 
d="M151 -8q-50 0 -72 16.5t-22 63.5v580q11 3 31.5 6t44.5 3q50 0 72 -16.5t22 -63.5v-580q-11 -3 -31.5 -6t-44.5 -3zM274 301q0 42 26 70t71 28t71 -28t26 -70t-26 -70t-71 -28t-71 28t-26 70z" />
    <glyph glyph-name="Lslash" unicode="&#x141;" horiz-adv-x="553" 
d="M198 -3q-43 0 -68 25t-25 68v136l-48 -20q-14 11 -30.5 34t-16.5 51q0 35 35 49l60 25v243q12 2 35 5.5t46 3.5q50 0 72 -17t22 -66v-94l92 40q7 -6 15 -15t15.5 -20t12.5 -24.5t5 -26.5q0 -17 -9.5 -29t-26.5 -19l-104 -45v-163h229q7 -11 13 -29t6 -39q0 -37 -16 -55
t-44 -18h-270v0z" />
    <glyph glyph-name="lslash" unicode="&#x142;" horiz-adv-x="390" 
d="M205 -8q-50 0 -72 16.5t-22 63.5v166l-54 -22q-14 11 -30.5 34t-16.5 51q0 35 35 49l66 27v275q11 3 31.5 6t44.5 3q50 0 72 -16.5t22 -63.5v-133l51 22q7 -6 15 -15t15.5 -20t12.5 -24.5t5 -26.5q0 -17 -9.5 -29t-26.5 -19l-63 -27v-308q-11 -3 -31.5 -6t-44.5 -3z" />
    <glyph glyph-name="Nacute" unicode="&#x143;" horiz-adv-x="679" 
d="M614 21q-14 -14 -40.5 -21.5t-63.5 -7.5t-70 11t-54 53l-99 202q-15 31 -27 58.5t-26 63.5l-7 -2q5 -63 5.5 -116.5t0.5 -102.5v-159q-11 -2 -33 -5t-45 -3q-51 0 -70.5 17.5t-19.5 62.5v503q14 20 43 30t62 10q37 0 70.5 -11.5t53.5 -52.5l100 -202q15 -31 27 -58.5
t26 -63.5l4 1q-4 48 -4.5 90.5t-0.5 81.5v209q11 2 33 5t45 3q51 0 70.5 -17.5t19.5 -62.5v-516zM421 846q42 0 65.5 -20.5t23.5 -50.5q0 -20 -9.5 -36t-37.5 -33l-100 -58q-40 0 -60.5 18t-20.5 42q0 12 3.5 23t19.5 25z" />
    <glyph glyph-name="nacute" unicode="&#x144;" horiz-adv-x="583" 
d="M530 1q-11 -3 -31.5 -6t-44.5 -3q-50 0 -72 16.5t-22 63.5v236q0 31 -18.5 45.5t-48.5 14.5q-20 0 -37.5 -5t-33.5 -13v-349q-11 -3 -31.5 -6t-44.5 -3q-50 0 -72 16.5t-22 63.5v301q0 27 11.5 44t31.5 31q34 24 85.5 38.5t114.5 14.5q113 0 174 -49.5t61 -138.5v-312z
M354 752q52 0 78 -22t26 -50q0 -23 -10 -38.5t-34 -35.5l-95 -78q-45 0 -67 21t-22 45q0 12 4.5 23t18.5 26z" />
    <glyph glyph-name="Ncommaaccent" unicode="&#x145;" horiz-adv-x="679" 
d="M614 21q-14 -14 -40.5 -21.5t-63.5 -7.5t-70 11t-54 53l-99 202q-15 31 -27 58.5t-26 63.5l-7 -2q5 -63 5.5 -116.5t0.5 -102.5v-159q-11 -2 -33 -5t-45 -3q-51 0 -70.5 17.5t-19.5 62.5v503q14 20 43 30t62 10q37 0 70.5 -11.5t53.5 -52.5l100 -202q15 -31 27 -58.5
t26 -63.5l4 1q-4 48 -4.5 90.5t-0.5 81.5v209q11 2 33 5t45 3q51 0 70.5 -17.5t19.5 -62.5v-516zM362 -223q-17 -18 -36.5 -25.5t-42.5 -7.5q-38 0 -64 23q21 42 31.5 81.5t15.5 78.5q16 8 37.5 14.5t43.5 6.5q32 0 52 -12t20 -40q0 -12 -5.5 -28.5t-13.5 -33t-18 -32
t-20 -25.5z" />
    <glyph glyph-name="ncommaaccent" unicode="&#x146;" horiz-adv-x="583" 
d="M530 1q-11 -3 -31.5 -6t-44.5 -3q-50 0 -72 16.5t-22 63.5v236q0 31 -18.5 45.5t-48.5 14.5q-20 0 -37.5 -5t-33.5 -13v-349q-11 -3 -31.5 -6t-44.5 -3q-50 0 -72 16.5t-22 63.5v301q0 27 11.5 44t31.5 31q34 24 85.5 38.5t114.5 14.5q113 0 174 -49.5t61 -138.5v-312z
M318 -223q-17 -18 -36.5 -25.5t-42.5 -7.5q-38 0 -64 23q21 42 31.5 81.5t15.5 78.5q16 8 37.5 14.5t43.5 6.5q32 0 52 -12t20 -40q0 -12 -5.5 -28.5t-13.5 -33t-18 -32t-20 -25.5z" />
    <glyph glyph-name="Ncaron" unicode="&#x147;" horiz-adv-x="679" 
d="M614 21q-14 -14 -40.5 -21.5t-63.5 -7.5t-70 11t-54 53l-99 202q-15 31 -27 58.5t-26 63.5l-7 -2q5 -63 5.5 -116.5t0.5 -102.5v-159q-11 -2 -33 -5t-45 -3q-51 0 -70.5 17.5t-19.5 62.5v503q14 20 43 30t62 10q37 0 70.5 -11.5t53.5 -52.5l100 -202q15 -31 27 -58.5
t26 -63.5l4 1q-4 48 -4.5 90.5t-0.5 81.5v209q11 2 33 5t45 3q51 0 70.5 -17.5t19.5 -62.5v-516zM345 762q25 23 49 45t46 40q32 0 53 -18t21 -46q0 -21 -10 -36.5t-38 -36.5l-28 -21q-29 -22 -49 -30.5t-44 -8.5q-30 0 -52 11.5t-42 29.5l-83 75q0 37 17.5 57.5t49.5 20.5
q20 0 37.5 -10.5t45.5 -41.5z" />
    <glyph glyph-name="ncaron" unicode="&#x148;" horiz-adv-x="583" 
d="M530 1q-11 -3 -31.5 -6t-44.5 -3q-50 0 -72 16.5t-22 63.5v236q0 31 -18.5 45.5t-48.5 14.5q-20 0 -37.5 -5t-33.5 -13v-349q-11 -3 -31.5 -6t-44.5 -3q-50 0 -72 16.5t-22 63.5v301q0 27 11.5 44t31.5 31q34 24 85.5 38.5t114.5 14.5q113 0 174 -49.5t61 -138.5v-312z
M288 656l90 84q39 0 62 -18.5t23 -47.5q0 -22 -11.5 -36.5t-36.5 -34.5l-45 -37q-20 -17 -39.5 -24t-39.5 -7q-14 0 -25 2t-22.5 7t-25.5 15t-33 27l-74 64q-1 5 -1.5 9t-0.5 9q0 26 15.5 48t48.5 22q10 0 18.5 -1.5t17.5 -7t20 -14.5t25 -24z" />
    <glyph glyph-name="napostrophe" unicode="&#x149;" horiz-adv-x="743" 
d="M690 1q-11 -3 -31.5 -6t-44.5 -3q-50 0 -72 16.5t-22 63.5v236q0 31 -18.5 45.5t-48.5 14.5q-20 0 -37.5 -5t-33.5 -13v-349q-11 -3 -31.5 -6t-44.5 -3q-50 0 -72 16.5t-22 63.5v301q0 27 11.5 44t31.5 31q34 24 85.5 38.5t114.5 14.5q113 0 174 -49.5t61 -138.5v-312z
M152 390q-11 -17 -26 -25t-38 -8q-19 0 -35 4t-31 11q5 60 10 125t7 117q14 8 36.5 15t43.5 7q16 0 31.5 -3t27.5 -10.5t19 -20t7 -30.5q0 -20 -4 -45t-11.5 -50.5t-17 -48.5t-19.5 -38z" />
    <glyph glyph-name="Omacron" unicode="&#x14c;" horiz-adv-x="703" 
d="M668 304q0 -78 -24 -138.5t-66.5 -101t-100.5 -61.5t-126 -21t-126 21t-100 62t-66 101t-24 138t24.5 138t67 100.5t100 61.5t124.5 21t124.5 -21t100.5 -61.5t67.5 -100.5t24.5 -138zM488 304q0 90 -37 135t-100 45q-61 0 -98.5 -44.5t-37.5 -135.5t37 -136t100 -45
q62 0 99 45t37 136zM196 693q-5 11 -10.5 27.5t-5.5 34.5q0 37 15 51.5t40 14.5h265q8 -11 12 -27.5t4 -34.5q0 -37 -14.5 -51.5t-39.5 -14.5h-266z" />
    <glyph glyph-name="omacron" unicode="&#x14d;" horiz-adv-x="586" 
d="M555 243q0 -60 -18.5 -108t-53 -81.5t-82.5 -51.5t-108 -18t-108 17.5t-82.5 51t-53 81.5t-18.5 109q0 59 19 107t53.5 81.5t82.5 51.5t107 18t107 -18.5t82.5 -52t53.5 -81.5t19 -106zM293 368q-42 0 -65 -32.5t-23 -92.5q0 -63 23 -94.5t65 -31.5t65 32t23 94
q0 60 -23 92.5t-65 32.5zM140 564q-5 11 -10.5 27.5t-5.5 34.5q0 37 15 51.5t40 14.5h265q8 -11 12 -27.5t4 -34.5q0 -37 -14.5 -51.5t-39.5 -14.5h-266z" />
    <glyph glyph-name="Ohungarumlaut" unicode="&#x150;" horiz-adv-x="703" 
d="M668 304q0 -78 -24 -138.5t-66.5 -101t-100.5 -61.5t-126 -21t-126 21t-100 62t-66 101t-24 138t24.5 138t67 100.5t100 61.5t124.5 21t124.5 -21t100.5 -61.5t67.5 -100.5t24.5 -138zM488 304q0 90 -37 135t-100 45q-61 0 -98.5 -44.5t-37.5 -135.5t37 -136t100 -45
q62 0 99 45t37 136zM252 846q52 0 76 -21.5t24 -49.5q0 -22 -10.5 -37t-32.5 -38l-51 -52q-45 0 -66.5 19.5t-21.5 43.5q0 12 4 23.5t17 28.5zM469 846q52 0 76 -21.5t24 -49.5q0 -22 -10.5 -37t-32.5 -38l-51 -52q-45 0 -66.5 19.5t-21.5 43.5q0 12 4 23.5t17 28.5z" />
    <glyph glyph-name="ohungarumlaut" unicode="&#x151;" horiz-adv-x="586" 
d="M555 243q0 -60 -18.5 -108t-53 -81.5t-82.5 -51.5t-108 -18t-108 17.5t-82.5 51t-53 81.5t-18.5 109q0 59 19 107t53.5 81.5t82.5 51.5t107 18t107 -18.5t82.5 -52t53.5 -81.5t19 -106zM293 368q-42 0 -65 -32.5t-23 -92.5q0 -63 23 -94.5t65 -31.5t65 32t23 94
q0 60 -23 92.5t-65 32.5zM206 752q52 0 78 -22t26 -50q0 -22 -11 -36.5t-33 -37.5l-75 -78q-45 0 -67 21t-22 45q0 12 3.5 22t16.5 27zM433 752q52 0 78 -22t26 -50q0 -22 -11 -36.5t-33 -37.5l-75 -78q-45 0 -67 21t-22 45q0 12 3.5 22t16.5 27z" />
    <glyph glyph-name="OE" unicode="&#x152;" horiz-adv-x="951" 
d="M895 135q7 -11 12.5 -29t5.5 -39q0 -37 -16 -53.5t-44 -16.5h-282q-48 0 -72 29q-29 -20 -65.5 -32t-82.5 -12q-68 0 -126 21t-100 62t-66 101t-24 138t24.5 138t67 100.5t100 61.5t124.5 21q46 0 83 -12t66 -35q25 28 71 28h320q7 -11 12.5 -28t5.5 -38q0 -37 -16 -54
t-44 -17h-211v-93h225q7 -11 12.5 -28t5.5 -38q0 -37 -16 -53.5t-44 -16.5h-183v-105h257zM352 123q79 0 116 58v245q-38 58 -117 58q-61 0 -98.5 -44.5t-37.5 -135.5t37 -136t100 -45z" />
    <glyph glyph-name="oe" unicode="&#x153;" horiz-adv-x="895" 
d="M287 501q55 0 97.5 -19t72.5 -51q32 36 76 53t95 17q53 0 96.5 -16t75 -44t48.5 -67t17 -85q0 -34 -19 -52t-53 -23l-248 -38q14 -36 46.5 -50.5t73.5 -14.5q42 0 80 10.5t61 24.5q16 -10 27 -28t11 -38q0 -25 -14 -43t-39.5 -30t-60.5 -17.5t-77 -5.5q-124 0 -190 72
q-30 -34 -74 -53t-102 -19q-60 0 -107.5 17.5t-80.5 51t-50.5 81.5t-17.5 109q0 59 18 107t51 81.5t80.5 51.5t106.5 18zM293 368q-42 0 -65 -32.5t-23 -92.5q0 -63 23 -94.5t65 -31.5t65 32t23 94q0 60 -23 92.5t-65 32.5zM629 377q-38 0 -63.5 -23t-30.5 -65l170 28
q-1 10 -6 20.5t-14 19.5t-23 14.5t-33 5.5z" />
    <glyph glyph-name="Racute" unicode="&#x154;" horiz-adv-x="609" 
d="M561 408q0 -57 -29.5 -101.5t-78.5 -73.5q19 -26 38.5 -50t36.5 -46t30.5 -41t22.5 -34q-10 -35 -36.5 -53.5t-59.5 -18.5q-22 0 -38 5t-28 14t-22 22t-19 28l-85 137h-53v-195q-11 -3 -34 -6t-47 -3q-53 0 -73.5 18t-20.5 65v474q0 21 11.5 32.5t31.5 18.5
q34 12 79 17.5t96 5.5q138 0 208 -58.5t70 -156.5zM288 329q42 0 69 19.5t27 57.5t-24.5 57.5t-77.5 19.5q-12 0 -22.5 -1t-21.5 -3v-150h50zM353 846q42 0 65.5 -20.5t23.5 -50.5q0 -20 -9.5 -36t-37.5 -33l-100 -58q-40 0 -60.5 18t-20.5 42q0 12 3.5 23t19.5 25z" />
    <glyph glyph-name="racute" unicode="&#x155;" horiz-adv-x="411" 
d="M222 1q-11 -3 -31.5 -6t-44.5 -3q-50 0 -72 16.5t-22 63.5v297q0 29 15 50.5t41 37.5q35 21 81.5 32t97.5 11q109 0 109 -77q0 -18 -5 -33.5t-12 -26.5q-19 4 -55 4q-26 0 -53.5 -6t-48.5 -18v-342zM267 752q52 0 78 -22t26 -50q0 -23 -10 -38.5t-34 -35.5l-95 -78
q-45 0 -67 21t-22 45q0 12 4.5 23t18.5 26z" />
    <glyph glyph-name="Rcommaaccent" unicode="&#x156;" horiz-adv-x="609" 
d="M561 408q0 -57 -29.5 -101.5t-78.5 -73.5q19 -26 38.5 -50t36.5 -46t30.5 -41t22.5 -34q-10 -35 -36.5 -53.5t-59.5 -18.5q-22 0 -38 5t-28 14t-22 22t-19 28l-85 137h-53v-195q-11 -3 -34 -6t-47 -3q-53 0 -73.5 18t-20.5 65v474q0 21 11.5 32.5t31.5 18.5
q34 12 79 17.5t96 5.5q138 0 208 -58.5t70 -156.5zM288 329q42 0 69 19.5t27 57.5t-24.5 57.5t-77.5 19.5q-12 0 -22.5 -1t-21.5 -3v-150h50zM352 -223q-17 -18 -36.5 -25.5t-42.5 -7.5q-38 0 -64 23q21 42 31.5 81.5t15.5 78.5q16 8 37.5 14.5t43.5 6.5q32 0 52 -12t20 -40
q0 -12 -5.5 -28.5t-13.5 -33t-18 -32t-20 -25.5z" />
    <glyph glyph-name="rcommaaccent" unicode="&#x157;" horiz-adv-x="411" 
d="M222 1q-11 -3 -31.5 -6t-44.5 -3q-50 0 -72 16.5t-22 63.5v297q0 29 15 50.5t41 37.5q35 21 81.5 32t97.5 11q109 0 109 -77q0 -18 -5 -33.5t-12 -26.5q-19 4 -55 4q-26 0 -53.5 -6t-48.5 -18v-342zM165 -223q-17 -18 -36.5 -25.5t-42.5 -7.5q-38 0 -64 23
q21 42 31.5 81.5t15.5 78.5q16 8 37.5 14.5t43.5 6.5q32 0 52 -12t20 -40q0 -12 -5.5 -28.5t-13.5 -33t-18 -32t-20 -25.5z" />
    <glyph glyph-name="Rcaron" unicode="&#x158;" horiz-adv-x="609" 
d="M561 408q0 -57 -29.5 -101.5t-78.5 -73.5q19 -26 38.5 -50t36.5 -46t30.5 -41t22.5 -34q-10 -35 -36.5 -53.5t-59.5 -18.5q-22 0 -38 5t-28 14t-22 22t-19 28l-85 137h-53v-195q-11 -3 -34 -6t-47 -3q-53 0 -73.5 18t-20.5 65v474q0 21 11.5 32.5t31.5 18.5
q34 12 79 17.5t96 5.5q138 0 208 -58.5t70 -156.5zM288 329q42 0 69 19.5t27 57.5t-24.5 57.5t-77.5 19.5q-12 0 -22.5 -1t-21.5 -3v-150h50zM310 762q25 23 49 45t46 40q32 0 53 -18t21 -46q0 -21 -10 -36.5t-38 -36.5l-28 -21q-29 -22 -49 -30.5t-44 -8.5q-30 0 -52 11.5
t-42 29.5l-83 75q0 37 17.5 57.5t49.5 20.5q20 0 37.5 -10.5t45.5 -41.5z" />
    <glyph glyph-name="rcaron" unicode="&#x159;" horiz-adv-x="411" 
d="M222 1q-11 -3 -31.5 -6t-44.5 -3q-50 0 -72 16.5t-22 63.5v297q0 29 15 50.5t41 37.5q35 21 81.5 32t97.5 11q109 0 109 -77q0 -18 -5 -33.5t-12 -26.5q-19 4 -55 4q-26 0 -53.5 -6t-48.5 -18v-342zM234 656l90 84q39 0 62 -18.5t23 -47.5q0 -22 -11.5 -36.5t-36.5 -34.5
l-45 -37q-20 -17 -39.5 -24t-39.5 -7q-14 0 -25 2t-22.5 7t-25.5 15t-33 27l-74 64q-1 5 -1.5 9t-0.5 9q0 26 15.5 48t48.5 22q10 0 18.5 -1.5t17.5 -7t20 -14.5t25 -24z" />
    <glyph glyph-name="Sacute" unicode="&#x15a;" horiz-adv-x="551" 
d="M251 124q49 0 69 16t20 36t-16 31.5t-45 21.5l-42 14q-44 15 -80 30.5t-62 37.5t-40.5 52.5t-14.5 74.5q0 85 65.5 136t183.5 51q43 0 80 -6t63.5 -18.5t41.5 -32t15 -45.5t-12 -44.5t-29 -31.5q-22 14 -59 24.5t-81 10.5q-45 0 -66 -12.5t-21 -31.5q0 -15 13 -24.5
t39 -17.5l53 -17q94 -30 144.5 -77.5t50.5 -127.5q0 -42 -17 -77.5t-50.5 -61t-83 -39.5t-113.5 -14q-46 0 -85.5 7.5t-69 22t-46 36t-16.5 49.5q0 29 17 49.5t37 31.5q28 -22 68.5 -38t88.5 -16zM333 846q42 0 65.5 -20.5t23.5 -50.5q0 -20 -9.5 -36t-37.5 -33l-100 -58
q-40 0 -60.5 18t-20.5 42q0 12 3.5 23t19.5 25z" />
    <glyph glyph-name="sacute" unicode="&#x15b;" horiz-adv-x="492" 
d="M462 145q0 -76 -57 -119t-168 -43q-42 0 -78 6t-61.5 18.5t-40 31.5t-14.5 45q0 24 10 40.5t24 27.5q29 -16 66.5 -28.5t86.5 -12.5q31 0 47.5 9t16.5 24q0 14 -12 22t-40 13l-30 6q-87 17 -129.5 53.5t-42.5 104.5q0 37 16 67t45 50t69.5 31t89.5 11q37 0 69.5 -5.5
t56.5 -16.5t38 -28.5t14 -41.5q0 -23 -8.5 -39.5t-21.5 -27.5q-8 5 -24 10.5t-35 10t-38.5 7.5t-35.5 3q-33 0 -51 -7.5t-18 -23.5q0 -11 10 -18t38 -13l31 -7q96 -22 136.5 -60.5t40.5 -99.5zM300 752q52 0 78 -22t26 -50q0 -23 -10 -38.5t-34 -35.5l-95 -78q-45 0 -67 21
t-22 45q0 12 4.5 23t18.5 26z" />
    <glyph glyph-name="Scircumflex" unicode="&#x15c;" horiz-adv-x="551" 
d="M251 124q49 0 69 16t20 36t-16 31.5t-45 21.5l-42 14q-44 15 -80 30.5t-62 37.5t-40.5 52.5t-14.5 74.5q0 85 65.5 136t183.5 51q43 0 80 -6t63.5 -18.5t41.5 -32t15 -45.5t-12 -44.5t-29 -31.5q-22 14 -59 24.5t-81 10.5q-45 0 -66 -12.5t-21 -31.5q0 -15 13 -24.5
t39 -17.5l53 -17q94 -30 144.5 -77.5t50.5 -127.5q0 -42 -17 -77.5t-50.5 -61t-83 -39.5t-113.5 -14q-46 0 -85.5 7.5t-69 22t-46 36t-16.5 49.5q0 29 17 49.5t37 31.5q28 -22 68.5 -38t88.5 -16zM278 734q-24 -23 -48 -45t-46 -40q-31 0 -52 18t-21 45q0 21 10 36t37 36
l29 22q29 22 51 31.5t42 9.5q26 0 47 -9.5t44 -32.5l81 -81q0 -36 -18.5 -54t-50.5 -18q-20 0 -37 13t-41 39z" />
    <glyph glyph-name="scircumflex" unicode="&#x15d;" horiz-adv-x="492" 
d="M462 145q0 -76 -57 -119t-168 -43q-42 0 -78 6t-61.5 18.5t-40 31.5t-14.5 45q0 24 10 40.5t24 27.5q29 -16 66.5 -28.5t86.5 -12.5q31 0 47.5 9t16.5 24q0 14 -12 22t-40 13l-30 6q-87 17 -129.5 53.5t-42.5 104.5q0 37 16 67t45 50t69.5 31t89.5 11q37 0 69.5 -5.5
t56.5 -16.5t38 -28.5t14 -41.5q0 -23 -8.5 -39.5t-21.5 -27.5q-8 5 -24 10.5t-35 10t-38.5 7.5t-35.5 3q-33 0 -51 -7.5t-18 -23.5q0 -11 10 -18t38 -13l31 -7q96 -22 136.5 -60.5t40.5 -99.5zM240 626q-13 -15 -23.5 -26t-19.5 -21.5l-18 -21t-20 -23.5q-39 0 -62 17.5
t-23 46.5q0 20 11 34.5t33 36.5l34 34q19 19 40.5 30.5t50.5 11.5q26 0 48 -10t51 -45l71 -87q0 -28 -16.5 -47.5t-50.5 -19.5q-20 0 -35 10.5t-31 30.5z" />
    <glyph glyph-name="Scedilla" unicode="&#x15e;" horiz-adv-x="551" 
d="M251 124q49 0 69 16t20 36t-16 31.5t-45 21.5l-42 14q-44 15 -80 30.5t-62 37.5t-40.5 52.5t-14.5 74.5q0 85 65.5 136t183.5 51q43 0 80 -6t63.5 -18.5t41.5 -32t15 -45.5t-12 -44.5t-29 -31.5q-22 14 -59 24.5t-81 10.5q-45 0 -66 -12.5t-21 -31.5q0 -15 13 -24.5
t39 -17.5l53 -17q94 -30 144.5 -77.5t50.5 -127.5q0 -69 -44 -117.5t-129 -65.5q10 -17 14 -36t4 -39q0 -51 -32 -84.5t-89 -33.5q-42 0 -67.5 20.5t-25.5 58.5q0 17 4 30h10q31 0 44.5 15t13.5 37q0 11 -5 24q-39 3 -71.5 12t-56.5 23t-37.5 34t-13.5 45q0 29 17 49.5
t37 31.5q28 -22 68.5 -38t88.5 -16z" />
    <glyph glyph-name="scedilla" unicode="&#x15f;" horiz-adv-x="492" 
d="M462 145q0 -59 -34 -98t-100 -54q20 -33 20 -77q0 -51 -32 -84.5t-89 -33.5q-42 0 -67.5 20.5t-25.5 58.5q0 17 4 30h10q31 0 44.5 15t13.5 37q0 10 -5 25q-71 5 -114.5 28.5t-43.5 71.5q0 24 10 40.5t24 27.5q29 -16 66.5 -28.5t86.5 -12.5q31 0 47.5 9t16.5 24
q0 14 -12 22t-40 13l-30 6q-87 17 -129.5 53.5t-42.5 104.5q0 37 16 67t45 50t69.5 31t89.5 11q37 0 69.5 -5.5t56.5 -16.5t38 -28.5t14 -41.5q0 -23 -8.5 -39.5t-21.5 -27.5q-8 5 -24 10.5t-35 10t-38.5 7.5t-35.5 3q-33 0 -51 -7.5t-18 -23.5q0 -11 10 -18t38 -13l31 -7
q96 -22 136.5 -60.5t40.5 -99.5z" />
    <glyph glyph-name="Scaron" unicode="&#x160;" horiz-adv-x="551" 
d="M251 124q49 0 69 16t20 36t-16 31.5t-45 21.5l-42 14q-44 15 -80 30.5t-62 37.5t-40.5 52.5t-14.5 74.5q0 85 65.5 136t183.5 51q43 0 80 -6t63.5 -18.5t41.5 -32t15 -45.5t-12 -44.5t-29 -31.5q-22 14 -59 24.5t-81 10.5q-45 0 -66 -12.5t-21 -31.5q0 -15 13 -24.5
t39 -17.5l53 -17q94 -30 144.5 -77.5t50.5 -127.5q0 -42 -17 -77.5t-50.5 -61t-83 -39.5t-113.5 -14q-46 0 -85.5 7.5t-69 22t-46 36t-16.5 49.5q0 29 17 49.5t37 31.5q28 -22 68.5 -38t88.5 -16zM280 762q25 23 49 45t46 40q32 0 53 -18t21 -46q0 -21 -10 -36.5t-38 -36.5
l-28 -21q-29 -22 -49 -30.5t-44 -8.5q-30 0 -52 11.5t-42 29.5l-83 75q0 37 17.5 57.5t49.5 20.5q20 0 37.5 -10.5t45.5 -41.5z" />
    <glyph glyph-name="scaron" unicode="&#x161;" horiz-adv-x="492" 
d="M462 145q0 -76 -57 -119t-168 -43q-42 0 -78 6t-61.5 18.5t-40 31.5t-14.5 45q0 24 10 40.5t24 27.5q29 -16 66.5 -28.5t86.5 -12.5q31 0 47.5 9t16.5 24q0 14 -12 22t-40 13l-30 6q-87 17 -129.5 53.5t-42.5 104.5q0 37 16 67t45 50t69.5 31t89.5 11q37 0 69.5 -5.5
t56.5 -16.5t38 -28.5t14 -41.5q0 -23 -8.5 -39.5t-21.5 -27.5q-8 5 -24 10.5t-35 10t-38.5 7.5t-35.5 3q-33 0 -51 -7.5t-18 -23.5q0 -11 10 -18t38 -13l31 -7q96 -22 136.5 -60.5t40.5 -99.5zM240 656l90 84q39 0 62 -18.5t23 -47.5q0 -22 -11.5 -36.5t-36.5 -34.5l-45 -37
q-20 -17 -39.5 -24t-39.5 -7q-14 0 -25 2t-22.5 7t-25.5 15t-33 27l-74 64q-1 5 -1.5 9t-0.5 9q0 26 15.5 48t48.5 22q10 0 18.5 -1.5t17.5 -7t20 -14.5t25 -24z" />
    <glyph glyph-name="uni021A" unicode="&#x21a;" horiz-adv-x="556" 
d="M518 606q7 -11 12.5 -29t5.5 -39q0 -38 -16.5 -55t-44.5 -17h-113v-465q-11 -3 -34 -6t-47 -3q-53 0 -73.5 18t-20.5 65v391h-151q-7 11 -12.5 29t-5.5 39q0 38 16.5 55t44.5 17h439zM302 -223q-17 -18 -36.5 -25.5t-42.5 -7.5q-38 0 -64 23q21 42 31.5 81.5t15.5 78.5
q16 8 37.5 14.5t43.5 6.5q32 0 52 -12t20 -40q0 -12 -5.5 -28.5t-13.5 -33t-18 -32t-20 -25.5z" />
    <glyph glyph-name="uni021B" unicode="&#x21b;" horiz-adv-x="397" 
d="M237 -15q-88 0 -135.5 40t-47.5 130v444q11 3 31.5 6.5t43.5 3.5q49 0 71 -17t22 -63v-54h131q6 -11 11.5 -27.5t5.5 -36.5q0 -35 -15.5 -50.5t-41.5 -15.5h-91v-178q0 -26 16.5 -37t46.5 -11q15 0 31 2.5t28 6.5q9 -11 15.5 -24.5t6.5 -32.5q0 -38 -28.5 -62t-100.5 -24
zM239 -223q-17 -18 -36.5 -25.5t-42.5 -7.5q-38 0 -64 23q21 42 31.5 81.5t15.5 78.5q16 8 37.5 14.5t43.5 6.5q32 0 52 -12t20 -40q0 -12 -5.5 -28.5t-13.5 -33t-18 -32t-20 -25.5z" />
    <glyph glyph-name="Tcaron" unicode="&#x164;" horiz-adv-x="556" 
d="M518 606q7 -11 12.5 -29t5.5 -39q0 -38 -16.5 -55t-44.5 -17h-113v-465q-11 -3 -34 -6t-47 -3q-53 0 -73.5 18t-20.5 65v391h-151q-7 11 -12.5 29t-5.5 39q0 38 16.5 55t44.5 17h439zM283 762q25 23 49 45t46 40q32 0 53 -18t21 -46q0 -21 -10 -36.5t-38 -36.5l-28 -21
q-29 -22 -49 -30.5t-44 -8.5q-30 0 -52 11.5t-42 29.5l-83 75q0 37 17.5 57.5t49.5 20.5q20 0 37.5 -10.5t45.5 -41.5z" />
    <glyph glyph-name="tcaron" unicode="&#x165;" horiz-adv-x="586" 
d="M237 -15q-88 0 -135.5 40t-47.5 130v444q11 3 31.5 6.5t43.5 3.5q49 0 71 -17t22 -63v-54h131q6 -11 11.5 -27.5t5.5 -36.5q0 -35 -15.5 -50.5t-41.5 -15.5h-91v-178q0 -26 16.5 -37t46.5 -11q15 0 31 2.5t28 6.5q9 -11 15.5 -24.5t6.5 -32.5q0 -38 -28.5 -62t-100.5 -24
zM539 493q-17 -18 -36.5 -25.5t-42.5 -7.5q-38 0 -64 23q21 42 31.5 81.5t15.5 78.5q16 8 37.5 14.5t43.5 6.5q32 0 52 -12t20 -40q0 -12 -5.5 -28.5t-13.5 -33t-18 -32t-20 -25.5z" />
    <glyph glyph-name="Utilde" unicode="&#x168;" horiz-adv-x="664" 
d="M332 -18q-63 0 -113 17t-85 48.5t-53.5 76t-18.5 98.5v386q12 2 35 5.5t46 3.5q50 0 72 -17t22 -66v-309q0 -48 26.5 -75t68.5 -27t68.5 27t26.5 75v383q12 2 35 5.5t46 3.5q50 0 72 -17t22 -66v-312q0 -54 -18.5 -98.5t-53.5 -76t-85 -48.5t-113 -17zM241 843
q21 0 41 -4.5t38.5 -10t34 -10t27.5 -4.5q22 0 34 13t17 22h4q32 0 55 -22.5t23 -57.5q0 -45 -28 -66t-70 -21q-24 0 -44.5 4.5t-37.5 10t-32 10t-27 4.5q-22 0 -33.5 -12.5t-17.5 -22.5h-4q-31 0 -54.5 22t-23.5 58q0 22 8.5 38.5t22.5 27.5t31.5 16t35.5 5z" />
    <glyph glyph-name="utilde" unicode="&#x169;" horiz-adv-x="582" 
d="M52 484q11 3 31.5 6t44.5 3q50 0 72 -16.5t22 -63.5v-220q0 -41 20 -58.5t58 -17.5q23 0 37.5 4t22.5 8v355q11 3 31.5 6t44.5 3q50 0 72 -16.5t22 -63.5v-309q0 -50 -42 -75q-35 -22 -83.5 -33.5t-105.5 -11.5q-54 0 -99.5 12t-78.5 37t-51 64.5t-18 95.5v291zM199 715
q21 0 41 -4.5t38.5 -10t34 -10t27.5 -4.5q22 0 34 13t17 22h4q32 0 55 -22.5t23 -57.5q0 -45 -28 -66t-70 -21q-24 0 -44.5 4.5t-37.5 10t-32 10t-27 4.5q-22 0 -33.5 -12.5t-17.5 -22.5h-4q-31 0 -54.5 22t-23.5 58q0 22 8.5 38.5t22.5 27.5t31.5 16t35.5 5z" />
    <glyph glyph-name="Umacron" unicode="&#x16a;" horiz-adv-x="664" 
d="M332 -18q-63 0 -113 17t-85 48.5t-53.5 76t-18.5 98.5v386q12 2 35 5.5t46 3.5q50 0 72 -17t22 -66v-309q0 -48 26.5 -75t68.5 -27t68.5 27t26.5 75v383q12 2 35 5.5t46 3.5q50 0 72 -17t22 -66v-312q0 -54 -18.5 -98.5t-53.5 -76t-85 -48.5t-113 -17zM174 693
q-5 11 -10.5 27.5t-5.5 34.5q0 37 15 51.5t40 14.5h265q8 -11 12 -27.5t4 -34.5q0 -37 -14.5 -51.5t-39.5 -14.5h-266z" />
    <glyph glyph-name="umacron" unicode="&#x16b;" horiz-adv-x="582" 
d="M52 484q11 3 31.5 6t44.5 3q50 0 72 -16.5t22 -63.5v-220q0 -41 20 -58.5t58 -17.5q23 0 37.5 4t22.5 8v355q11 3 31.5 6t44.5 3q50 0 72 -16.5t22 -63.5v-309q0 -50 -42 -75q-35 -22 -83.5 -33.5t-105.5 -11.5q-54 0 -99.5 12t-78.5 37t-51 64.5t-18 95.5v291zM144 564
q-5 11 -10.5 27.5t-5.5 34.5q0 37 15 51.5t40 14.5h265q8 -11 12 -27.5t4 -34.5q0 -37 -14.5 -51.5t-39.5 -14.5h-266z" />
    <glyph glyph-name="Ubreve" unicode="&#x16c;" horiz-adv-x="664" 
d="M332 -18q-63 0 -113 17t-85 48.5t-53.5 76t-18.5 98.5v386q12 2 35 5.5t46 3.5q50 0 72 -17t22 -66v-309q0 -48 26.5 -75t68.5 -27t68.5 27t26.5 75v383q12 2 35 5.5t46 3.5q50 0 72 -17t22 -66v-312q0 -54 -18.5 -98.5t-53.5 -76t-85 -48.5t-113 -17zM325 786
q31 0 50.5 15t25.5 37q5 1 9 1h9q41 0 60.5 -23t19.5 -49q0 -45 -45 -75.5t-129 -30.5t-129 30.5t-45 75.5q0 26 19.5 49t60.5 23h9t9 -1q5 -22 25 -37t51 -15z" />
    <glyph glyph-name="ubreve" unicode="&#x16d;" horiz-adv-x="582" 
d="M52 484q11 3 31.5 6t44.5 3q50 0 72 -16.5t22 -63.5v-220q0 -41 20 -58.5t58 -17.5q23 0 37.5 4t22.5 8v355q11 3 31.5 6t44.5 3q50 0 72 -16.5t22 -63.5v-309q0 -50 -42 -75q-35 -22 -83.5 -33.5t-105.5 -11.5q-54 0 -99.5 12t-78.5 37t-51 64.5t-18 95.5v291zM292 678
q31 0 50.5 15t25.5 37q5 1 9 1h9q41 0 60.5 -23t19.5 -49q0 -45 -45 -75.5t-129 -30.5t-129 30.5t-45 75.5q0 26 19.5 49t60.5 23h9t9 -1q5 -22 25 -37t51 -15z" />
    <glyph glyph-name="Uring" unicode="&#x16e;" horiz-adv-x="664" 
d="M332 -18q-63 0 -113 17t-85 48.5t-53.5 76t-18.5 98.5v386q12 2 35 5.5t46 3.5q50 0 72 -17t22 -66v-309q0 -48 26.5 -75t68.5 -27t68.5 27t26.5 75v383q12 2 35 5.5t46 3.5q50 0 72 -17t22 -66v-312q0 -54 -18.5 -98.5t-53.5 -76t-85 -48.5t-113 -17zM204 754
q0 46 35.5 77.5t96.5 31.5q65 0 101 -31.5t36 -77.5t-36 -77t-101 -31q-61 0 -96.5 31t-35.5 77zM305 754q0 -14 9.5 -22.5t22.5 -8.5q15 0 24.5 8.5t9.5 22.5t-9.5 22.5t-24.5 8.5q-13 0 -22.5 -8.5t-9.5 -22.5z" />
    <glyph glyph-name="uring" unicode="&#x16f;" horiz-adv-x="582" 
d="M52 484q11 3 31.5 6t44.5 3q50 0 72 -16.5t22 -63.5v-220q0 -41 20 -58.5t58 -17.5q23 0 37.5 4t22.5 8v355q11 3 31.5 6t44.5 3q50 0 72 -16.5t22 -63.5v-309q0 -50 -42 -75q-35 -22 -83.5 -33.5t-105.5 -11.5q-54 0 -99.5 12t-78.5 37t-51 64.5t-18 95.5v291zM152 641
q0 47 35.5 79.5t96.5 32.5q65 0 101 -32.5t36 -79.5t-36 -79t-101 -32q-61 0 -96.5 32t-35.5 79zM253 641q0 -16 9.5 -25t22.5 -9q15 0 24.5 9t9.5 25t-9.5 25t-24.5 9q-13 0 -22.5 -9t-9.5 -25z" />
    <glyph glyph-name="Uhungarumlaut" unicode="&#x170;" horiz-adv-x="664" 
d="M332 -18q-63 0 -113 17t-85 48.5t-53.5 76t-18.5 98.5v386q12 2 35 5.5t46 3.5q50 0 72 -17t22 -66v-309q0 -48 26.5 -75t68.5 -27t68.5 27t26.5 75v383q12 2 35 5.5t46 3.5q50 0 72 -17t22 -66v-312q0 -54 -18.5 -98.5t-53.5 -76t-85 -48.5t-113 -17zM225 846
q52 0 76 -21.5t24 -49.5q0 -22 -10.5 -37t-32.5 -38l-51 -52q-45 0 -66.5 19.5t-21.5 43.5q0 12 4 23.5t17 28.5zM442 846q52 0 76 -21.5t24 -49.5q0 -22 -10.5 -37t-32.5 -38l-51 -52q-45 0 -66.5 19.5t-21.5 43.5q0 12 4 23.5t17 28.5z" />
    <glyph glyph-name="uhungarumlaut" unicode="&#x171;" horiz-adv-x="582" 
d="M52 484q11 3 31.5 6t44.5 3q50 0 72 -16.5t22 -63.5v-220q0 -41 20 -58.5t58 -17.5q23 0 37.5 4t22.5 8v355q11 3 31.5 6t44.5 3q50 0 72 -16.5t22 -63.5v-309q0 -50 -42 -75q-35 -22 -83.5 -33.5t-105.5 -11.5q-54 0 -99.5 12t-78.5 37t-51 64.5t-18 95.5v291zM201 752
q52 0 78 -22t26 -50q0 -22 -11 -36.5t-33 -37.5l-75 -78q-45 0 -67 21t-22 45q0 12 3.5 22t16.5 27zM428 752q52 0 78 -22t26 -50q0 -22 -11 -36.5t-33 -37.5l-75 -78q-45 0 -67 21t-22 45q0 12 3.5 22t16.5 27z" />
    <glyph glyph-name="Uogonek" unicode="&#x172;" horiz-adv-x="664" 
d="M602 222q0 -94 -53.5 -156t-150.5 -78q-8 -13 -8 -30q0 -20 14 -32t40 -12h5q3 -9 5 -19t2 -23q0 -14 -4.5 -27.5t-16 -24t-29.5 -16.5t-45 -6q-55 0 -90.5 27.5t-35.5 78.5q0 27 9.5 48t23.5 35q-98 16 -152 78t-54 157v386q12 2 35 5.5t46 3.5q50 0 72 -17t22 -66v-309
q0 -48 26.5 -75t68.5 -27t68.5 27t26.5 75v383q12 2 35 5.5t46 3.5q50 0 72 -17t22 -66v-312v0z" />
    <glyph glyph-name="uogonek" unicode="&#x173;" horiz-adv-x="582" 
d="M52 484q11 3 31.5 6t44.5 3q50 0 72 -16.5t22 -63.5v-220q0 -41 20 -58.5t58 -17.5q23 0 37.5 4t22.5 8v355q11 3 31.5 6t44.5 3q50 0 72 -16.5t22 -63.5v-309q0 -50 -42 -75q-19 -16 -30 -31.5t-11 -39.5q0 -20 14 -32t40 -12h5q3 -9 5 -19t2 -23q0 -14 -4.5 -27.5
t-16 -24t-29.5 -16.5t-45 -6q-55 0 -90.5 27.5t-35.5 78.5q0 27 11 47t25 34q-8 -1 -14.5 -1h-14.5q-54 0 -99.5 12t-78.5 37t-51 64.5t-18 95.5v291z" />
    <glyph glyph-name="Wcircumflex" unicode="&#x174;" horiz-adv-x="863" 
d="M345 458q11 5 34.5 11.5t47.5 6.5q42 0 70 -12.5t34 -36.5q11 -41 20.5 -76.5t18.5 -68t17.5 -64.5t16.5 -67h5q9 61 16 116.5t13 109t12 106t12 106.5q37 21 79 21q37 0 64 -16t27 -54q0 -22 -4.5 -62.5t-12 -90.5t-17.5 -105t-21 -105t-22.5 -90.5t-21.5 -62.5
q-15 -14 -49 -23t-70 -9q-47 0 -79.5 12.5t-39.5 35.5q-13 40 -28 95t-32 121q-14 -65 -29 -127t-27 -105q-15 -14 -45 -23t-66 -9q-45 0 -81.5 12.5t-47.5 35.5q-9 18 -19.5 53.5t-21.5 81t-22.5 98.5t-21 106t-17.5 103.5t-12 92.5q14 13 39 24t54 11q38 0 62.5 -16.5
t30.5 -55.5q16 -102 26.5 -170t17 -111.5t9.5 -67.5t6 -38h5q9 40 17 74t16.5 68.5t17.5 74t19 90.5zM431 736q-13 -15 -23.5 -26t-19.5 -21.5l-18 -21t-20 -23.5q-39 0 -62 17.5t-23 46.5q0 20 11 34.5t33 36.5l34 34q19 19 40.5 30.5t50.5 11.5q26 0 48 -10t51 -45l71 -87
q0 -28 -16.5 -47.5t-50.5 -19.5q-20 0 -35 10.5t-31 30.5z" />
    <glyph glyph-name="wcircumflex" unicode="&#x175;" horiz-adv-x="791" 
d="M400 273q-7 -35 -17 -72.5t-20.5 -72t-19.5 -64t-14 -47.5q-14 -12 -38 -19.5t-57 -7.5q-41 0 -71 11.5t-40 32.5q-7 16 -16 45t-18.5 65.5t-19 78.5t-18 84t-16 81.5t-12.5 72.5q14 14 37.5 24.5t51.5 10.5q35 0 57.5 -15.5t27.5 -53.5q10 -76 17 -125.5t11.5 -81t7 -48
t4.5 -26.5h4q3 16 10.5 46.5t17.5 69.5t21 84.5t22 90.5q20 11 39.5 17t48.5 6q35 0 60 -11t32 -34q12 -44 23 -85.5t20 -77t16 -63t10 -43.5h5q11 77 21.5 160t19.5 169q18 11 38 16t40 5q35 0 58 -15t23 -52q0 -16 -5 -47.5t-13 -71.5t-18.5 -84t-21 -84.5t-20 -73.5
t-16.5 -51q-14 -12 -43 -19.5t-62 -7.5q-84 0 -99 42q-6 18 -15 45.5t-19 59.5t-19 67.5t-15 68.5zM398 626q-13 -15 -23.5 -26t-19.5 -21.5l-18 -21t-20 -23.5q-39 0 -62 17.5t-23 46.5q0 20 11 34.5t33 36.5l34 34q19 19 40.5 30.5t50.5 11.5q26 0 48 -10t51 -45l71 -87
q0 -28 -16.5 -47.5t-50.5 -19.5q-20 0 -35 10.5t-31 30.5z" />
    <glyph glyph-name="Ycircumflex" unicode="&#x176;" horiz-adv-x="574" 
d="M562 535q0 -12 -6.5 -31.5t-26 -57t-54.5 -97.5t-92 -152v-196q-11 -3 -33.5 -6t-45.5 -3q-52 0 -72 18t-20 63v127q-26 37 -56 84.5t-59 97t-53.5 96.5t-38.5 83q13 18 35.5 33t55.5 15q39 0 63.5 -16t46.5 -60l88 -177h6q14 31 25.5 58t22.5 54.5t22.5 56.5t25.5 65
q18 9 40 14t42 5q35 0 59.5 -18.5t24.5 -55.5zM294 734q-24 -23 -48 -45t-46 -40q-31 0 -52 18t-21 45q0 21 10 36t37 36l29 22q29 22 51 31.5t42 9.5q26 0 47 -9.5t44 -32.5l81 -81q0 -36 -18.5 -54t-50.5 -18q-20 0 -37 13t-41 39z" />
    <glyph glyph-name="ycircumflex" unicode="&#x177;" horiz-adv-x="551" 
d="M128 124q-11 25 -23.5 56t-26 71t-28 91.5t-30.5 118.5q14 14 37.5 24.5t51.5 10.5q35 0 58 -14.5t34 -54.5q20 -70 39.5 -138.5t39.5 -136.5h4q12 34 23.5 74t22.5 82.5t20.5 85t16.5 83.5q17 9 35 14t38 5q35 0 61 -15t26 -52q0 -40 -12.5 -95.5t-32.5 -115t-45 -116.5
t-50 -100q-57 -98 -104.5 -144.5t-96.5 -46.5q-40 0 -67 25t-32 65q32 27 64 61t56 69q-17 5 -36.5 23.5t-42.5 69.5zM281 626q-13 -15 -23.5 -26t-19.5 -21.5l-18 -21t-20 -23.5q-39 0 -62 17.5t-23 46.5q0 20 11 34.5t33 36.5l34 34q19 19 40.5 30.5t50.5 11.5
q26 0 48 -10t51 -45l71 -87q0 -28 -16.5 -47.5t-50.5 -19.5q-20 0 -35 10.5t-31 30.5z" />
    <glyph glyph-name="Ydieresis" unicode="&#x178;" horiz-adv-x="574" 
d="M562 535q0 -12 -6.5 -31.5t-26 -57t-54.5 -97.5t-92 -152v-196q-11 -3 -33.5 -6t-45.5 -3q-52 0 -72 18t-20 63v127q-26 37 -56 84.5t-59 97t-53.5 96.5t-38.5 83q13 18 35.5 33t55.5 15q39 0 63.5 -16t46.5 -60l88 -177h6q14 31 25.5 58t22.5 54.5t22.5 56.5t25.5 65
q18 9 40 14t42 5q35 0 59.5 -18.5t24.5 -55.5zM267 748q0 -35 -23.5 -58.5t-61.5 -23.5t-61 23.5t-23 58.5t23 59t61 24t61.5 -24t23.5 -59zM482 748q0 -35 -23 -58.5t-61 -23.5t-61.5 23.5t-23.5 58.5t23.5 59t61.5 24t61 -24t23 -59z" />
    <glyph glyph-name="Zacute" unicode="&#x179;" horiz-adv-x="560" 
d="M73 0q-17 14 -28 38t-11 55q0 25 13 51t31 48l230 274h-246q-8 12 -13.5 29.5t-5.5 39.5q0 38 17 56t46 18h373q44 -36 44 -96q0 -25 -11.5 -49.5t-29.5 -46.5l-229 -274h258q7 -12 13 -30t6 -40q0 -38 -16.5 -55.5t-45.5 -17.5h-395zM366 846q42 0 65.5 -20.5
t23.5 -50.5q0 -20 -9.5 -36t-37.5 -33l-100 -58q-40 0 -60.5 18t-20.5 42q0 12 3.5 23t19.5 25z" />
    <glyph glyph-name="zacute" unicode="&#x17a;" horiz-adv-x="481" 
d="M410 485q16 -14 25.5 -33t9.5 -43q0 -20 -9.5 -39.5t-23.5 -36.5l-168 -202h196q6 -11 11.5 -28t5.5 -37q0 -35 -15.5 -50.5t-41.5 -15.5h-331q-16 14 -25.5 33t-9.5 43q0 20 9.5 39.5t23.5 36.5l172 202h-184q-6 11 -11.5 28t-5.5 37q0 35 15.5 50.5t41.5 15.5h315z
M307 752q52 0 78 -22t26 -50q0 -23 -10 -38.5t-34 -35.5l-95 -78q-45 0 -67 21t-22 45q0 12 4.5 23t18.5 26z" />
    <glyph glyph-name="Zdotaccent" unicode="&#x17b;" horiz-adv-x="560" 
d="M73 0q-17 14 -28 38t-11 55q0 25 13 51t31 48l230 274h-246q-8 12 -13.5 29.5t-5.5 39.5q0 38 17 56t46 18h373q44 -36 44 -96q0 -25 -11.5 -49.5t-29.5 -46.5l-229 -274h258q7 -12 13 -30t6 -40q0 -38 -16.5 -55.5t-45.5 -17.5h-395zM375 760q0 -37 -24.5 -62t-65.5 -25
t-65.5 25t-24.5 62t24.5 62t65.5 25t65.5 -25t24.5 -62z" />
    <glyph glyph-name="zdotaccent" unicode="&#x17c;" horiz-adv-x="481" 
d="M410 485q16 -14 25.5 -33t9.5 -43q0 -20 -9.5 -39.5t-23.5 -36.5l-168 -202h196q6 -11 11.5 -28t5.5 -37q0 -35 -15.5 -50.5t-41.5 -15.5h-331q-16 14 -25.5 33t-9.5 43q0 20 9.5 39.5t23.5 36.5l172 202h-184q-6 11 -11.5 28t-5.5 37q0 35 15.5 50.5t41.5 15.5h315z
M336 632q0 -37 -24.5 -62t-65.5 -25t-65.5 25t-24.5 62t24.5 62t65.5 25t65.5 -25t24.5 -62z" />
    <glyph glyph-name="Zcaron" unicode="&#x17d;" horiz-adv-x="560" 
d="M73 0q-17 14 -28 38t-11 55q0 25 13 51t31 48l230 274h-246q-8 12 -13.5 29.5t-5.5 39.5q0 38 17 56t46 18h373q44 -36 44 -96q0 -25 -11.5 -49.5t-29.5 -46.5l-229 -274h258q7 -12 13 -30t6 -40q0 -38 -16.5 -55.5t-45.5 -17.5h-395zM296 762q25 23 49 45t46 40
q32 0 53 -18t21 -46q0 -21 -10 -36.5t-38 -36.5l-28 -21q-29 -22 -49 -30.5t-44 -8.5q-30 0 -52 11.5t-42 29.5l-83 75q0 37 17.5 57.5t49.5 20.5q20 0 37.5 -10.5t45.5 -41.5z" />
    <glyph glyph-name="zcaron" unicode="&#x17e;" horiz-adv-x="481" 
d="M410 485q16 -14 25.5 -33t9.5 -43q0 -20 -9.5 -39.5t-23.5 -36.5l-168 -202h196q6 -11 11.5 -28t5.5 -37q0 -35 -15.5 -50.5t-41.5 -15.5h-331q-16 14 -25.5 33t-9.5 43q0 20 9.5 39.5t23.5 36.5l172 202h-184q-6 11 -11.5 28t-5.5 37q0 35 15.5 50.5t41.5 15.5h315z
M243 656l90 84q39 0 62 -18.5t23 -47.5q0 -22 -11.5 -36.5t-36.5 -34.5l-45 -37q-20 -17 -39.5 -24t-39.5 -7q-14 0 -25 2t-22.5 7t-25.5 15t-33 27l-74 64q-1 5 -1.5 9t-0.5 9q0 26 15.5 48t48.5 22q10 0 18.5 -1.5t17.5 -7t20 -14.5t25 -24z" />
    <glyph glyph-name="uni018F" unicode="&#x18f;" horiz-adv-x="664" 
d="M30 254q0 39 24.5 60t64.5 27l323 49q-20 49 -61.5 72t-98.5 23q-54 0 -96.5 -18t-68.5 -38q-22 16 -34 34t-12 44q0 51 52 80q69 39 177 39q67 0 127 -21.5t105 -64.5t71 -106t26 -146q0 -77 -22.5 -134.5t-62.5 -95t-95.5 -56t-120.5 -18.5q-73 0 -129 21.5t-93.5 58.5
t-56.5 86t-19 104zM325 123q38 0 64 10t42 28.5t23 44.5t8 58l-257 -41q1 -18 10 -36t25 -32t37.5 -23t47.5 -9z" />
    <glyph glyph-name="florin" unicode="&#x192;" horiz-adv-x="536" 
d="M327 303l-23 -224q-11 -101 -61 -147.5t-130 -46.5q-128 0 -128 85q0 20 8 36.5t18 24.5q12 -5 25.5 -8.5t35.5 -3.5q29 0 43.5 15t18.5 51l40 401q11 101 70.5 147t151.5 46q73 0 106.5 -18.5t33.5 -66.5q0 -20 -8 -36.5t-18 -24.5q-19 5 -38 8.5t-46 3.5
q-41 0 -60.5 -15.5t-24.5 -49.5l-6 -47h149q6 -11 11.5 -27.5t5.5 -36.5q0 -35 -15.5 -50.5t-41.5 -15.5h-117z" />
    <glyph glyph-name="Ohorn" unicode="&#x1a0;" horiz-adv-x="767" 
d="M668 304q0 -78 -24 -138.5t-66.5 -101t-100.5 -61.5t-126 -21t-126 21t-100 62t-66 101t-24 138t24.5 138t67 100.5t100 61.5t124.5 21q76 0 140 -27t108 -80q20 11 32 33.5t12 60.5v34q14 7 27.5 11t33.5 4q32 0 55 -15t23 -51v-6q0 -70 -36.5 -115.5t-92.5 -61.5
q15 -48 15 -108zM488 304q0 90 -37 135t-100 45q-61 0 -98.5 -44.5t-37.5 -135.5t37 -136t100 -45q62 0 99 45t37 136z" />
    <glyph glyph-name="ohorn" unicode="&#x1a1;" horiz-adv-x="652" 
d="M555 243q0 -60 -18.5 -108t-53 -81.5t-82.5 -51.5t-108 -18t-108 17.5t-82.5 51t-53 81.5t-18.5 109q0 59 19 107t53.5 81.5t82.5 51.5t107 18q64 0 115 -21.5t86 -61.5q14 13 21.5 33.5t7.5 50.5v34q14 7 27.5 11t33.5 4q32 0 55 -15t23 -51v-6q0 -66 -32 -109.5
t-82 -62.5q4 -15 5.5 -31t1.5 -33zM293 368q-42 0 -65 -32.5t-23 -92.5q0 -63 23 -94.5t65 -31.5t65 32t23 94q0 60 -23 92.5t-65 32.5z" />
    <glyph glyph-name="Uhorn" unicode="&#x1af;" horiz-adv-x="769" 
d="M598 405v-183q0 -54 -18.5 -98.5t-53.5 -76t-85 -48.5t-113 -17t-113 17t-85 48.5t-53.5 76t-18.5 98.5v386q12 2 35 5.5t46 3.5q50 0 72 -17t22 -66v-309q0 -48 26.5 -75t68.5 -27t68.5 27t26.5 75v383q12 2 35 5.5t46 3.5q50 0 72 -17t22 -66v-20q25 8 40 32t15 66v34
q14 7 27.5 11t33.5 4q32 0 55 -15t23 -51v-6q0 -43 -14.5 -77t-40 -58t-59 -36.5t-71.5 -12.5h-9z" />
    <glyph glyph-name="uhorn" unicode="&#x1b0;" horiz-adv-x="722" 
d="M52 484q11 3 31.5 6t44.5 3q50 0 72 -16.5t22 -63.5v-220q0 -41 20 -58.5t58 -17.5q23 0 37.5 4t22.5 8v355q11 3 31.5 6t44.5 3q50 0 72 -16.5t22 -63.5v-5q20 11 31.5 34t11.5 60v34q14 7 27.5 11t33.5 4q32 0 55 -15t23 -51v-6q0 -43 -14.5 -77t-39.5 -57.5t-58 -36.5
t-70 -13v-191q0 -50 -42 -75q-35 -22 -83.5 -33.5t-105.5 -11.5q-54 0 -99.5 12t-78.5 37t-51 64.5t-18 95.5v291z" />
    <glyph glyph-name="Gcaron" unicode="&#x1e6;" horiz-adv-x="664" 
d="M614 97q0 -31 -11 -46t-35 -29q-14 -8 -35 -15.5t-46 -13t-52.5 -8.5t-54.5 -3q-72 0 -135 18.5t-109.5 57.5t-73.5 99.5t-27 144.5q0 79 27 139t74 101t110 62t136 21q95 0 150.5 -30t55.5 -79q0 -26 -13 -45t-30 -30q-25 15 -63 29t-87 14q-40 0 -73 -13t-57 -36.5
t-37 -57t-13 -74.5q0 -45 12.5 -79t35 -56.5t53 -34t67.5 -11.5q22 0 38.5 4t25.5 9v96h-107q-6 11 -11.5 29t-5.5 38q0 36 16.5 52t42.5 16h169q30 0 46.5 -16.5t16.5 -46.5v-206zM359 762q25 23 49 45t46 40q32 0 53 -18t21 -46q0 -21 -10 -36.5t-38 -36.5l-28 -21
q-29 -22 -49 -30.5t-44 -8.5q-30 0 -52 11.5t-42 29.5l-83 75q0 37 17.5 57.5t49.5 20.5q20 0 37.5 -10.5t45.5 -41.5z" />
    <glyph glyph-name="gcaron" unicode="&#x1e7;" horiz-adv-x="567" 
d="M354 37q-20 -8 -44.5 -12.5t-54.5 -4.5q-45 0 -85.5 12.5t-71 41t-48.5 73.5t-18 110q0 60 18.5 105.5t52 76.5t81.5 46.5t107 15.5q28 0 55 -4t50.5 -11t42.5 -15t32 -17q20 -14 31.5 -31.5t11.5 -44.5v-371q0 -53 -19.5 -91.5t-54 -64t-81 -37.5t-99.5 -12
q-54 0 -95 8.5t-65 24.5q-36 24 -36 68q0 23 9.5 42t21.5 28q29 -16 65.5 -27t76.5 -11q53 0 85 18t32 58v26zM287 147q20 0 35.5 4.5t28.5 12.5v192q-11 5 -22.5 8.5t-30.5 3.5q-43 0 -70 -26.5t-27 -85.5q0 -63 24.5 -86t61.5 -23zM293 656l90 84q39 0 62 -18.5t23 -47.5
q0 -22 -11.5 -36.5t-36.5 -34.5l-45 -37q-20 -17 -39.5 -24t-39.5 -7q-14 0 -25 2t-22.5 7t-25.5 15t-33 27l-74 64q-1 5 -1.5 9t-0.5 9q0 26 15.5 48t48.5 22q10 0 18.5 -1.5t17.5 -7t20 -14.5t25 -24z" />
    <glyph glyph-name="Scommaaccent" unicode="&#x218;" horiz-adv-x="551" 
d="M251 124q49 0 69 16t20 36t-16 31.5t-45 21.5l-42 14q-44 15 -80 30.5t-62 37.5t-40.5 52.5t-14.5 74.5q0 85 65.5 136t183.5 51q43 0 80 -6t63.5 -18.5t41.5 -32t15 -45.5t-12 -44.5t-29 -31.5q-22 14 -59 24.5t-81 10.5q-45 0 -66 -12.5t-21 -31.5q0 -15 13 -24.5
t39 -17.5l53 -17q94 -30 144.5 -77.5t50.5 -127.5q0 -42 -17 -77.5t-50.5 -61t-83 -39.5t-113.5 -14q-46 0 -85.5 7.5t-69 22t-46 36t-16.5 49.5q0 29 17 49.5t37 31.5q28 -22 68.5 -38t88.5 -16zM301 -223q-17 -18 -36.5 -25.5t-42.5 -7.5q-38 0 -64 23q21 42 31.5 81.5
t15.5 78.5q16 8 37.5 14.5t43.5 6.5q32 0 52 -12t20 -40q0 -12 -5.5 -28.5t-13.5 -33t-18 -32t-20 -25.5z" />
    <glyph glyph-name="scommaaccent" unicode="&#x219;" horiz-adv-x="492" 
d="M462 145q0 -76 -57 -119t-168 -43q-42 0 -78 6t-61.5 18.5t-40 31.5t-14.5 45q0 24 10 40.5t24 27.5q29 -16 66.5 -28.5t86.5 -12.5q31 0 47.5 9t16.5 24q0 14 -12 22t-40 13l-30 6q-87 17 -129.5 53.5t-42.5 104.5q0 37 16 67t45 50t69.5 31t89.5 11q37 0 69.5 -5.5
t56.5 -16.5t38 -28.5t14 -41.5q0 -23 -8.5 -39.5t-21.5 -27.5q-8 5 -24 10.5t-35 10t-38.5 7.5t-35.5 3q-33 0 -51 -7.5t-18 -23.5q0 -11 10 -18t38 -13l31 -7q96 -22 136.5 -60.5t40.5 -99.5zM283 -223q-17 -18 -36.5 -25.5t-42.5 -7.5q-38 0 -64 23q21 42 31.5 81.5
t15.5 78.5q16 8 37.5 14.5t43.5 6.5q32 0 52 -12t20 -40q0 -12 -5.5 -28.5t-13.5 -33t-18 -32t-20 -25.5z" />
    <glyph glyph-name="Wgrave" unicode="&#x1e80;" horiz-adv-x="863" 
d="M345 458q11 5 34.5 11.5t47.5 6.5q42 0 70 -12.5t34 -36.5q11 -41 20.5 -76.5t18.5 -68t17.5 -64.5t16.5 -67h5q9 61 16 116.5t13 109t12 106t12 106.5q37 21 79 21q37 0 64 -16t27 -54q0 -22 -4.5 -62.5t-12 -90.5t-17.5 -105t-21 -105t-22.5 -90.5t-21.5 -62.5
q-15 -14 -49 -23t-70 -9q-47 0 -79.5 12.5t-39.5 35.5q-13 40 -28 95t-32 121q-14 -65 -29 -127t-27 -105q-15 -14 -45 -23t-66 -9q-45 0 -81.5 12.5t-47.5 35.5q-9 18 -19.5 53.5t-21.5 81t-22.5 98.5t-21 106t-17.5 103.5t-12 92.5q14 13 39 24t54 11q38 0 62.5 -16.5
t30.5 -55.5q16 -102 26.5 -170t17 -111.5t9.5 -67.5t6 -38h5q9 40 17 74t16.5 68.5t17.5 74t19 90.5zM261 739q-1 4 -1.5 11.5t-0.5 11.5q0 37 21 57.5t52 20.5q20 0 37 -9t37 -28l86 -85q-5 -35 -26 -52t-45 -17q-21 0 -36 7.5t-32 18.5z" />
    <glyph glyph-name="wgrave" unicode="&#x1e81;" horiz-adv-x="791" 
d="M400 273q-7 -35 -17 -72.5t-20.5 -72t-19.5 -64t-14 -47.5q-14 -12 -38 -19.5t-57 -7.5q-41 0 -71 11.5t-40 32.5q-7 16 -16 45t-18.5 65.5t-19 78.5t-18 84t-16 81.5t-12.5 72.5q14 14 37.5 24.5t51.5 10.5q35 0 57.5 -15.5t27.5 -53.5q10 -76 17 -125.5t11.5 -81t7 -48
t4.5 -26.5h4q3 16 10.5 46.5t17.5 69.5t21 84.5t22 90.5q20 11 39.5 17t48.5 6q35 0 60 -11t32 -34q12 -44 23 -85.5t20 -77t16 -63t10 -43.5h5q11 77 21.5 160t19.5 169q18 11 38 16t40 5q35 0 58 -15t23 -52q0 -16 -5 -47.5t-13 -71.5t-18.5 -84t-21 -84.5t-20 -73.5
t-16.5 -51q-14 -12 -43 -19.5t-62 -7.5q-84 0 -99 42q-6 18 -15 45.5t-19 59.5t-19 67.5t-15 68.5zM221 646q-1 4 -1.5 11.5t-0.5 11.5q0 37 21 57.5t52 20.5q20 0 38.5 -8t35.5 -29l89 -111q-5 -35 -26 -52t-45 -17q-21 0 -35.5 6t-29.5 20z" />
    <glyph glyph-name="Wacute" unicode="&#x1e82;" horiz-adv-x="863" 
d="M345 458q11 5 34.5 11.5t47.5 6.5q42 0 70 -12.5t34 -36.5q11 -41 20.5 -76.5t18.5 -68t17.5 -64.5t16.5 -67h5q9 61 16 116.5t13 109t12 106t12 106.5q37 21 79 21q37 0 64 -16t27 -54q0 -22 -4.5 -62.5t-12 -90.5t-17.5 -105t-21 -105t-22.5 -90.5t-21.5 -62.5
q-15 -14 -49 -23t-70 -9q-47 0 -79.5 12.5t-39.5 35.5q-13 40 -28 95t-32 121q-14 -65 -29 -127t-27 -105q-15 -14 -45 -23t-66 -9q-45 0 -81.5 12.5t-47.5 35.5q-9 18 -19.5 53.5t-21.5 81t-22.5 98.5t-21 106t-17.5 103.5t-12 92.5q14 13 39 24t54 11q38 0 62.5 -16.5
t30.5 -55.5q16 -102 26.5 -170t17 -111.5t9.5 -67.5t6 -38h5q9 40 17 74t16.5 68.5t17.5 74t19 90.5zM521 846q42 0 65.5 -20.5t23.5 -50.5q0 -20 -9.5 -36t-37.5 -33l-100 -58q-40 0 -60.5 18t-20.5 42q0 12 3.5 23t19.5 25z" />
    <glyph glyph-name="wacute" unicode="&#x1e83;" horiz-adv-x="791" 
d="M400 273q-7 -35 -17 -72.5t-20.5 -72t-19.5 -64t-14 -47.5q-14 -12 -38 -19.5t-57 -7.5q-41 0 -71 11.5t-40 32.5q-7 16 -16 45t-18.5 65.5t-19 78.5t-18 84t-16 81.5t-12.5 72.5q14 14 37.5 24.5t51.5 10.5q35 0 57.5 -15.5t27.5 -53.5q10 -76 17 -125.5t11.5 -81t7 -48
t4.5 -26.5h4q3 16 10.5 46.5t17.5 69.5t21 84.5t22 90.5q20 11 39.5 17t48.5 6q35 0 60 -11t32 -34q12 -44 23 -85.5t20 -77t16 -63t10 -43.5h5q11 77 21.5 160t19.5 169q18 11 38 16t40 5q35 0 58 -15t23 -52q0 -16 -5 -47.5t-13 -71.5t-18.5 -84t-21 -84.5t-20 -73.5
t-16.5 -51q-14 -12 -43 -19.5t-62 -7.5q-84 0 -99 42q-6 18 -15 45.5t-19 59.5t-19 67.5t-15 68.5zM473 752q52 0 78 -22t26 -50q0 -23 -10 -38.5t-34 -35.5l-95 -78q-45 0 -67 21t-22 45q0 12 4.5 23t18.5 26z" />
    <glyph glyph-name="Wdieresis" unicode="&#x1e84;" horiz-adv-x="863" 
d="M345 458q11 5 34.5 11.5t47.5 6.5q42 0 70 -12.5t34 -36.5q11 -41 20.5 -76.5t18.5 -68t17.5 -64.5t16.5 -67h5q9 61 16 116.5t13 109t12 106t12 106.5q37 21 79 21q37 0 64 -16t27 -54q0 -22 -4.5 -62.5t-12 -90.5t-17.5 -105t-21 -105t-22.5 -90.5t-21.5 -62.5
q-15 -14 -49 -23t-70 -9q-47 0 -79.5 12.5t-39.5 35.5q-13 40 -28 95t-32 121q-14 -65 -29 -127t-27 -105q-15 -14 -45 -23t-66 -9q-45 0 -81.5 12.5t-47.5 35.5q-9 18 -19.5 53.5t-21.5 81t-22.5 98.5t-21 106t-17.5 103.5t-12 92.5q14 13 39 24t54 11q38 0 62.5 -16.5
t30.5 -55.5q16 -102 26.5 -170t17 -111.5t9.5 -67.5t6 -38h5q9 40 17 74t16.5 68.5t17.5 74t19 90.5zM408 748q0 -35 -23.5 -58.5t-61.5 -23.5t-61 23.5t-23 58.5t23 59t61 24t61.5 -24t23.5 -59zM623 748q0 -35 -23 -58.5t-61 -23.5t-61.5 23.5t-23.5 58.5t23.5 59t61.5 24
t61 -24t23 -59z" />
    <glyph glyph-name="wdieresis" unicode="&#x1e85;" horiz-adv-x="791" 
d="M400 273q-7 -35 -17 -72.5t-20.5 -72t-19.5 -64t-14 -47.5q-14 -12 -38 -19.5t-57 -7.5q-41 0 -71 11.5t-40 32.5q-7 16 -16 45t-18.5 65.5t-19 78.5t-18 84t-16 81.5t-12.5 72.5q14 14 37.5 24.5t51.5 10.5q35 0 57.5 -15.5t27.5 -53.5q10 -76 17 -125.5t11.5 -81t7 -48
t4.5 -26.5h4q3 16 10.5 46.5t17.5 69.5t21 84.5t22 90.5q20 11 39.5 17t48.5 6q35 0 60 -11t32 -34q12 -44 23 -85.5t20 -77t16 -63t10 -43.5h5q11 77 21.5 160t19.5 169q18 11 38 16t40 5q35 0 58 -15t23 -52q0 -16 -5 -47.5t-13 -71.5t-18.5 -84t-21 -84.5t-20 -73.5
t-16.5 -51q-14 -12 -43 -19.5t-62 -7.5q-84 0 -99 42q-6 18 -15 45.5t-19 59.5t-19 67.5t-15 68.5zM371 620q0 -35 -23.5 -58.5t-61.5 -23.5t-61 23.5t-23 58.5t23 59t61 24t61.5 -24t23.5 -59zM586 620q0 -35 -23 -58.5t-61 -23.5t-61.5 23.5t-23.5 58.5t23.5 59t61.5 24
t61 -24t23 -59z" />
    <glyph glyph-name="Ygrave" unicode="&#x1ef2;" horiz-adv-x="574" 
d="M562 535q0 -12 -6.5 -31.5t-26 -57t-54.5 -97.5t-92 -152v-196q-11 -3 -33.5 -6t-45.5 -3q-52 0 -72 18t-20 63v127q-26 37 -56 84.5t-59 97t-53.5 96.5t-38.5 83q13 18 35.5 33t55.5 15q39 0 63.5 -16t46.5 -60l88 -177h6q14 31 25.5 58t22.5 54.5t22.5 56.5t25.5 65
q18 9 40 14t42 5q35 0 59.5 -18.5t24.5 -55.5zM114 739q-1 4 -1.5 11.5t-0.5 11.5q0 37 21 57.5t52 20.5q20 0 37 -9t37 -28l86 -85q-5 -35 -26 -52t-45 -17q-21 0 -36 7.5t-32 18.5z" />
    <glyph glyph-name="ygrave" unicode="&#x1ef3;" horiz-adv-x="551" 
d="M128 124q-11 25 -23.5 56t-26 71t-28 91.5t-30.5 118.5q14 14 37.5 24.5t51.5 10.5q35 0 58 -14.5t34 -54.5q20 -70 39.5 -138.5t39.5 -136.5h4q12 34 23.5 74t22.5 82.5t20.5 85t16.5 83.5q17 9 35 14t38 5q35 0 61 -15t26 -52q0 -40 -12.5 -95.5t-32.5 -115t-45 -116.5
t-50 -100q-57 -98 -104.5 -144.5t-96.5 -46.5q-40 0 -67 25t-32 65q32 27 64 61t56 69q-17 5 -36.5 23.5t-42.5 69.5zM113 646q-1 4 -1.5 11.5t-0.5 11.5q0 37 21 57.5t52 20.5q20 0 38.5 -8t35.5 -29l89 -111q-5 -35 -26 -52t-45 -17q-21 0 -35.5 6t-29.5 20z" />
    <glyph glyph-name="circumflex" unicode="&#x2c6;" horiz-adv-x="348" 
d="M171 626q-13 -15 -23.5 -26t-19.5 -21.5l-18 -21t-20 -23.5q-39 0 -62 17.5t-23 46.5q0 20 11 34.5t33 36.5l34 34q19 19 40.5 30.5t50.5 11.5q26 0 48 -10t51 -45l71 -87q0 -28 -16.5 -47.5t-50.5 -19.5q-20 0 -35 10.5t-31 30.5z" />
    <glyph glyph-name="caron" unicode="&#x2c7;" horiz-adv-x="350" 
d="M174 656l90 84q39 0 62 -18.5t23 -47.5q0 -22 -11.5 -36.5t-36.5 -34.5l-45 -37q-20 -17 -39.5 -24t-39.5 -7q-14 0 -25 2t-22.5 7t-25.5 15t-33 27l-74 64q-1 5 -1.5 9t-0.5 9q0 26 15.5 48t48.5 22q10 0 18.5 -1.5t17.5 -7t20 -14.5t25 -24z" />
    <glyph glyph-name="breve" unicode="&#x2d8;" horiz-adv-x="336" 
d="M170 678q31 0 50.5 15t25.5 37q5 1 9 1h9q41 0 60.5 -23t19.5 -49q0 -45 -45 -75.5t-129 -30.5t-129 30.5t-45 75.5q0 26 19.5 49t60.5 23h9t9 -1q5 -22 25 -37t51 -15z" />
    <glyph glyph-name="dotaccent" unicode="&#x2d9;" horiz-adv-x="206" 
d="M193 632q0 -37 -24.5 -62t-65.5 -25t-65.5 25t-24.5 62t24.5 62t65.5 25t65.5 -25t24.5 -62z" />
    <glyph glyph-name="ring" unicode="&#x2da;" horiz-adv-x="286" 
d="M8 641q0 47 35.5 79.5t96.5 32.5q65 0 101 -32.5t36 -79.5t-36 -79t-101 -32q-61 0 -96.5 32t-35.5 79zM109 641q0 -16 9.5 -25t22.5 -9q15 0 24.5 9t9.5 25t-9.5 25t-24.5 9q-13 0 -22.5 -9t-9.5 -25z" />
    <glyph glyph-name="ogonek" unicode="&#x2db;" horiz-adv-x="235" 
d="M203 11q-15 -8 -25.5 -20.5t-10.5 -32.5t14 -32t40 -12h5q3 -9 5 -19t2 -23q0 -14 -4.5 -27.5t-16 -24t-29.5 -16.5t-45 -6q-55 0 -90.5 27.5t-35.5 78.5q0 39 19.5 66t38.5 36z" />
    <glyph glyph-name="tilde" unicode="&#x2dc;" horiz-adv-x="374" 
d="M99 715q21 0 41 -4.5t38.5 -10t34 -10t27.5 -4.5q22 0 34 13t17 22h4q32 0 55 -22.5t23 -57.5q0 -45 -28 -66t-70 -21q-24 0 -44.5 4.5t-37.5 10t-32 10t-27 4.5q-22 0 -33.5 -12.5t-17.5 -22.5h-3q-32 0 -55.5 22t-23.5 58q0 22 8.5 38.5t22.5 27.5t31.5 16t35.5 5z" />
    <glyph glyph-name="hungarumlaut" unicode="&#x2dd;" horiz-adv-x="488" 
d="M125 752q52 0 78 -22t26 -50q0 -22 -11 -36.5t-33 -37.5l-75 -78q-45 0 -67 21t-22 45q0 12 3.5 22t16.5 27zM352 752q52 0 78 -22t26 -50q0 -22 -11 -36.5t-33 -37.5l-75 -78q-45 0 -67 21t-22 45q0 12 3.5 22t16.5 27z" />
    <glyph glyph-name="gravecomb" unicode="&#x300;" 
d="M-284 646q-1 4 -1.5 11.5t-0.5 11.5q0 37 21 57.5t52 20.5q20 0 38.5 -8t35.5 -29l89 -111q-5 -35 -26 -52t-45 -17q-21 0 -35.5 6t-29.5 20z" />
    <glyph glyph-name="acutecomb" unicode="&#x301;" 
d="M-121 752q52 0 78 -22t26 -50q0 -23 -10 -38.5t-34 -35.5l-95 -78q-45 0 -67 21t-22 45q0 12 4.5 23t18.5 26z" />
    <glyph glyph-name="tildecomb" unicode="&#x303;" 
d="M-275 715q21 0 41 -4.5t38.5 -10t34 -10t27.5 -4.5q22 0 34 13t17 22q35 0 58.5 -22.5t23.5 -57.5q0 -45 -28 -66t-70 -21q-24 0 -44.5 4.5t-37.5 10t-32 10t-27 4.5q-22 0 -33.5 -12.5t-17.5 -22.5q-35 0 -58.5 22.5t-23.5 57.5q0 22 8.5 38.5t22.5 27.5t31.5 16t35.5 5
z" />
    <glyph glyph-name="hookabovecomb" unicode="&#x309;" 
d="M-139 772q29 0 57.5 -7t51 -21.5t36.5 -37t14 -52.5q0 -26 -9 -44.5t-24 -31t-34.5 -19t-40.5 -7.5v-27q-5 -3 -19.5 -6.5t-33.5 -3.5q-35 0 -47 7t-12 19v38q0 26 12.5 34.5t29.5 8.5h17q37 0 37 28q0 14 -13 22.5t-41 8.5q-23 0 -43 -6t-32 -11q-24 16 -24 46
q0 31 35 46.5t83 15.5z" />
    <glyph glyph-name="dotbelowcomb" unicode="&#x323;" 
d="M-13 -142q0 -37 -24.5 -62t-65.5 -25t-65.5 25t-24.5 62t24.5 62t65.5 25t65.5 -25t24.5 -62z" />
    <glyph glyph-name="capgrave" horiz-adv-x="271" 
d="M18 739q-1 4 -1.5 11.5t-0.5 11.5q0 37 21 57.5t52 20.5q20 0 37 -9t37 -28l86 -85q-5 -35 -26 -52t-45 -17q-21 0 -36 7.5t-32 18.5z" />
    <glyph glyph-name="capacute" horiz-adv-x="271" 
d="M185 846q42 0 65.5 -20.5t23.5 -50.5q0 -20 -9.5 -36t-37.5 -33l-100 -58q-40 0 -60.5 18t-20.5 42q0 12 3.5 23t19.5 25z" />
    <glyph glyph-name="caphungarumlaut" horiz-adv-x="298" 
d="M104 846q52 0 76 -21.5t24 -49.5q0 -22 -10.5 -37t-32.5 -38l-51 -52q-45 0 -66.5 19.5t-21.5 43.5q0 12 4 23.5t17 28.5zM321 846q52 0 76 -21.5t24 -49.5q0 -22 -10.5 -37t-32.5 -38l-51 -52q-45 0 -66.5 19.5t-21.5 43.5q0 12 4 23.5t17 28.5z" />
    <glyph glyph-name="capring" horiz-adv-x="272" 
d="M8 754q0 46 35.5 77.5t96.5 31.5q65 0 101 -31.5t36 -77.5t-36 -77t-101 -31q-61 0 -96.5 31t-35.5 77zM109 754q0 -14 9.5 -22.5t22.5 -8.5q15 0 24.5 8.5t9.5 22.5t-9.5 22.5t-24.5 8.5q-13 0 -22.5 -8.5t-9.5 -22.5z" />
    <glyph glyph-name="capcircumflex" horiz-adv-x="366" 
d="M189 734q-24 -23 -48 -45t-46 -40q-31 0 -52 18t-21 45q0 21 10 36t37 36l29 22q29 22 51 31.5t42 9.5q26 0 47 -9.5t44 -32.5l81 -81q0 -36 -18.5 -54t-50.5 -18q-20 0 -37 13t-41 39l-27 30v0z" />
    <glyph glyph-name="capcaron" horiz-adv-x="366" 
d="M197 762q25 23 49 45t46 40q32 0 53 -18t21 -46q0 -21 -10 -36.5t-38 -36.5l-28 -21q-29 -22 -49 -30.5t-44 -8.5q-30 0 -52 11.5t-42 29.5l-83 75q0 37 17.5 57.5t49.5 20.5q20 0 37.5 -10.5t45.5 -41.5l27 -30v0z" />
    <glyph glyph-name="capdblgrave" horiz-adv-x="298" 
d="M16 760v7q0 37 21 56.5t50 19.5q23 0 40 -12t31 -34l59 -89q-8 -32 -27.5 -44.5t-42.5 -12.5q-20 0 -37 10t-28 25zM223 760v7q0 37 21 56.5t50 19.5q23 0 40 -12t31 -34l59 -89q-8 -32 -27.5 -44.5t-42.5 -12.5q-21 0 -36.5 10.5t-28.5 24.5z" />
    <glyph glyph-name="uni02BC" unicode="&#x2bc;" horiz-adv-x="222" 
d="M152 390q-11 -17 -26 -25t-38 -8q-19 0 -35 4t-31 11q5 60 10 125t7 117q14 8 36.5 15t43.5 7q16 0 31.5 -3t27.5 -10.5t19 -20t7 -30.5q0 -20 -4 -45t-11.5 -50.5t-17 -48.5t-19.5 -38z" />
    <glyph glyph-name="uni02BB" unicode="&#x2bb;" horiz-adv-x="224" 
d="M72 603q11 17 26 25t38 8q19 0 35 -4t31 -11q-5 -60 -10 -125t-7 -117q-14 -8 -36.5 -15t-43.5 -7q-16 0 -31.5 3t-27.5 10.5t-19 20t-7 30.5q0 19 4 44.5t11.5 51t16.5 48.5t20 38z" />
    <glyph glyph-name="uni02C9" unicode="&#x2c9;" horiz-adv-x="363" 
d="M30 564q-5 11 -10.5 27.5t-5.5 34.5q0 37 15 51.5t40 14.5h265q8 -11 12 -27.5t4 -34.5q0 -37 -14.5 -51.5t-39.5 -14.5h-266z" />
    <glyph glyph-name="uni02CB" unicode="&#x2cb;" horiz-adv-x="292" 
d="M18 646q-1 4 -1.5 11.5t-0.5 11.5q0 37 21 57.5t52 20.5q20 0 38.5 -8t35.5 -29l89 -111q-5 -35 -26 -52t-45 -17q-21 0 -35.5 6t-29.5 20z" />
    <glyph glyph-name="uni02BE" unicode="&#x2be;" horiz-adv-x="274" 
d="M108 509q0 70 -84 70q-2 5 -3 14t-1 14q0 29 21.5 47.5t60.5 18.5q25 0 49.5 -10t44 -30.5t31.5 -51t12 -72.5t-12 -72.5t-31.5 -51t-44 -30.5t-49.5 -10q-39 0 -60.5 18.5t-21.5 47.5q0 5 1 14t3 14q84 0 84 70z" />
    <glyph glyph-name="uni02BF" unicode="&#x2bf;" horiz-adv-x="274" 
d="M166 509q0 -70 84 -70q2 -5 3 -14t1 -14q0 -29 -21.5 -47.5t-60.5 -18.5q-25 0 -49.5 10t-44 30.5t-31.5 51t-12 72.5t12 72.5t31.5 51t44 30.5t49.5 10q39 0 60.5 -18.5t21.5 -47.5q0 -5 -1 -14t-3 -14q-84 0 -84 -70z" />
    <glyph glyph-name="uni02CA" unicode="&#x2ca;" horiz-adv-x="309" 
d="M177 752q52 0 78 -22t26 -50q0 -23 -10 -38.5t-34 -35.5l-95 -78q-45 0 -67 21t-22 45q0 12 4.5 23t18.5 26z" />
    <glyph glyph-name="uni02CC" unicode="&#x2cc;" horiz-adv-x="382" 
d="M246 -332q-8 -2 -25.5 -4.5t-32.5 -2.5q-35 0 -52.5 11t-17.5 49v178q8 2 25.5 5t33.5 3q32 0 50.5 -11.5t18.5 -48.5v-179z" />
    <glyph glyph-name="uni02C8" unicode="&#x2c8;" horiz-adv-x="342" 
d="M246 536q-8 -2 -25.5 -4.5t-32.5 -2.5q-35 0 -52.5 11t-17.5 49v178q8 2 25.5 5t33.5 3q32 0 50.5 -11.5t18.5 -48.5v-179z" />
    <glyph glyph-name="uni0308" unicode="&#x308;" horiz-adv-x="374" 
d="M163 630q0 -35 -23.5 -58.5t-61.5 -23.5t-61 23.5t-23 58.5t23 59t61 24t61.5 -24t23.5 -59zM378 630q0 -35 -23 -58.5t-61 -23.5t-61.5 23.5t-23.5 58.5t23.5 59t61.5 24t61 -24t23 -59z" />
    <glyph glyph-name="uni0307" unicode="&#x307;" horiz-adv-x="206" 
d="M193 632q0 -37 -24.5 -62t-65.5 -25t-65.5 25t-24.5 62t24.5 62t65.5 25t65.5 -25t24.5 -62z" />
    <glyph glyph-name="uni030B" unicode="&#x30b;" horiz-adv-x="298" 
d="M125 752q52 0 78 -22t26 -50q0 -22 -11 -36.5t-33 -37.5l-75 -78q-45 0 -67 21t-22 45q0 12 3.5 22t16.5 27zM352 752q52 0 78 -22t26 -50q0 -22 -11 -36.5t-33 -37.5l-75 -78q-45 0 -67 21t-22 45q0 12 3.5 22t16.5 27z" />
    <glyph glyph-name="uni0302" unicode="&#x302;" horiz-adv-x="348" 
d="M171 626q-13 -15 -23.5 -26t-19.5 -21.5l-18 -21t-20 -23.5q-39 0 -62 17.5t-23 46.5q0 20 11 34.5t33 36.5l34 34q19 19 40.5 30.5t50.5 11.5q26 0 48 -10t51 -45l71 -87q0 -28 -16.5 -47.5t-50.5 -19.5q-20 0 -35 10.5t-31 30.5z" />
    <glyph glyph-name="uni030C" unicode="&#x30c;" horiz-adv-x="350" 
d="M174 656l90 84q39 0 62 -18.5t23 -47.5q0 -22 -11.5 -36.5t-36.5 -34.5l-45 -37q-20 -17 -39.5 -24t-39.5 -7q-14 0 -25 2t-22.5 7t-25.5 15t-33 27l-74 64q-1 5 -1.5 9t-0.5 9q0 26 15.5 48t48.5 22q10 0 18.5 -1.5t17.5 -7t20 -14.5t25 -24z" />
    <glyph glyph-name="uni030C.alt" horiz-adv-x="225" 
d="M143 493q-17 -18 -36.5 -25.5t-42.5 -7.5q-38 0 -64 23q21 42 31.5 81.5t15.5 78.5q16 8 37.5 14.5t43.5 6.5q32 0 52 -12t20 -40q0 -12 -5.5 -28.5t-13.5 -33t-18 -32t-20 -25.5z" />
    <glyph glyph-name="uni0306" unicode="&#x306;" horiz-adv-x="336" 
d="M170 678q31 0 50.5 15t25.5 37q5 1 9 1h9q41 0 60.5 -23t19.5 -49q0 -45 -45 -75.5t-129 -30.5t-129 30.5t-45 75.5q0 26 19.5 49t60.5 23h9t9 -1q5 -22 25 -37t51 -15z" />
    <glyph glyph-name="uni030A" unicode="&#x30a;" horiz-adv-x="286" 
d="M8 641q0 47 35.5 79.5t96.5 32.5q65 0 101 -32.5t36 -79.5t-36 -79t-101 -32q-61 0 -96.5 32t-35.5 79zM109 641q0 -16 9.5 -25t22.5 -9q15 0 24.5 9t9.5 25t-9.5 25t-24.5 9q-13 0 -22.5 -9t-9.5 -25z" />
    <glyph glyph-name="uni0304" unicode="&#x304;" horiz-adv-x="321" 
d="M30 564q-5 11 -10.5 27.5t-5.5 34.5q0 37 15 51.5t40 14.5h265q8 -11 12 -27.5t4 -34.5q0 -37 -14.5 -51.5t-39.5 -14.5h-266z" />
    <glyph glyph-name="uni030F" unicode="&#x30f;" horiz-adv-x="302" 
d="M2 658v6q0 38 22 58.5t51 20.5q25 0 43 -12.5t33 -35.5l78 -112q-9 -35 -27 -47.5t-42 -12.5q-20 0 -36.5 10.5t-30.5 25.5zM234 658v5q0 39 21.5 59.5t50.5 20.5q26 0 43.5 -12.5t33.5 -35.5l78 -112q-9 -35 -27 -47.5t-43 -12.5q-20 0 -36 10.5t-30 25.5z" />
    <glyph glyph-name="uni0311" unicode="&#x311;" horiz-adv-x="336" 
d="M170 731q-31 0 -50.5 -15t-25.5 -37q-5 -1 -9 -1h-9q-41 0 -60.5 23t-19.5 49q0 45 45 75.5t129 30.5t129 -30.5t45 -75.5q0 -26 -19.5 -49t-60.5 -23h-9t-9 1q-5 22 -25 37t-51 15z" />
    <glyph glyph-name="uni0312" unicode="&#x312;" horiz-adv-x="224" 
d="M77 698q17 18 36.5 25.5t42.5 7.5q38 0 64 -23q-21 -42 -31.5 -81.5t-15.5 -78.5q-16 -8 -37.5 -14.5t-43.5 -6.5q-32 0 -52 12t-20 40q0 12 5 28.5t13.5 33t18.5 31.5t20 26z" />
    <glyph glyph-name="uni031B" unicode="&#x31b;" horiz-adv-x="218" 
d="M-10 296q-4 6 -7.5 17t-6 25t-4 30t-1.5 31q38 0 62 24.5t24 78.5v34q14 7 27.5 11t33.5 4q32 0 55 -15t23 -51v-6q0 -43 -14.5 -77t-40 -58t-59 -36.5t-71.5 -12.5z" />
    <glyph glyph-name="uni0324" unicode="&#x324;" horiz-adv-x="374" 
d="M163 -148q0 -35 -23.5 -58.5t-61.5 -23.5t-61 23.5t-23 58.5t23 59t61 24t61.5 -24t23.5 -59zM378 -148q0 -35 -23 -58.5t-61 -23.5t-61.5 23.5t-23.5 58.5t23.5 59t61.5 24t61 -24t23 -59z" />
    <glyph glyph-name="uni0326" unicode="&#x326;" horiz-adv-x="200" 
d="M143 -223q-17 -18 -36.5 -25.5t-42.5 -7.5q-38 0 -64 23q21 42 31.5 81.5t15.5 78.5q16 8 37.5 14.5t43.5 6.5q32 0 52 -12t20 -40q0 -12 -5.5 -28.5t-13.5 -33t-18 -32t-20 -25.5z" />
    <glyph glyph-name="uni0327" unicode="&#x327;" horiz-adv-x="195" 
d="M126 38q38 -21 53 -53t15 -69q0 -51 -32 -84.5t-89 -33.5q-42 0 -67.5 20.5t-25.5 58.5q0 17 4 30h10q31 0 44.5 15t13.5 37q0 10 -4 23t-13 23z" />
    <glyph glyph-name="uni0328" unicode="&#x328;" horiz-adv-x="235" 
d="M203 11q-15 -8 -25.5 -20.5t-10.5 -32.5t14 -32t40 -12h5q3 -9 5 -19t2 -23q0 -14 -4.5 -27.5t-16 -24t-29.5 -16.5t-45 -6q-55 0 -90.5 27.5t-35.5 78.5q0 39 19.5 66t38.5 36z" />
    <glyph glyph-name="uni032E" unicode="&#x32e;" horiz-adv-x="336" 
d="M170 -82q31 0 50.5 15t25.5 37q5 1 9 1h9q41 0 60.5 -23t19.5 -49q0 -45 -45 -75.5t-129 -30.5t-129 30.5t-45 75.5q0 26 19.5 49t60.5 23h9t9 -1q5 -22 25 -37t51 -15z" />
    <glyph glyph-name="uni0331" unicode="&#x331;" horiz-adv-x="368" 
d="M25 -214q-5 11 -10.5 27.5t-5.5 34.5q0 37 15 51.5t40 14.5h275q8 -11 12 -27.5t4 -34.5q0 -37 -14.5 -51.5t-39.5 -14.5h-276z" />
    <glyph glyph-name="acute.vit" horiz-adv-x="336" 
d="M159 939q43 0 63 -18t20 -41q0 -17 -8.5 -30.5t-26.5 -31.5l-62 -63q-33 0 -53 16t-20 36q0 10 3.5 19.5t14.5 23.5z" />
    <glyph glyph-name="grave.vit" horiz-adv-x="303" 
d="M46 871q1 32 19.5 49.5t41.5 17.5q22 0 37.5 -10.5t29.5 -30.5l61 -92q-4 -25 -21 -38t-36 -13q-16 0 -28.5 7t-25.5 21z" />
    <glyph glyph-name="tilde.vit" horiz-adv-x="577" 
d="M189 923q18 0 37 -4t36.5 -9.5t32 -9.5t25.5 -4q20 0 30 9.5t15 22.5h4q29 0 49.5 -17.5t20.5 -48.5q0 -37 -25 -55.5t-63 -18.5q-21 0 -40 4t-35.5 9t-30.5 9t-25 4q-20 0 -30 -9.5t-15 -21.5h-4q-28 0 -49.5 17.5t-21.5 49.5q0 20 8 34t20.5 22.5t28.5 12.5t32 4z" />
    <glyph glyph-name="circumflex.vit" horiz-adv-x="348" 
d="M171 626q-13 -15 -23.5 -26t-19.5 -21.5l-18 -21t-20 -23.5q-39 0 -62 17.5t-23 46.5q0 20 11 34.5t33 36.5l34 34q19 19 40.5 30.5t50.5 11.5q26 0 48 -10t51 -45l71 -87q0 -28 -16.5 -47.5t-50.5 -19.5q-20 0 -35 10.5t-31 30.5z" />
    <glyph glyph-name="caron.vit" horiz-adv-x="350" 
d="M21 872q0 28 16.5 44.5t38.5 16.5q17 0 28.5 -8.5t22.5 -20.5l49 -55l79 84q36 0 53.5 -17t17.5 -33q0 -17 -8.5 -29t-23.5 -25l-65 -56q-10 -8 -22 -15.5t-29 -7.5q-16 0 -28 6.5t-23 16.5z" />
    <glyph glyph-name="hook.vit" horiz-adv-x="273" 
d="M115 952q51 0 85 -26t34 -74q0 -38 -24 -57t-52 -21v-32q-8 -3 -17.5 -5t-23.5 -2q-23 0 -35 5.5t-12 20.5v41q0 28 27 28h5q34 0 34 23q0 24 -36 24q-16 0 -31 -5t-25 -10q-9 7 -14 17t-5 21q0 25 25 38.5t65 13.5z" />
    <glyph glyph-name="uni1E0C" unicode="&#x1e0c;" horiz-adv-x="666" 
d="M451 301q0 90 -42 135.5t-112 45.5q-14 0 -28.5 -1t-29.5 -3v-348q11 -2 27 -3.5t30 -1.5q69 0 112 44t43 132zM631 304q0 -80 -24 -140t-68.5 -100t-106.5 -60t-137 -20q-17 0 -39 1t-45.5 4t-47 7.5t-43.5 12.5q-55 21 -55 73v467q0 21 11.5 32.5t31.5 18.5
q43 14 91 18.5t86 4.5q78 0 141.5 -19t109 -58.5t70.5 -99.5t25 -142zM388 -142q0 -37 -24.5 -62t-65.5 -25t-65.5 25t-24.5 62t24.5 62t65.5 25t65.5 -25t24.5 -62z" />
    <glyph glyph-name="uni1E0D" unicode="&#x1e0d;" horiz-adv-x="586" 
d="M288 501q43 0 74 -11v162q11 3 31.5 6t44.5 3q50 0 72 -16.5t22 -63.5v-474q0 -47 -44 -75q-29 -19 -74.5 -33.5t-105.5 -14.5q-131 0 -204 64.5t-73 192.5q0 66 20 115t54.5 81t81.5 48t101 16zM363 357q-11 5 -24 8t-27 3q-52 0 -80.5 -31.5t-28.5 -95.5q0 -63 27 -93
t77 -30q18 0 33 4t23 9v226zM398 -142q0 -37 -24.5 -62t-65.5 -25t-65.5 25t-24.5 62t24.5 62t65.5 25t65.5 -25t24.5 -62z" />
    <glyph glyph-name="uni1E0E" unicode="&#x1e0e;" horiz-adv-x="666" 
d="M451 301q0 90 -42 135.5t-112 45.5q-14 0 -28.5 -1t-29.5 -3v-348q11 -2 27 -3.5t30 -1.5q69 0 112 44t43 132zM631 304q0 -80 -24 -140t-68.5 -100t-106.5 -60t-137 -20q-17 0 -39 1t-45.5 4t-47 7.5t-43.5 12.5q-55 21 -55 73v467q0 21 11.5 32.5t31.5 18.5
q43 14 91 18.5t86 4.5q78 0 141.5 -19t109 -58.5t70.5 -99.5t25 -142zM145 -214q-5 11 -10.5 27.5t-5.5 34.5q0 37 15 51.5t40 14.5h275q8 -11 12 -27.5t4 -34.5q0 -37 -14.5 -51.5t-39.5 -14.5h-276z" />
    <glyph glyph-name="uni1E0F" unicode="&#x1e0f;" horiz-adv-x="586" 
d="M288 501q43 0 74 -11v162q11 3 31.5 6t44.5 3q50 0 72 -16.5t22 -63.5v-474q0 -47 -44 -75q-29 -19 -74.5 -33.5t-105.5 -14.5q-131 0 -204 64.5t-73 192.5q0 66 20 115t54.5 81t81.5 48t101 16zM363 357q-11 5 -24 8t-27 3q-52 0 -80.5 -31.5t-28.5 -95.5q0 -63 27 -93
t77 -30q18 0 33 4t23 9v226zM145 -214q-5 11 -10.5 27.5t-5.5 34.5q0 37 15 51.5t40 14.5h275q8 -11 12 -27.5t4 -34.5q0 -37 -14.5 -51.5t-39.5 -14.5h-276z" />
    <glyph glyph-name="uni0237" unicode="&#x237;" horiz-adv-x="287" 
d="M231 -5q0 -49 -11.5 -84t-31 -57.5t-45.5 -33.5t-55 -11q-44 0 -69 26.5t-26 66.5q36 18 52 42.5t16 66.5v473q11 3 31.5 6t44.5 3q50 0 72 -16.5t22 -63.5v-418v0z" />
    <glyph glyph-name="uni0251" unicode="&#x251;" horiz-adv-x="586" 
d="M532 175q0 -50 8.5 -76t24.5 -44q-5 -29 -31 -50t-62 -21q-27 0 -46.5 10t-30.5 27q-24 -17 -56 -27t-72 -10q-48 0 -90.5 15t-75 46t-51.5 78.5t-19 113.5q0 67 20.5 116.5t57.5 82.5t87.5 49t110.5 16q56 0 104.5 -12.5t77.5 -32.5q20 -14 31.5 -31.5t11.5 -44.5v-205z
M298 118q20 0 37 6.5t28 17.5v214q-8 5 -22 8.5t-30 3.5q-53 0 -80.5 -32t-27.5 -95q0 -66 26 -94.5t69 -28.5z" />
    <glyph glyph-name="uni0259" unicode="&#x259;" horiz-adv-x="549" 
d="M30 196q0 34 19 52t53 23l248 37q-14 37 -46 51.5t-72 14.5q-39 0 -74 -10.5t-57 -24.5q-15 10 -26.5 28t-11.5 38q0 25 13.5 43t37.5 30t57.5 17.5t72.5 5.5q59 0 109 -16.5t87 -49.5t57.5 -83t20.5 -117q0 -66 -21.5 -113.5t-57 -78t-80.5 -45t-92 -14.5
q-53 0 -96.5 16t-75 44t-48.5 67t-17 85zM266 108q38 0 63.5 22.5t30.5 65.5l-170 -28q1 -10 6 -20.5t14 -19.5t23 -14.5t33 -5.5z" />
    <glyph glyph-name="uni0261" unicode="&#x261;" horiz-adv-x="567" 
d="M354 37q-20 -8 -44.5 -12.5t-54.5 -4.5q-45 0 -85.5 12.5t-71 41t-48.5 73.5t-18 110q0 60 18.5 105.5t52 76.5t81.5 46.5t107 15.5q28 0 55 -4t50.5 -11t42.5 -15t32 -17q20 -14 31.5 -31.5t11.5 -44.5v-371q0 -53 -19.5 -91.5t-54 -64t-81 -37.5t-99.5 -12
q-54 0 -95 8.5t-65 24.5q-36 24 -36 68q0 23 9.5 42t21.5 28q29 -16 65.5 -27t76.5 -11q53 0 85 18t32 58v26zM287 147q20 0 35.5 4.5t28.5 12.5v192q-11 5 -22.5 8.5t-30.5 3.5q-43 0 -70 -26.5t-27 -85.5q0 -63 24.5 -86t61.5 -23z" />
    <glyph glyph-name="uni1E20" unicode="&#x1e20;" horiz-adv-x="664" 
d="M614 97q0 -31 -11 -46t-35 -29q-14 -8 -35 -15.5t-46 -13t-52.5 -8.5t-54.5 -3q-72 0 -135 18.5t-109.5 57.5t-73.5 99.5t-27 144.5q0 79 27 139t74 101t110 62t136 21q95 0 150.5 -30t55.5 -79q0 -26 -13 -45t-30 -30q-25 15 -63 29t-87 14q-40 0 -73 -13t-57 -36.5
t-37 -57t-13 -74.5q0 -45 12.5 -79t35 -56.5t53 -34t67.5 -11.5q22 0 38.5 4t25.5 9v96h-107q-6 11 -11.5 29t-5.5 38q0 36 16.5 52t42.5 16h169q30 0 46.5 -16.5t16.5 -46.5v-206zM198 693q-5 11 -10.5 27.5t-5.5 34.5q0 37 15 51.5t40 14.5h265q8 -11 12 -27.5t4 -34.5
q0 -37 -14.5 -51.5t-39.5 -14.5h-266z" />
    <glyph glyph-name="uni1E21" unicode="&#x1e21;" horiz-adv-x="567" 
d="M354 37q-20 -8 -44.5 -12.5t-54.5 -4.5q-45 0 -85.5 12.5t-71 41t-48.5 73.5t-18 110q0 60 18.5 105.5t52 76.5t81.5 46.5t107 15.5q28 0 55 -4t50.5 -11t42.5 -15t32 -17q20 -14 31.5 -31.5t11.5 -44.5v-371q0 -53 -19.5 -91.5t-54 -64t-81 -37.5t-99.5 -12
q-54 0 -95 8.5t-65 24.5q-36 24 -36 68q0 23 9.5 42t21.5 28q29 -16 65.5 -27t76.5 -11q53 0 85 18t32 58v26zM287 147q20 0 35.5 4.5t28.5 12.5v192q-11 5 -22.5 8.5t-30.5 3.5q-43 0 -70 -26.5t-27 -85.5q0 -63 24.5 -86t61.5 -23zM135 564q-5 11 -10.5 27.5t-5.5 34.5
q0 37 15 51.5t40 14.5h265q8 -11 12 -27.5t4 -34.5q0 -37 -14.5 -51.5t-39.5 -14.5h-266z" />
    <glyph glyph-name="uni1E24" unicode="&#x1e24;" horiz-adv-x="672" 
d="M256 1q-11 -3 -34 -6t-47 -3q-53 0 -73.5 18t-20.5 65v533q12 2 35 5.5t46 3.5q50 0 72 -17t22 -66v-162h192v236q12 2 35 5.5t46 3.5q50 0 72 -18t22 -67v-531q-11 -3 -34 -6t-47 -3q-53 0 -73.5 18t-20.5 65v159h-192v-233zM450 -142q0 -37 -24.5 -62t-65.5 -25
t-65.5 25t-24.5 62t24.5 62t65.5 25t65.5 -25t24.5 -62z" />
    <glyph glyph-name="uni1E25" unicode="&#x1e25;" horiz-adv-x="585" 
d="M554 1q-11 -3 -31.5 -6t-44.5 -3q-50 0 -72 16.5t-22 63.5v222q0 41 -20.5 57.5t-50.5 16.5q-20 0 -36.5 -5t-30.5 -13v-349q-11 -3 -31.5 -6t-44.5 -3q-50 0 -72 16.5t-22 63.5v580q11 3 31.5 6t44.5 3q50 0 72 -16.5t22 -63.5v-99q20 8 45 13.5t54 5.5q99 0 154 -49.5
t55 -147.5v-303zM409 -142q0 -37 -24.5 -62t-65.5 -25t-65.5 25t-24.5 62t24.5 62t65.5 25t65.5 -25t24.5 -62z" />
    <glyph glyph-name="uni1E2A" unicode="&#x1e2a;" horiz-adv-x="672" 
d="M256 1q-11 -3 -34 -6t-47 -3q-53 0 -73.5 18t-20.5 65v533q12 2 35 5.5t46 3.5q50 0 72 -17t22 -66v-162h192v236q12 2 35 5.5t46 3.5q50 0 72 -18t22 -67v-531q-11 -3 -34 -6t-47 -3q-53 0 -73.5 18t-20.5 65v159h-192v-233zM368 -101q31 0 50.5 15t25.5 37q5 1 9 1h9
q41 0 60.5 -23t19.5 -49q0 -45 -45 -75.5t-129 -30.5t-129 30.5t-45 75.5q0 26 19.5 49t60.5 23h9t9 -1q5 -22 25 -37t51 -15z" />
    <glyph glyph-name="uni1E2B" unicode="&#x1e2b;" horiz-adv-x="585" 
d="M554 1q-11 -3 -31.5 -6t-44.5 -3q-50 0 -72 16.5t-22 63.5v222q0 41 -20.5 57.5t-50.5 16.5q-20 0 -36.5 -5t-30.5 -13v-349q-11 -3 -31.5 -6t-44.5 -3q-50 0 -72 16.5t-22 63.5v580q11 3 31.5 6t44.5 3q50 0 72 -16.5t22 -63.5v-99q20 8 45 13.5t54 5.5q99 0 154 -49.5
t55 -147.5v-303zM330 -101q31 0 50.5 15t25.5 37q5 1 9 1h9q41 0 60.5 -23t19.5 -49q0 -45 -45 -75.5t-129 -30.5t-129 30.5t-45 75.5q0 26 19.5 49t60.5 23h9t9 -1q5 -22 25 -37t51 -15z" />
    <glyph glyph-name="uni1E36" unicode="&#x1e36;" horiz-adv-x="513" 
d="M158 -3q-43 0 -68 25t-25 68v518q12 2 35 5.5t46 3.5q50 0 72 -17t22 -66v-396h229q7 -11 13 -29t6 -39q0 -37 -16 -55t-44 -18h-270zM365 -142q0 -37 -24.5 -62t-65.5 -25t-65.5 25t-24.5 62t24.5 62t65.5 25t65.5 -25t24.5 -62z" />
    <glyph glyph-name="uni1E37" unicode="&#x1e37;" horiz-adv-x="284" 
d="M151 -8q-50 0 -72 16.5t-22 63.5v580q11 3 31.5 6t44.5 3q50 0 72 -16.5t22 -63.5v-580q-11 -3 -31.5 -6t-44.5 -3zM238 -142q0 -37 -24.5 -62t-65.5 -25t-65.5 25t-24.5 62t24.5 62t65.5 25t65.5 -25t24.5 -62z" />
    <glyph glyph-name="uni1E38" unicode="&#x1e38;" horiz-adv-x="513" 
d="M158 -3q-43 0 -68 25t-25 68v518q12 2 35 5.5t46 3.5q50 0 72 -17t22 -66v-396h229q7 -11 13 -29t6 -39q0 -37 -16 -55t-44 -18h-270zM14 693q-5 11 -10.5 27.5t-5.5 34.5q0 37 15 51.5t40 14.5h265q8 -11 12 -27.5t4 -34.5q0 -37 -14.5 -51.5t-39.5 -14.5h-266z
M366 -142q0 -37 -24.5 -62t-65.5 -25t-65.5 25t-24.5 62t24.5 62t65.5 25t65.5 -25t24.5 -62z" />
    <glyph glyph-name="uni1E39" unicode="&#x1e39;" horiz-adv-x="284" 
d="M151 -8q-50 0 -72 16.5t-22 63.5v580q11 3 31.5 6t44.5 3q50 0 72 -16.5t22 -63.5v-580q-11 -3 -31.5 -6t-44.5 -3zM-18 714q-5 11 -10.5 27.5t-5.5 34.5q0 37 15 51.5t40 14.5h265q8 -11 12 -27.5t4 -34.5q0 -37 -14.5 -51.5t-39.5 -14.5h-266zM238 -142
q0 -37 -24.5 -62t-65.5 -25t-65.5 25t-24.5 62t24.5 62t65.5 25t65.5 -25t24.5 -62z" />
    <glyph glyph-name="uni1E3A" unicode="&#x1e3a;" horiz-adv-x="513" 
d="M158 -3q-43 0 -68 25t-25 68v518q12 2 35 5.5t46 3.5q50 0 72 -17t22 -66v-396h229q7 -11 13 -29t6 -39q0 -37 -16 -55t-44 -18h-270zM115 -214q-5 11 -10.5 27.5t-5.5 34.5q0 37 15 51.5t40 14.5h275q8 -11 12 -27.5t4 -34.5q0 -37 -14.5 -51.5t-39.5 -14.5h-276z" />
    <glyph glyph-name="uni1E3B" unicode="&#x1e3b;" horiz-adv-x="284" 
d="M151 -8q-50 0 -72 16.5t-22 63.5v580q11 3 31.5 6t44.5 3q50 0 72 -16.5t22 -63.5v-580q-11 -3 -31.5 -6t-44.5 -3zM-3 -214q-5 11 -10.5 27.5t-5.5 34.5q0 37 15 51.5t40 14.5h275q8 -11 12 -27.5t4 -34.5q0 -37 -14.5 -51.5t-39.5 -14.5h-276z" />
    <glyph glyph-name="uni1E42" unicode="&#x1e42;" horiz-adv-x="797" 
d="M484 149q-13 -11 -33.5 -17.5t-47.5 -6.5q-36 0 -59.5 9t-30.5 31q-28 88 -46 142.5t-28 95.5h-5q-3 -59 -4.5 -107.5t-2 -94.5t-2 -93t-4.5 -104q-13 -5 -34 -8.5t-42 -3.5q-44 0 -68.5 14t-24.5 51q0 31 3 90.5t7.5 131.5t9.5 148t9 140q8 13 35 28t76 15
q53 0 83 -16.5t44 -53.5q9 -24 19.5 -55t21 -64t20.5 -65.5l18 -58.5h5q24 84 48 162.5t44 131.5q15 8 38.5 13.5t52.5 5.5q49 0 80 -14.5t36 -41.5q4 -20 8.5 -61.5t9.5 -93.5t10 -110t9.5 -111.5t7.5 -98t4 -68.5q-17 -10 -35.5 -14.5t-47.5 -4.5q-38 0 -64 13t-28 51
q-6 109 -7.5 196t-4.5 146h-5q-10 -39 -29 -98t-46 -151zM493 -142q0 -37 -24.5 -62t-65.5 -25t-65.5 25t-24.5 62t24.5 62t65.5 25t65.5 -25t24.5 -62z" />
    <glyph glyph-name="uni1E43" unicode="&#x1e43;" horiz-adv-x="847" 
d="M794 1q-11 -3 -31.5 -6t-44.5 -3q-50 0 -72 16.5t-22 63.5v239q0 30 -16 43.5t-42 13.5q-17 0 -32.5 -6t-26.5 -14q0 -4 0.5 -7.5t0.5 -6.5v-333q-11 -3 -31.5 -6t-44.5 -3q-50 0 -72 16.5t-22 63.5v239q0 30 -17.5 43.5t-42.5 13.5q-19 0 -33 -5.5t-23 -10.5v-351
q-11 -3 -31.5 -6t-44.5 -3q-50 0 -72 16.5t-22 63.5v301q0 27 11.5 44t31.5 31q34 24 84 38.5t106 14.5q41 0 78.5 -11t70.5 -34q30 19 67.5 32t90.5 13q38 0 74.5 -10t65 -31.5t45.5 -57t17 -86.5v-315zM519 -142q0 -37 -24.5 -62t-65.5 -25t-65.5 25t-24.5 62t24.5 62
t65.5 25t65.5 -25t24.5 -62z" />
    <glyph glyph-name="uni1E44" unicode="&#x1e44;" horiz-adv-x="679" 
d="M614 21q-14 -14 -40.5 -21.5t-63.5 -7.5t-70 11t-54 53l-99 202q-15 31 -27 58.5t-26 63.5l-7 -2q5 -63 5.5 -116.5t0.5 -102.5v-159q-11 -2 -33 -5t-45 -3q-51 0 -70.5 17.5t-19.5 62.5v503q14 20 43 30t62 10q37 0 70.5 -11.5t53.5 -52.5l100 -202q15 -31 27 -58.5
t26 -63.5l4 1q-4 48 -4.5 90.5t-0.5 81.5v209q11 2 33 5t45 3q51 0 70.5 -17.5t19.5 -62.5v-516zM429 760q0 -37 -24.5 -62t-65.5 -25t-65.5 25t-24.5 62t24.5 62t65.5 25t65.5 -25t24.5 -62z" />
    <glyph glyph-name="uni1E45" unicode="&#x1e45;" horiz-adv-x="583" 
d="M530 1q-11 -3 -31.5 -6t-44.5 -3q-50 0 -72 16.5t-22 63.5v236q0 31 -18.5 45.5t-48.5 14.5q-20 0 -37.5 -5t-33.5 -13v-349q-11 -3 -31.5 -6t-44.5 -3q-50 0 -72 16.5t-22 63.5v301q0 27 11.5 44t31.5 31q34 24 85.5 38.5t114.5 14.5q113 0 174 -49.5t61 -138.5v-312z
M378 632q0 -37 -24.5 -62t-65.5 -25t-65.5 25t-24.5 62t24.5 62t65.5 25t65.5 -25t24.5 -62z" />
    <glyph glyph-name="uni1E46" unicode="&#x1e46;" horiz-adv-x="679" 
d="M614 21q-14 -14 -40.5 -21.5t-63.5 -7.5t-70 11t-54 53l-99 202q-15 31 -27 58.5t-26 63.5l-7 -2q5 -63 5.5 -116.5t0.5 -102.5v-159q-11 -2 -33 -5t-45 -3q-51 0 -70.5 17.5t-19.5 62.5v503q14 20 43 30t62 10q37 0 70.5 -11.5t53.5 -52.5l100 -202q15 -31 27 -58.5
t26 -63.5l4 1q-4 48 -4.5 90.5t-0.5 81.5v209q11 2 33 5t45 3q51 0 70.5 -17.5t19.5 -62.5v-516zM433 -142q0 -37 -24.5 -62t-65.5 -25t-65.5 25t-24.5 62t24.5 62t65.5 25t65.5 -25t24.5 -62z" />
    <glyph glyph-name="uni1E47" unicode="&#x1e47;" horiz-adv-x="583" 
d="M530 1q-11 -3 -31.5 -6t-44.5 -3q-50 0 -72 16.5t-22 63.5v236q0 31 -18.5 45.5t-48.5 14.5q-20 0 -37.5 -5t-33.5 -13v-349q-11 -3 -31.5 -6t-44.5 -3q-50 0 -72 16.5t-22 63.5v301q0 27 11.5 44t31.5 31q34 24 85.5 38.5t114.5 14.5q113 0 174 -49.5t61 -138.5v-312z
M388 -142q0 -37 -24.5 -62t-65.5 -25t-65.5 25t-24.5 62t24.5 62t65.5 25t65.5 -25t24.5 -62z" />
    <glyph glyph-name="uni1E48" unicode="&#x1e48;" horiz-adv-x="679" 
d="M614 21q-14 -14 -40.5 -21.5t-63.5 -7.5t-70 11t-54 53l-99 202q-15 31 -27 58.5t-26 63.5l-7 -2q5 -63 5.5 -116.5t0.5 -102.5v-159q-11 -2 -33 -5t-45 -3q-51 0 -70.5 17.5t-19.5 62.5v503q14 20 43 30t62 10q37 0 70.5 -11.5t53.5 -52.5l100 -202q15 -31 27 -58.5
t26 -63.5l4 1q-4 48 -4.5 90.5t-0.5 81.5v209q11 2 33 5t45 3q51 0 70.5 -17.5t19.5 -62.5v-516zM183 -214q-5 11 -10.5 27.5t-5.5 34.5q0 37 15 51.5t40 14.5h275q8 -11 12 -27.5t4 -34.5q0 -37 -14.5 -51.5t-39.5 -14.5h-276z" />
    <glyph glyph-name="uni1E49" unicode="&#x1e49;" horiz-adv-x="583" 
d="M530 1q-11 -3 -31.5 -6t-44.5 -3q-50 0 -72 16.5t-22 63.5v236q0 31 -18.5 45.5t-48.5 14.5q-20 0 -37.5 -5t-33.5 -13v-349q-11 -3 -31.5 -6t-44.5 -3q-50 0 -72 16.5t-22 63.5v301q0 27 11.5 44t31.5 31q34 24 85.5 38.5t114.5 14.5q113 0 174 -49.5t61 -138.5v-312z
M145 -214q-5 11 -10.5 27.5t-5.5 34.5q0 37 15 51.5t40 14.5h275q8 -11 12 -27.5t4 -34.5q0 -37 -14.5 -51.5t-39.5 -14.5h-276z" />
    <glyph glyph-name="uni1E5A" unicode="&#x1e5a;" horiz-adv-x="609" 
d="M561 408q0 -57 -29.5 -101.5t-78.5 -73.5q19 -26 38.5 -50t36.5 -46t30.5 -41t22.5 -34q-10 -35 -36.5 -53.5t-59.5 -18.5q-22 0 -38 5t-28 14t-22 22t-19 28l-85 137h-53v-195q-11 -3 -34 -6t-47 -3q-53 0 -73.5 18t-20.5 65v474q0 21 11.5 32.5t31.5 18.5
q34 12 79 17.5t96 5.5q138 0 208 -58.5t70 -156.5zM288 329q42 0 69 19.5t27 57.5t-24.5 57.5t-77.5 19.5q-12 0 -22.5 -1t-21.5 -3v-150h50zM388 -142q0 -37 -24.5 -62t-65.5 -25t-65.5 25t-24.5 62t24.5 62t65.5 25t65.5 -25t24.5 -62z" />
    <glyph glyph-name="uni1E5B" unicode="&#x1e5b;" horiz-adv-x="411" 
d="M222 1q-11 -3 -31.5 -6t-44.5 -3q-50 0 -72 16.5t-22 63.5v297q0 29 15 50.5t41 37.5q35 21 81.5 32t97.5 11q109 0 109 -77q0 -18 -5 -33.5t-12 -26.5q-19 4 -55 4q-26 0 -53.5 -6t-48.5 -18v-342zM229 -142q0 -37 -24.5 -62t-65.5 -25t-65.5 25t-24.5 62t24.5 62
t65.5 25t65.5 -25t24.5 -62z" />
    <glyph glyph-name="uni1E5C" unicode="&#x1e5c;" horiz-adv-x="609" 
d="M561 408q0 -57 -29.5 -101.5t-78.5 -73.5q19 -26 38.5 -50t36.5 -46t30.5 -41t22.5 -34q-10 -35 -36.5 -53.5t-59.5 -18.5q-22 0 -38 5t-28 14t-22 22t-19 28l-85 137h-53v-195q-11 -3 -34 -6t-47 -3q-53 0 -73.5 18t-20.5 65v474q0 21 11.5 32.5t31.5 18.5
q34 12 79 17.5t96 5.5q138 0 208 -58.5t70 -156.5zM288 329q42 0 69 19.5t27 57.5t-24.5 57.5t-77.5 19.5q-12 0 -22.5 -1t-21.5 -3v-150h50zM138 693q-5 11 -10.5 27.5t-5.5 34.5q0 37 15 51.5t40 14.5h265q8 -11 12 -27.5t4 -34.5q0 -37 -14.5 -51.5t-39.5 -14.5h-266z
M388 -142q0 -37 -24.5 -62t-65.5 -25t-65.5 25t-24.5 62t24.5 62t65.5 25t65.5 -25t24.5 -62z" />
    <glyph glyph-name="uni1E5D" unicode="&#x1e5d;" horiz-adv-x="411" 
d="M222 1q-11 -3 -31.5 -6t-44.5 -3q-50 0 -72 16.5t-22 63.5v297q0 29 15 50.5t41 37.5q35 21 81.5 32t97.5 11q109 0 109 -77q0 -18 -5 -33.5t-12 -26.5q-19 4 -55 4q-26 0 -53.5 -6t-48.5 -18v-342zM73 564q-5 11 -10.5 27.5t-5.5 34.5q0 37 15 51.5t40 14.5h265
q8 -11 12 -27.5t4 -34.5q0 -37 -14.5 -51.5t-39.5 -14.5h-266zM229 -142q0 -37 -24.5 -62t-65.5 -25t-65.5 25t-24.5 62t24.5 62t65.5 25t65.5 -25t24.5 -62z" />
    <glyph glyph-name="uni1E5E" unicode="&#x1e5e;" horiz-adv-x="609" 
d="M561 408q0 -57 -29.5 -101.5t-78.5 -73.5q19 -26 38.5 -50t36.5 -46t30.5 -41t22.5 -34q-10 -35 -36.5 -53.5t-59.5 -18.5q-22 0 -38 5t-28 14t-22 22t-19 28l-85 137h-53v-195q-11 -3 -34 -6t-47 -3q-53 0 -73.5 18t-20.5 65v474q0 21 11.5 32.5t31.5 18.5
q34 12 79 17.5t96 5.5q138 0 208 -58.5t70 -156.5zM288 329q42 0 69 19.5t27 57.5t-24.5 57.5t-77.5 19.5q-12 0 -22.5 -1t-21.5 -3v-150h50zM145 -214q-5 11 -10.5 27.5t-5.5 34.5q0 37 15 51.5t40 14.5h275q8 -11 12 -27.5t4 -34.5q0 -37 -14.5 -51.5t-39.5 -14.5h-276z
" />
    <glyph glyph-name="uni1E5F" unicode="&#x1e5f;" horiz-adv-x="411" 
d="M222 1q-11 -3 -31.5 -6t-44.5 -3q-50 0 -72 16.5t-22 63.5v297q0 29 15 50.5t41 37.5q35 21 81.5 32t97.5 11q109 0 109 -77q0 -18 -5 -33.5t-12 -26.5q-19 4 -55 4q-26 0 -53.5 -6t-48.5 -18v-342zM57 -214q-5 11 -10.5 27.5t-5.5 34.5q0 37 15 51.5t40 14.5h275
q8 -11 12 -27.5t4 -34.5q0 -37 -14.5 -51.5t-39.5 -14.5h-276z" />
    <glyph glyph-name="uni1E60" unicode="&#x1e60;" horiz-adv-x="551" 
d="M251 124q49 0 69 16t20 36t-16 31.5t-45 21.5l-42 14q-44 15 -80 30.5t-62 37.5t-40.5 52.5t-14.5 74.5q0 85 65.5 136t183.5 51q43 0 80 -6t63.5 -18.5t41.5 -32t15 -45.5t-12 -44.5t-29 -31.5q-22 14 -59 24.5t-81 10.5q-45 0 -66 -12.5t-21 -31.5q0 -15 13 -24.5
t39 -17.5l53 -17q94 -30 144.5 -77.5t50.5 -127.5q0 -42 -17 -77.5t-50.5 -61t-83 -39.5t-113.5 -14q-46 0 -85.5 7.5t-69 22t-46 36t-16.5 49.5q0 29 17 49.5t37 31.5q28 -22 68.5 -38t88.5 -16zM369 760q0 -37 -24.5 -62t-65.5 -25t-65.5 25t-24.5 62t24.5 62t65.5 25
t65.5 -25t24.5 -62z" />
    <glyph glyph-name="uni1E61" unicode="&#x1e61;" horiz-adv-x="492" 
d="M462 145q0 -76 -57 -119t-168 -43q-42 0 -78 6t-61.5 18.5t-40 31.5t-14.5 45q0 24 10 40.5t24 27.5q29 -16 66.5 -28.5t86.5 -12.5q31 0 47.5 9t16.5 24q0 14 -12 22t-40 13l-30 6q-87 17 -129.5 53.5t-42.5 104.5q0 37 16 67t45 50t69.5 31t89.5 11q37 0 69.5 -5.5
t56.5 -16.5t38 -28.5t14 -41.5q0 -23 -8.5 -39.5t-21.5 -27.5q-8 5 -24 10.5t-35 10t-38.5 7.5t-35.5 3q-33 0 -51 -7.5t-18 -23.5q0 -11 10 -18t38 -13l31 -7q96 -22 136.5 -60.5t40.5 -99.5zM334 632q0 -37 -24.5 -62t-65.5 -25t-65.5 25t-24.5 62t24.5 62t65.5 25
t65.5 -25t24.5 -62z" />
    <glyph glyph-name="uni1E62" unicode="&#x1e62;" horiz-adv-x="551" 
d="M251 124q49 0 69 16t20 36t-16 31.5t-45 21.5l-42 14q-44 15 -80 30.5t-62 37.5t-40.5 52.5t-14.5 74.5q0 85 65.5 136t183.5 51q43 0 80 -6t63.5 -18.5t41.5 -32t15 -45.5t-12 -44.5t-29 -31.5q-22 14 -59 24.5t-81 10.5q-45 0 -66 -12.5t-21 -31.5q0 -15 13 -24.5
t39 -17.5l53 -17q94 -30 144.5 -77.5t50.5 -127.5q0 -42 -17 -77.5t-50.5 -61t-83 -39.5t-113.5 -14q-46 0 -85.5 7.5t-69 22t-46 36t-16.5 49.5q0 29 17 49.5t37 31.5q28 -22 68.5 -38t88.5 -16zM373 -142q0 -37 -24.5 -62t-65.5 -25t-65.5 25t-24.5 62t24.5 62t65.5 25
t65.5 -25t24.5 -62z" />
    <glyph glyph-name="uni1E63" unicode="&#x1e63;" horiz-adv-x="492" 
d="M462 145q0 -76 -57 -119t-168 -43q-42 0 -78 6t-61.5 18.5t-40 31.5t-14.5 45q0 24 10 40.5t24 27.5q29 -16 66.5 -28.5t86.5 -12.5q31 0 47.5 9t16.5 24q0 14 -12 22t-40 13l-30 6q-87 17 -129.5 53.5t-42.5 104.5q0 37 16 67t45 50t69.5 31t89.5 11q37 0 69.5 -5.5
t56.5 -16.5t38 -28.5t14 -41.5q0 -23 -8.5 -39.5t-21.5 -27.5q-8 5 -24 10.5t-35 10t-38.5 7.5t-35.5 3q-33 0 -51 -7.5t-18 -23.5q0 -11 10 -18t38 -13l31 -7q96 -22 136.5 -60.5t40.5 -99.5zM340 -142q0 -37 -24.5 -62t-65.5 -25t-65.5 25t-24.5 62t24.5 62t65.5 25
t65.5 -25t24.5 -62z" />
    <glyph glyph-name="uni1E6C" unicode="&#x1e6c;" horiz-adv-x="556" 
d="M518 606q7 -11 12.5 -29t5.5 -39q0 -38 -16.5 -55t-44.5 -17h-113v-465q-11 -3 -34 -6t-47 -3q-53 0 -73.5 18t-20.5 65v391h-151q-7 11 -12.5 29t-5.5 39q0 38 16.5 55t44.5 17h439zM367 -142q0 -37 -24.5 -62t-65.5 -25t-65.5 25t-24.5 62t24.5 62t65.5 25t65.5 -25
t24.5 -62z" />
    <glyph glyph-name="uni1E6D" unicode="&#x1e6d;" horiz-adv-x="397" 
d="M237 -15q-88 0 -135.5 40t-47.5 130v444q11 3 31.5 6.5t43.5 3.5q49 0 71 -17t22 -63v-54h131q6 -11 11.5 -27.5t5.5 -36.5q0 -35 -15.5 -50.5t-41.5 -15.5h-91v-178q0 -26 16.5 -37t46.5 -11q15 0 31 2.5t28 6.5q9 -11 15.5 -24.5t6.5 -32.5q0 -38 -28.5 -62t-100.5 -24
zM294 -142q0 -37 -24.5 -62t-65.5 -25t-65.5 25t-24.5 62t24.5 62t65.5 25t65.5 -25t24.5 -62z" />
    <glyph glyph-name="uni1E6E" unicode="&#x1e6e;" horiz-adv-x="556" 
d="M518 606q7 -11 12.5 -29t5.5 -39q0 -38 -16.5 -55t-44.5 -17h-113v-465q-11 -3 -34 -6t-47 -3q-53 0 -73.5 18t-20.5 65v391h-151q-7 11 -12.5 29t-5.5 39q0 38 16.5 55t44.5 17h439zM118 -214q-5 11 -10.5 27.5t-5.5 34.5q0 37 15 51.5t40 14.5h275q8 -11 12 -27.5
t4 -34.5q0 -37 -14.5 -51.5t-39.5 -14.5h-276z" />
    <glyph glyph-name="uni1E6F" unicode="&#x1e6f;" horiz-adv-x="397" 
d="M237 -15q-88 0 -135.5 40t-47.5 130v444q11 3 31.5 6.5t43.5 3.5q49 0 71 -17t22 -63v-54h131q6 -11 11.5 -27.5t5.5 -36.5q0 -35 -15.5 -50.5t-41.5 -15.5h-91v-178q0 -26 16.5 -37t46.5 -11q15 0 31 2.5t28 6.5q9 -11 15.5 -24.5t6.5 -32.5q0 -38 -28.5 -62t-100.5 -24
zM50 -214q-5 11 -10.5 27.5t-5.5 34.5q0 37 15 51.5t40 14.5h275q8 -11 12 -27.5t4 -34.5q0 -37 -14.5 -51.5t-39.5 -14.5h-276z" />
    <glyph glyph-name="uni1E8E" unicode="&#x1e8e;" horiz-adv-x="574" 
d="M562 535q0 -12 -6.5 -31.5t-26 -57t-54.5 -97.5t-92 -152v-196q-11 -3 -33.5 -6t-45.5 -3q-52 0 -72 18t-20 63v127q-26 37 -56 84.5t-59 97t-53.5 96.5t-38.5 83q13 18 35.5 33t55.5 15q39 0 63.5 -16t46.5 -60l88 -177h6q14 31 25.5 58t22.5 54.5t22.5 56.5t25.5 65
q18 9 40 14t42 5q35 0 59.5 -18.5t24.5 -55.5zM379 760q0 -37 -24.5 -62t-65.5 -25t-65.5 25t-24.5 62t24.5 62t65.5 25t65.5 -25t24.5 -62z" />
    <glyph glyph-name="uni1E8F" unicode="&#x1e8f;" horiz-adv-x="551" 
d="M128 124q-11 25 -23.5 56t-26 71t-28 91.5t-30.5 118.5q14 14 37.5 24.5t51.5 10.5q35 0 58 -14.5t34 -54.5q20 -70 39.5 -138.5t39.5 -136.5h4q12 34 23.5 74t22.5 82.5t20.5 85t16.5 83.5q17 9 35 14t38 5q35 0 61 -15t26 -52q0 -40 -12.5 -95.5t-32.5 -115t-45 -116.5
t-50 -100q-57 -98 -104.5 -144.5t-96.5 -46.5q-40 0 -67 25t-32 65q32 27 64 61t56 69q-17 5 -36.5 23.5t-42.5 69.5zM367 632q0 -37 -24.5 -62t-65.5 -25t-65.5 25t-24.5 62t24.5 62t65.5 25t65.5 -25t24.5 -62z" />
    <glyph glyph-name="uni1E92" unicode="&#x1e92;" horiz-adv-x="560" 
d="M73 0q-17 14 -28 38t-11 55q0 25 13 51t31 48l230 274h-246q-8 12 -13.5 29.5t-5.5 39.5q0 38 17 56t46 18h373q44 -36 44 -96q0 -25 -11.5 -49.5t-29.5 -46.5l-229 -274h258q7 -12 13 -30t6 -40q0 -38 -16.5 -55.5t-45.5 -17.5h-395zM374 -142q0 -37 -24.5 -62
t-65.5 -25t-65.5 25t-24.5 62t24.5 62t65.5 25t65.5 -25t24.5 -62z" />
    <glyph glyph-name="uni1E93" unicode="&#x1e93;" horiz-adv-x="481" 
d="M410 485q16 -14 25.5 -33t9.5 -43q0 -20 -9.5 -39.5t-23.5 -36.5l-168 -202h196q6 -11 11.5 -28t5.5 -37q0 -35 -15.5 -50.5t-41.5 -15.5h-331q-16 14 -25.5 33t-9.5 43q0 20 9.5 39.5t23.5 36.5l172 202h-184q-6 11 -11.5 28t-5.5 37q0 35 15.5 50.5t41.5 15.5h315z
M332 -142q0 -37 -24.5 -62t-65.5 -25t-65.5 25t-24.5 62t24.5 62t65.5 25t65.5 -25t24.5 -62z" />
    <glyph glyph-name="uni1E97" unicode="&#x1e97;" horiz-adv-x="397" 
d="M237 -15q-88 0 -135.5 40t-47.5 130v444q11 3 31.5 6.5t43.5 3.5q49 0 71 -17t22 -63v-54h131q6 -11 11.5 -27.5t5.5 -36.5q0 -35 -15.5 -50.5t-41.5 -15.5h-91v-178q0 -26 16.5 -37t46.5 -11q15 0 31 2.5t28 6.5q9 -11 15.5 -24.5t6.5 -32.5q0 -38 -28.5 -62t-100.5 -24
zM108 720q0 -35 -23.5 -58.5t-61.5 -23.5t-61 23.5t-23 58.5t23 59t61 24t61.5 -24t23.5 -59zM323 720q0 -35 -23 -58.5t-61 -23.5t-61.5 23.5t-23.5 58.5t23.5 59t61.5 24t61 -24t23 -59z" />
    <glyph glyph-name="uni1E9E" unicode="&#x1e9e;" horiz-adv-x="634" 
d="M224 1q-11 -3 -31.5 -6t-44.5 -3q-50 0 -72 16.5t-22 63.5v311q0 60 20 105.5t54.5 75.5t81 45.5t99.5 15.5q52 0 95.5 -13t76.5 -35t55 -52t33 -63q5 -14 5 -26q0 -13 -6.5 -23.5t-22.5 -21.5l-94 -63q27 -3 56 -15t52.5 -32.5t39 -50t15.5 -66.5q0 -47 -16 -81.5
t-43 -56.5t-64 -32.5t-79 -10.5q-62 0 -95.5 20.5t-33.5 55.5q0 23 9.5 39t23.5 26q14 -8 26 -13t32 -5q29 0 47.5 17t18.5 44q0 38 -23 53.5t-64 15.5h-35q-12 17 -20 42t-8 57v5t1 8l109 89q-3 8 -9.5 17t-16.5 16.5t-25 12.5t-35 5q-38 0 -64 -26t-26 -77v-384v0z" />
    <glyph glyph-name="uni1EA0" unicode="&#x1ea0;" horiz-adv-x="627" 
d="M403 126h-181q-10 -36 -17.5 -67t-14.5 -58q-14 -5 -29.5 -8.5t-37.5 -3.5q-51 0 -75.5 17.5t-24.5 48.5q0 14 4 28t9 33q7 27 19.5 67.5t27.5 87t32 95t32 92t27.5 78t19.5 52.5q17 10 51.5 19t69.5 9q50 0 88.5 -14.5t49.5 -46.5q18 -51 39 -120t42 -142.5t41 -145
t35 -126.5q-12 -14 -36 -22.5t-57 -8.5q-49 0 -68 16t-28 51zM314 459q-14 -41 -31 -91t-33 -107h124q-14 57 -28.5 107.5t-25.5 90.5h-6zM407 -142q0 -37 -24.5 -62t-65.5 -25t-65.5 25t-24.5 62t24.5 62t65.5 25t65.5 -25t24.5 -62z" />
    <glyph glyph-name="uni1EA1" unicode="&#x1ea1;" horiz-adv-x="544" 
d="M260 108q17 0 37.5 3.5t30.5 9.5v80l-72 -6q-28 -2 -46 -12t-18 -30t15.5 -32.5t52.5 -12.5zM252 501q54 0 98.5 -11t76 -33.5t48.5 -57t17 -81.5v-224q0 -26 -14.5 -42.5t-34.5 -28.5q-65 -39 -183 -39q-53 0 -95.5 10t-73 30t-47 51t-16.5 72q0 69 41 106t127 46
l131 14v7q0 29 -25.5 41.5t-73.5 12.5q-37 0 -73.5 -8t-65.5 -20q-13 9 -22 27.5t-9 38.5q0 26 12.5 41.5t38.5 26.5q29 11 68.5 16t74.5 5zM351 -142q0 -37 -24.5 -62t-65.5 -25t-65.5 25t-24.5 62t24.5 62t65.5 25t65.5 -25t24.5 -62z" />
    <glyph glyph-name="uni01CD" unicode="&#x1cd;" horiz-adv-x="627" 
d="M403 126h-181q-10 -36 -17.5 -67t-14.5 -58q-14 -5 -29.5 -8.5t-37.5 -3.5q-51 0 -75.5 17.5t-24.5 48.5q0 14 4 28t9 33q7 27 19.5 67.5t27.5 87t32 95t32 92t27.5 78t19.5 52.5q17 10 51.5 19t69.5 9q50 0 88.5 -14.5t49.5 -46.5q18 -51 39 -120t42 -142.5t41 -145
t35 -126.5q-12 -14 -36 -22.5t-57 -8.5q-49 0 -68 16t-28 51zM314 459q-14 -41 -31 -91t-33 -107h124q-14 57 -28.5 107.5t-25.5 90.5h-6zM317 762q25 23 49 45t46 40q32 0 53 -18t21 -46q0 -21 -10 -36.5t-38 -36.5l-28 -21q-29 -22 -49 -30.5t-44 -8.5q-30 0 -52 11.5
t-42 29.5l-83 75q0 37 17.5 57.5t49.5 20.5q20 0 37.5 -10.5t45.5 -41.5z" />
    <glyph glyph-name="uni01CE" unicode="&#x1ce;" horiz-adv-x="544" 
d="M260 108q17 0 37.5 3.5t30.5 9.5v80l-72 -6q-28 -2 -46 -12t-18 -30t15.5 -32.5t52.5 -12.5zM252 501q54 0 98.5 -11t76 -33.5t48.5 -57t17 -81.5v-224q0 -26 -14.5 -42.5t-34.5 -28.5q-65 -39 -183 -39q-53 0 -95.5 10t-73 30t-47 51t-16.5 72q0 69 41 106t127 46
l131 14v7q0 29 -25.5 41.5t-73.5 12.5q-37 0 -73.5 -8t-65.5 -20q-13 9 -22 27.5t-9 38.5q0 26 12.5 41.5t38.5 26.5q29 11 68.5 16t74.5 5zM273 656l90 84q39 0 62 -18.5t23 -47.5q0 -22 -11.5 -36.5t-36.5 -34.5l-45 -37q-20 -17 -39.5 -24t-39.5 -7q-14 0 -25 2t-22.5 7
t-25.5 15t-33 27l-74 64q-1 5 -1.5 9t-0.5 9q0 26 15.5 48t48.5 22q10 0 18.5 -1.5t17.5 -7t20 -14.5t25 -24z" />
    <glyph glyph-name="uni1EA2" unicode="&#x1ea2;" horiz-adv-x="627" 
d="M403 126h-181q-10 -36 -17.5 -67t-14.5 -58q-14 -5 -29.5 -8.5t-37.5 -3.5q-51 0 -75.5 17.5t-24.5 48.5q0 14 4 28t9 33q7 27 19.5 67.5t27.5 87t32 95t32 92t27.5 78t19.5 52.5q17 10 51.5 19t69.5 9q50 0 88.5 -14.5t49.5 -46.5q18 -51 39 -120t42 -142.5t41 -145
t35 -126.5q-12 -14 -36 -22.5t-57 -8.5q-49 0 -68 16t-28 51zM314 459q-14 -41 -31 -91t-33 -107h124q-14 57 -28.5 107.5t-25.5 90.5h-6zM311 902q29 0 57.5 -7t51 -21.5t36.5 -37t14 -52.5q0 -26 -9 -44.5t-24 -31t-34.5 -19t-40.5 -7.5v-27q-5 -3 -19.5 -6.5t-33.5 -3.5
q-35 0 -47 7t-12 19v38q0 26 12.5 34.5t29.5 8.5h17q37 0 37 28q0 14 -13 22.5t-41 8.5q-23 0 -43 -6t-32 -11q-24 16 -24 46q0 31 35 46.5t83 15.5z" />
    <glyph glyph-name="uni1EA3" unicode="&#x1ea3;" horiz-adv-x="544" 
d="M260 108q17 0 37.5 3.5t30.5 9.5v80l-72 -6q-28 -2 -46 -12t-18 -30t15.5 -32.5t52.5 -12.5zM252 501q54 0 98.5 -11t76 -33.5t48.5 -57t17 -81.5v-224q0 -26 -14.5 -42.5t-34.5 -28.5q-65 -39 -183 -39q-53 0 -95.5 10t-73 30t-47 51t-16.5 72q0 69 41 106t127 46
l131 14v7q0 29 -25.5 41.5t-73.5 12.5q-37 0 -73.5 -8t-65.5 -20q-13 9 -22 27.5t-9 38.5q0 26 12.5 41.5t38.5 26.5q29 11 68.5 16t74.5 5zM263 772q29 0 57.5 -7t51 -21.5t36.5 -37t14 -52.5q0 -26 -9 -44.5t-24 -31t-34.5 -19t-40.5 -7.5v-27q-5 -3 -19.5 -6.5
t-33.5 -3.5q-35 0 -47 7t-12 19v38q0 26 12.5 34.5t29.5 8.5h17q37 0 37 28q0 14 -13 22.5t-41 8.5q-23 0 -43 -6t-32 -11q-24 16 -24 46q0 31 35 46.5t83 15.5z" />
    <glyph glyph-name="uni1EA4" unicode="&#x1ea4;" horiz-adv-x="627" 
d="M536 957q43 0 63 -18t20 -41q0 -17 -8.5 -30.5t-26.5 -31.5l-62 -63q-33 0 -53 16t-20 36q0 10 3.5 19.5t14.5 23.5zM403 126h-181q-10 -36 -17.5 -67t-14.5 -58q-14 -5 -29.5 -8.5t-37.5 -3.5q-51 0 -75.5 17.5t-24.5 48.5q0 14 4 28t9 33q7 27 19.5 67.5t27.5 87t32 95
t32 92t27.5 78t19.5 52.5q17 10 51.5 19t69.5 9q50 0 88.5 -14.5t49.5 -46.5q18 -51 39 -120t42 -142.5t41 -145t35 -126.5q-12 -14 -36 -22.5t-57 -8.5q-49 0 -68 16t-28 51zM314 459q-14 -41 -31 -91t-33 -107h124q-14 57 -28.5 107.5t-25.5 90.5h-6zM324 729
q-24 -23 -48 -45t-46 -40q-31 0 -52 18t-21 45q0 21 10 36t37 36l29 22q29 22 51 31.5t42 9.5q26 0 47 -9.5t44 -32.5l81 -81q0 -36 -18.5 -54t-50.5 -18q-20 0 -37 13t-41 39z" />
    <glyph glyph-name="uni1EA5" unicode="&#x1ea5;" horiz-adv-x="544" 
d="M481 860q43 0 63 -18t20 -41q0 -17 -8.5 -30.5t-26.5 -31.5l-62 -63q-33 0 -53 16t-20 36q0 10 3.5 19.5t14.5 23.5zM270 626q-13 -15 -23.5 -26t-19.5 -21.5l-18 -21t-20 -23.5q-39 0 -62 17.5t-23 46.5q0 20 11 34.5t33 36.5l34 34q19 19 40.5 30.5t50.5 11.5
q26 0 48 -10t51 -45l71 -87q0 -28 -16.5 -47.5t-50.5 -19.5q-20 0 -35 10.5t-31 30.5zM260 108q17 0 37.5 3.5t30.5 9.5v80l-72 -6q-28 -2 -46 -12t-18 -30t15.5 -32.5t52.5 -12.5zM252 501q54 0 98.5 -11t76 -33.5t48.5 -57t17 -81.5v-224q0 -26 -14.5 -42.5t-34.5 -28.5
q-65 -39 -183 -39q-53 0 -95.5 10t-73 30t-47 51t-16.5 72q0 69 41 106t127 46l131 14v7q0 29 -25.5 41.5t-73.5 12.5q-37 0 -73.5 -8t-65.5 -20q-13 9 -22 27.5t-9 38.5q0 26 12.5 41.5t38.5 26.5q29 11 68.5 16t74.5 5z" />
    <glyph glyph-name="uni1EA6" unicode="&#x1ea6;" horiz-adv-x="627" 
d="M410 890q1 32 19.5 49.5t41.5 17.5q22 0 37.5 -10.5t29.5 -30.5l61 -92q-4 -25 -21 -38t-36 -13q-16 0 -28.5 7t-25.5 21zM403 126h-181q-10 -36 -17.5 -67t-14.5 -58q-14 -5 -29.5 -8.5t-37.5 -3.5q-51 0 -75.5 17.5t-24.5 48.5q0 14 4 28t9 33q7 27 19.5 67.5t27.5 87
t32 95t32 92t27.5 78t19.5 52.5q17 10 51.5 19t69.5 9q50 0 88.5 -14.5t49.5 -46.5q18 -51 39 -120t42 -142.5t41 -145t35 -126.5q-12 -14 -36 -22.5t-57 -8.5q-49 0 -68 16t-28 51zM314 459q-14 -41 -31 -91t-33 -107h124q-14 57 -28.5 107.5t-25.5 90.5h-6zM324 729
q-24 -23 -48 -45t-46 -40q-31 0 -52 18t-21 45q0 21 10 36t37 36l29 22q29 22 51 31.5t42 9.5q26 0 47 -9.5t44 -32.5l81 -81q0 -36 -18.5 -54t-50.5 -18q-20 0 -37 13t-41 39z" />
    <glyph glyph-name="uni1EA7" unicode="&#x1ea7;" horiz-adv-x="544" 
d="M354 793q1 32 19.5 49.5t41.5 17.5q22 0 37.5 -10.5t29.5 -30.5l61 -92q-4 -25 -21 -38t-36 -13q-16 0 -28.5 7t-25.5 21zM260 108q17 0 37.5 3.5t30.5 9.5v80l-72 -6q-28 -2 -46 -12t-18 -30t15.5 -32.5t52.5 -12.5zM252 501q54 0 98.5 -11t76 -33.5t48.5 -57t17 -81.5
v-224q0 -26 -14.5 -42.5t-34.5 -28.5q-65 -39 -183 -39q-53 0 -95.5 10t-73 30t-47 51t-16.5 72q0 69 41 106t127 46l131 14v7q0 29 -25.5 41.5t-73.5 12.5q-37 0 -73.5 -8t-65.5 -20q-13 9 -22 27.5t-9 38.5q0 26 12.5 41.5t38.5 26.5q29 11 68.5 16t74.5 5zM270 626
q-13 -15 -23.5 -26t-19.5 -21.5l-18 -21t-20 -23.5q-39 0 -62 17.5t-23 46.5q0 20 11 34.5t33 36.5l34 34q19 19 40.5 30.5t50.5 11.5q26 0 48 -10t51 -45l71 -87q0 -28 -16.5 -47.5t-50.5 -19.5q-20 0 -35 10.5t-31 30.5z" />
    <glyph glyph-name="uni1EA8" unicode="&#x1ea8;" horiz-adv-x="627" 
d="M503 1008q51 0 85 -26t34 -74q0 -38 -24 -57t-52 -21v-32q-8 -3 -17.5 -5t-23.5 -2q-23 0 -35 5.5t-12 20.5v41q0 28 27 28h5q34 0 34 23q0 24 -36 24q-16 0 -31 -5t-25 -10q-9 7 -14 17t-5 21q0 25 25 38.5t65 13.5zM403 126h-181q-10 -36 -17.5 -67t-14.5 -58
q-14 -5 -29.5 -8.5t-37.5 -3.5q-51 0 -75.5 17.5t-24.5 48.5q0 14 4 28t9 33q7 27 19.5 67.5t27.5 87t32 95t32 92t27.5 78t19.5 52.5q17 10 51.5 19t69.5 9q50 0 88.5 -14.5t49.5 -46.5q18 -51 39 -120t42 -142.5t41 -145t35 -126.5q-12 -14 -36 -22.5t-57 -8.5
q-49 0 -68 16t-28 51zM314 459q-14 -41 -31 -91t-33 -107h124q-14 57 -28.5 107.5t-25.5 90.5h-6zM324 729q-24 -23 -48 -45t-46 -40q-31 0 -52 18t-21 45q0 21 10 36t37 36l29 22q29 22 51 31.5t42 9.5q26 0 47 -9.5t44 -32.5l81 -81q0 -36 -18.5 -54t-50.5 -18
q-20 0 -37 13t-41 39z" />
    <glyph glyph-name="uni1EA9" unicode="&#x1ea9;" horiz-adv-x="544" 
d="M449 910q51 0 85 -26t34 -74q0 -38 -24 -57t-52 -21v-32q-8 -3 -17.5 -5t-23.5 -2q-23 0 -35 5.5t-12 20.5v41q0 28 27 28h5q34 0 34 23q0 24 -36 24q-16 0 -31 -5t-25 -10q-9 7 -14 17t-5 21q0 25 25 38.5t65 13.5zM260 108q17 0 37.5 3.5t30.5 9.5v80l-72 -6
q-28 -2 -46 -12t-18 -30t15.5 -32.5t52.5 -12.5zM252 501q54 0 98.5 -11t76 -33.5t48.5 -57t17 -81.5v-224q0 -26 -14.5 -42.5t-34.5 -28.5q-65 -39 -183 -39q-53 0 -95.5 10t-73 30t-47 51t-16.5 72q0 69 41 106t127 46l131 14v7q0 29 -25.5 41.5t-73.5 12.5
q-37 0 -73.5 -8t-65.5 -20q-13 9 -22 27.5t-9 38.5q0 26 12.5 41.5t38.5 26.5q29 11 68.5 16t74.5 5zM270 626q-13 -15 -23.5 -26t-19.5 -21.5l-18 -21t-20 -23.5q-39 0 -62 17.5t-23 46.5q0 20 11 34.5t33 36.5l34 34q19 19 40.5 30.5t50.5 11.5q26 0 48 -10t51 -45l71 -87
q0 -28 -16.5 -47.5t-50.5 -19.5q-20 0 -35 10.5t-31 30.5z" />
    <glyph glyph-name="uni1EAA" unicode="&#x1eaa;" horiz-adv-x="627" 
d="M403 126h-181q-10 -36 -17.5 -67t-14.5 -58q-14 -5 -29.5 -8.5t-37.5 -3.5q-51 0 -75.5 17.5t-24.5 48.5q0 14 4 28t9 33q7 27 19.5 67.5t27.5 87t32 95t32 92t27.5 78t19.5 52.5q17 10 51.5 19t69.5 9q50 0 88.5 -14.5t49.5 -46.5q18 -51 39 -120t42 -142.5t41 -145
t35 -126.5q-12 -14 -36 -22.5t-57 -8.5q-49 0 -68 16t-28 51zM314 459q-14 -41 -31 -91t-33 -107h124q-14 57 -28.5 107.5t-25.5 90.5h-6zM324 729q-24 -23 -48 -45t-46 -40q-31 0 -52 18t-21 45q0 21 10 36t37 36l29 22q29 22 51 31.5t42 9.5q26 0 47 -9.5t44 -32.5l81 -81
q0 -36 -18.5 -54t-50.5 -18q-20 0 -37 13t-41 39zM243 1020q18 0 37 -4t36.5 -9.5t32 -9.5t25.5 -4q20 0 30 9.5t15 22.5h4q29 0 49.5 -17.5t20.5 -48.5q0 -37 -25 -55.5t-63 -18.5q-21 0 -40 4t-35.5 9t-30.5 9t-25 4q-20 0 -30 -9.5t-15 -21.5h-4q-28 0 -49.5 17.5
t-21.5 49.5q0 20 8 34t20.5 22.5t28.5 12.5t32 4z" />
    <glyph glyph-name="uni1EAB" unicode="&#x1eab;" horiz-adv-x="544" 
d="M189 923q18 0 37 -4t36.5 -9.5t32 -9.5t25.5 -4q20 0 30 9.5t15 22.5h4q29 0 49.5 -17.5t20.5 -48.5q0 -37 -25 -55.5t-63 -18.5q-21 0 -40 4t-35.5 9t-30.5 9t-25 4q-20 0 -30 -9.5t-15 -21.5h-4q-28 0 -49.5 17.5t-21.5 49.5q0 20 8 34t20.5 22.5t28.5 12.5t32 4z
M260 108q17 0 37.5 3.5t30.5 9.5v80l-72 -6q-28 -2 -46 -12t-18 -30t15.5 -32.5t52.5 -12.5zM252 501q54 0 98.5 -11t76 -33.5t48.5 -57t17 -81.5v-224q0 -26 -14.5 -42.5t-34.5 -28.5q-65 -39 -183 -39q-53 0 -95.5 10t-73 30t-47 51t-16.5 72q0 69 41 106t127 46l131 14v7
q0 29 -25.5 41.5t-73.5 12.5q-37 0 -73.5 -8t-65.5 -20q-13 9 -22 27.5t-9 38.5q0 26 12.5 41.5t38.5 26.5q29 11 68.5 16t74.5 5zM270 626q-13 -15 -23.5 -26t-19.5 -21.5l-18 -21t-20 -23.5q-39 0 -62 17.5t-23 46.5q0 20 11 34.5t33 36.5l34 34q19 19 40.5 30.5
t50.5 11.5q26 0 48 -10t51 -45l71 -87q0 -28 -16.5 -47.5t-50.5 -19.5q-20 0 -35 10.5t-31 30.5z" />
    <glyph glyph-name="uni1EAC" unicode="&#x1eac;" horiz-adv-x="627" 
d="M403 126h-181q-10 -36 -17.5 -67t-14.5 -58q-14 -5 -29.5 -8.5t-37.5 -3.5q-51 0 -75.5 17.5t-24.5 48.5q0 14 4 28t9 33q7 27 19.5 67.5t27.5 87t32 95t32 92t27.5 78t19.5 52.5q17 10 51.5 19t69.5 9q50 0 88.5 -14.5t49.5 -46.5q18 -51 39 -120t42 -142.5t41 -145
t35 -126.5q-12 -14 -36 -22.5t-57 -8.5q-49 0 -68 16t-28 51zM314 459q-14 -41 -31 -91t-33 -107h124q-14 57 -28.5 107.5t-25.5 90.5h-6zM324 734q-24 -23 -48 -45t-46 -40q-31 0 -52 18t-21 45q0 21 10 36t37 36l29 22q29 22 51 31.5t42 9.5q26 0 47 -9.5t44 -32.5l81 -81
q0 -36 -18.5 -54t-50.5 -18q-20 0 -37 13t-41 39zM406 -142q0 -37 -24.5 -62t-65.5 -25t-65.5 25t-24.5 62t24.5 62t65.5 25t65.5 -25t24.5 -62z" />
    <glyph glyph-name="uni1EAD" unicode="&#x1ead;" horiz-adv-x="544" 
d="M260 108q17 0 37.5 3.5t30.5 9.5v80l-72 -6q-28 -2 -46 -12t-18 -30t15.5 -32.5t52.5 -12.5zM252 501q54 0 98.5 -11t76 -33.5t48.5 -57t17 -81.5v-224q0 -26 -14.5 -42.5t-34.5 -28.5q-65 -39 -183 -39q-53 0 -95.5 10t-73 30t-47 51t-16.5 72q0 69 41 106t127 46
l131 14v7q0 29 -25.5 41.5t-73.5 12.5q-37 0 -73.5 -8t-65.5 -20q-13 9 -22 27.5t-9 38.5q0 26 12.5 41.5t38.5 26.5q29 11 68.5 16t74.5 5zM270 626q-13 -15 -23.5 -26t-19.5 -21.5l-18 -21t-20 -23.5q-39 0 -62 17.5t-23 46.5q0 20 11 34.5t33 36.5l34 34q19 19 40.5 30.5
t50.5 11.5q26 0 48 -10t51 -45l71 -87q0 -28 -16.5 -47.5t-50.5 -19.5q-20 0 -35 10.5t-31 30.5zM351 -142q0 -37 -24.5 -62t-65.5 -25t-65.5 25t-24.5 62t24.5 62t65.5 25t65.5 -25t24.5 -62z" />
    </font>
</defs>
</svg>
